<svg id="Group_8" data-name="Group 8" xmlns="http://www.w3.org/2000/svg" width="106.071" height="30.438" viewBox="0 0 106.071 30.438">
    <path id="Path_2050" data-name="Path 2050" d="M1110.944,1882.579a3.051,3.051,0,0,1-3.051,3.051h-99.962a3.055,3.055,0,0,1-3.058-3.051v-24.33a3.059,3.059,0,0,1,3.058-3.057h99.955a3.054,3.054,0,0,1,3.057,3.052v24.336Z" transform="translate(-1004.873 -1855.192)" fill="#fff"/>
    <path id="Path_2052" data-name="Path 2052" d="M1110.944,1882.579a3.051,3.051,0,0,1-3.051,3.051h-99.962a3.055,3.055,0,0,1-3.058-3.051v-24.33a3.059,3.059,0,0,1,3.058-3.057h99.955a3.054,3.054,0,0,1,3.057,3.052v24.336Z" transform="translate(-1004.873 -1855.192)" fill="#081306"/>
    <path id="Path_2053" data-name="Path 2053" d="M1038.406,1874.825a4.619,4.619,0,0,1,2.2-3.875,4.728,4.728,0,0,0-3.725-2.014c-1.567-.165-3.087.938-3.885.938-.816,0-2.043-.922-3.368-.9a4.96,4.96,0,0,0-4.175,2.546c-1.8,3.125-.459,7.718,1.271,10.245.865,1.238,1.876,2.619,3.2,2.57,1.295-.052,1.778-.824,3.34-.824s2,.824,3.351.793c1.39-.022,2.264-1.243,3.1-2.491a10.207,10.207,0,0,0,1.417-2.886A4.469,4.469,0,0,1,1038.406,1874.825Zm-2.549-7.551a4.546,4.546,0,0,0,1.04-3.258,4.632,4.632,0,0,0-2.994,1.549,4.325,4.325,0,0,0-1.067,3.137,3.825,3.825,0,0,0,3.021-1.429Z" transform="translate(-1015.111 -1859.773)" fill="#fff"/>
    <g id="Group_164" data-name="Group 164" transform="translate(33.095 13.624)">
        <path id="Path_2055" data-name="Path 2055" d="M1082.643,1894.287h-1.809l-.991-3.114H1076.4l-.944,3.114h-1.761l3.414-10.6h2.108Zm-3.1-4.422-.9-2.769q-.142-.424-.534-2h-.032q-.158.676-.5,2l-.882,2.769Zm11.86.5a4.33,4.33,0,0,1-1.059,3.083,3.109,3.109,0,0,1-2.356,1.007,2.359,2.359,0,0,1-2.183-1.084v4.011h-1.7v-8.23q0-1.225-.063-2.512h1.494l.095,1.212h.032a3.022,3.022,0,0,1,4.837-.3,4.229,4.229,0,0,1,.9,2.817Zm-1.73.063a3.153,3.153,0,0,0-.5-1.841,1.742,1.742,0,0,0-1.479-.755,1.766,1.766,0,0,0-1.14.417,1.932,1.932,0,0,0-.669,1.094,2.231,2.231,0,0,0-.079.516v1.275a2.046,2.046,0,0,0,.512,1.412,1.7,1.7,0,0,0,1.329.575,1.742,1.742,0,0,0,1.494-.74,3.252,3.252,0,0,0,.535-1.951Zm10.523-.062a4.33,4.33,0,0,1-1.06,3.083,3.111,3.111,0,0,1-2.357,1.007,2.36,2.36,0,0,1-2.183-1.084v4.011h-1.7v-8.23q0-1.225-.063-2.512h1.494l.1,1.212h.032a3.022,3.022,0,0,1,4.837-.3,4.229,4.229,0,0,1,.9,2.817Zm-1.731.063a3.157,3.157,0,0,0-.5-1.841,1.738,1.738,0,0,0-1.477-.755,1.776,1.776,0,0,0-1.142.417,1.929,1.929,0,0,0-.667,1.094,2.259,2.259,0,0,0-.08.516v1.275a2.052,2.052,0,0,0,.511,1.412,1.7,1.7,0,0,0,1.331.575,1.738,1.738,0,0,0,1.494-.74,3.251,3.251,0,0,0,.535-1.951Zm11.562.88a2.835,2.835,0,0,1-.943,2.2,4.179,4.179,0,0,1-2.888.928,5.038,5.038,0,0,1-2.745-.661l.393-1.417a4.724,4.724,0,0,0,2.454.661,2.316,2.316,0,0,0,1.494-.433,1.414,1.414,0,0,0,.536-1.155,1.479,1.479,0,0,0-.442-1.086,4.09,4.09,0,0,0-1.462-.816q-2.784-1.039-2.785-3.037a2.681,2.681,0,0,1,.984-2.139,3.887,3.887,0,0,1,2.6-.834,5.151,5.151,0,0,1,2.406.5l-.426,1.385a4.211,4.211,0,0,0-2.037-.488,2.076,2.076,0,0,0-1.405.441,1.261,1.261,0,0,0-.426.961,1.3,1.3,0,0,0,.488,1.039,5.514,5.514,0,0,0,1.54.816,5.225,5.225,0,0,1,2.013,1.288,2.686,2.686,0,0,1,.649,1.841Zm5.631-3.4h-1.873v3.711q0,1.417.991,1.417a2.983,2.983,0,0,0,.754-.079l.047,1.289a3.862,3.862,0,0,1-1.321.188,2.037,2.037,0,0,1-1.573-.615,3.021,3.021,0,0,1-.566-2.061v-3.854H1111v-1.274h1.116v-1.4l1.668-.5v1.9h1.873Zm8.43,2.487a4.192,4.192,0,0,1-1.006,2.894,3.591,3.591,0,0,1-2.8,1.164,3.423,3.423,0,0,1-2.682-1.116,4.068,4.068,0,0,1-1-2.813,4.16,4.16,0,0,1,1.031-2.91,3.57,3.57,0,0,1,2.777-1.132,3.491,3.491,0,0,1,2.7,1.116A4.01,4.01,0,0,1,1124.088,1890.4Zm-1.76.039a3.422,3.422,0,0,0-.455-1.8,1.682,1.682,0,0,0-1.526-.911,1.707,1.707,0,0,0-1.558.911,3.48,3.48,0,0,0-.455,1.835,3.41,3.41,0,0,0,.455,1.8,1.742,1.742,0,0,0,3.07-.015,3.439,3.439,0,0,0,.469-1.821Zm7.284-2.305a3,3,0,0,0-.535-.047,1.6,1.6,0,0,0-1.385.677,2.551,2.551,0,0,0-.424,1.509v4.011h-1.7v-5.238q0-1.321-.05-2.407H1127l.062,1.462h.047a2.617,2.617,0,0,1,.849-1.211,2.052,2.052,0,0,1,1.227-.41,2.743,2.743,0,0,1,.425.031Zm7.6,1.967a3.984,3.984,0,0,1-.063.771h-5.1a2.217,2.217,0,0,0,.74,1.732,2.529,2.529,0,0,0,1.667.534,5.644,5.644,0,0,0,2.061-.361l.266,1.178a6.373,6.373,0,0,1-2.563.472,3.716,3.716,0,0,1-2.792-1.045,3.863,3.863,0,0,1-1.014-2.808,4.378,4.378,0,0,1,.944-2.877,3.254,3.254,0,0,1,2.673-1.226,2.847,2.847,0,0,1,2.5,1.226,4.128,4.128,0,0,1,.675,2.4Zm-1.62-.44a2.3,2.3,0,0,0-.33-1.306,1.484,1.484,0,0,0-1.353-.709,1.612,1.612,0,0,0-1.352.692,2.539,2.539,0,0,0-.5,1.321Z" transform="translate(-1073.693 -1883.522)" fill="#fff"/>
    </g>
    <g id="Group_165" data-name="Group 165" transform="translate(33.726 4.512)">
        <path id="Path_2056" data-name="Path 2056" d="M1079.406,1870.054h-.89l-.487-1.53h-1.693l-.466,1.53H1075l1.682-5.21h1.035Zm-1.524-2.173-.44-1.36c-.046-.14-.131-.464-.263-.982h-.016c-.054.224-.132.549-.248.982l-.433,1.36Zm5.719-1.584-1.423,3.757h-.813l-1.377-3.757h.9l.644,1.987c.108.332.2.649.27.95h.024c.062-.27.154-.587.27-.95l.634-1.987Zm3.029,3.757-.062-.433h-.023a1.282,1.282,0,0,1-1.1.518,1.093,1.093,0,0,1-1.15-1.034c0-.024,0-.048,0-.072,0-.927.8-1.407,2.2-1.407v-.069c0-.495-.263-.742-.781-.742a1.756,1.756,0,0,0-.981.279l-.172-.549a2.4,2.4,0,0,1,1.292-.325c.981,0,1.477.518,1.477,1.554v1.384a5.627,5.627,0,0,0,.054.9Zm-.116-1.871c-.928,0-1.392.225-1.392.758a.532.532,0,0,0,.472.585.522.522,0,0,0,.1,0,.8.8,0,0,0,.82-.764Zm2.673-2.5a.5.5,0,1,1,.526-.5.49.49,0,0,1-.476.5h-.05Zm.433,4.376h-.835V1866.3h.835Zm2.318,0h-.835v-5.48h.835Zm3.548,0-.062-.433h-.023a1.281,1.281,0,0,1-1.1.518,1.093,1.093,0,0,1-1.151-1.033c0-.024,0-.048,0-.072,0-.927.8-1.406,2.2-1.406v-.069c0-.495-.263-.742-.781-.742a1.756,1.756,0,0,0-.982.279l-.172-.55a2.4,2.4,0,0,1,1.291-.325c.981,0,1.477.518,1.477,1.554v1.384a5.755,5.755,0,0,0,.053.9h-.749Zm-.116-1.871c-.928,0-1.391.225-1.391.758a.531.531,0,0,0,.472.585.484.484,0,0,0,.1,0,.8.8,0,0,0,.819-.764Zm4.2,1.956a1.274,1.274,0,0,1-1.182-.665h-.016l-.047.58h-.711c.023-.3.031-.644.031-1.013v-4.468h.835v2.276h.016a1.289,1.289,0,0,1,1.2-.626c.905,0,1.539.773,1.539,1.9a1.808,1.808,0,0,1-1.663,2.015Zm-.172-3.263a.96.96,0,0,0-.92,1v.657a.921.921,0,0,0,.9.945h.01c.625,0,1-.51,1-1.322,0-.759-.387-1.277-.981-1.277Zm3.9,3.177h-.834v-5.48h.834Zm4.545-1.678h-2.506a1.078,1.078,0,0,0,1.037,1.117,1.029,1.029,0,0,0,.145,0,2.817,2.817,0,0,0,1.013-.178l.129.58a3.13,3.13,0,0,1-1.259.232,1.744,1.744,0,0,1-1.872-1.894,1.835,1.835,0,0,1,1.777-2.018,1.879,1.879,0,0,1,1.537,2.166Zm-.766-.6c0-.58-.294-.987-.828-.987a.991.991,0,0,0-.913.987Zm5.827,2.358a1.789,1.789,0,0,1-1.815-1.761c0-.057,0-.114.005-.171a1.831,1.831,0,0,1,1.872-1.987,1.774,1.774,0,0,1,1.815,1.733,1.814,1.814,0,0,1-.006.193,1.839,1.839,0,0,1-1.871,1.995Zm.032-3.31c-.6,0-.988.564-.988,1.353,0,.773.394,1.337.981,1.337s.981-.6.981-1.353-.386-1.335-.973-1.335Zm6.33,3.225h-.834V1867.9c0-.664-.255-1-.758-1a.867.867,0,0,0-.836.9v2.255H1116v-2.681c0-.332-.009-.687-.031-1.073h.734l.04.579h.024a1.346,1.346,0,0,1,1.19-.657c.788,0,1.306.6,1.306,1.585v2.25Zm5.463-3.131h-.918v1.825q0,.7.486.7a1.668,1.668,0,0,0,.372-.039l.023.634a1.851,1.851,0,0,1-.648.093c-.658,0-1.051-.363-1.051-1.315v-1.893h-.548v-.627h.548v-.687l.818-.248v.935h.919v.625Zm4.422,3.131h-.836v-2.141c0-.672-.255-1.012-.757-1.012a.816.816,0,0,0-.837.793.778.778,0,0,0,0,.1v2.264h-.835v-5.48h.835v2.257h.016a1.266,1.266,0,0,1,1.129-.611c.8,0,1.282.618,1.282,1.6Zm4.267-1.678h-2.505a1.077,1.077,0,0,0,1.036,1.117,1.055,1.055,0,0,0,.147,0,2.817,2.817,0,0,0,1.012-.177l.129.58a3.126,3.126,0,0,1-1.26.232,1.743,1.743,0,0,1-1.871-1.893,1.835,1.835,0,0,1,1.777-2.018,1.579,1.579,0,0,1,1.562,1.786,1.61,1.61,0,0,1-.028.378Zm-.766-.6c0-.58-.293-.987-.827-.987a.99.99,0,0,0-.913.987Z" transform="translate(-1075.004 -1864.574)" fill="#fff"/>
    </g>
</svg>
