<svg id="Group_8" data-name="Group 8" xmlns="http://www.w3.org/2000/svg" width="208.771" height="61.962" viewBox="0 0 208.771 61.962">
    <path id="Path_2050" data-name="Path 2050" d="M1213.644,1910.943a6.11,6.11,0,0,1-6,6.211H1010.893a6.118,6.118,0,0,1-6.02-6.211v-49.528a6.126,6.126,0,0,1,6.02-6.223h196.734a6.116,6.116,0,0,1,6.017,6.212v49.539Z" transform="translate(-1004.873 -1855.192)" fill="#fff"/>
    <path id="Path_2052" data-name="Path 2052" d="M1213.644,1910.943a6.11,6.11,0,0,1-6,6.211H1010.893a6.118,6.118,0,0,1-6.02-6.211v-49.528a6.126,6.126,0,0,1,6.02-6.223h196.734a6.116,6.116,0,0,1,6.017,6.212v49.539Z" transform="translate(-1004.873 -1855.192)" fill="#9dc08b"/>
    <path id="Path_2053" data-name="Path 2053" d="M1052.708,1886.019a9.4,9.4,0,0,1,4.478-7.888,9.624,9.624,0,0,0-7.583-4.1c-3.19-.336-6.284,1.909-7.909,1.909-1.662,0-4.16-1.877-6.856-1.822a10.1,10.1,0,0,0-8.5,5.182c-3.67,6.362-.934,15.712,2.588,20.854,1.761,2.52,3.82,5.332,6.512,5.232,2.635-.107,3.619-1.678,6.8-1.678,3.151,0,4.075,1.678,6.822,1.615,2.829-.044,4.609-2.531,6.309-5.07a20.78,20.78,0,0,0,2.884-5.874A9.1,9.1,0,0,1,1052.708,1886.019Zm-5.188-15.371a9.254,9.254,0,0,0,2.117-6.631,9.428,9.428,0,0,0-6.095,3.153,8.8,8.8,0,0,0-2.172,6.386,7.786,7.786,0,0,0,6.149-2.908Z" transform="translate(-1005.288 -1855.378)" fill="#fff"/>
    <g id="Group_164" data-name="Group 164" transform="translate(60.217 27.733)">
        <path id="Path_2055" data-name="Path 2055" d="M1091.912,1905.436h-3.683l-2.018-6.339H1079.2l-1.922,6.339h-3.584l6.949-21.583h4.292Zm-6.308-9-1.825-5.636q-.29-.863-1.088-4.065h-.065q-.322,1.375-1.025,4.065l-1.795,5.636Zm24.144,1.026a8.814,8.814,0,0,1-2.156,6.275,6.329,6.329,0,0,1-4.8,2.05,4.8,4.8,0,0,1-4.444-2.208v8.165h-3.458v-16.753q0-2.494-.128-5.115h3.041l.193,2.467h.065a6.153,6.153,0,0,1,9.846-.612,8.61,8.61,0,0,1,1.835,5.735Zm-3.522.127a6.42,6.42,0,0,0-1.025-3.748,3.547,3.547,0,0,0-3.01-1.536,3.6,3.6,0,0,0-2.32.849,3.932,3.932,0,0,0-1.362,2.226,4.54,4.54,0,0,0-.161,1.05v2.6a4.166,4.166,0,0,0,1.043,2.875,3.456,3.456,0,0,0,2.706,1.17,3.547,3.547,0,0,0,3.04-1.505,6.62,6.62,0,0,0,1.09-3.972Zm21.422-.127a8.812,8.812,0,0,1-2.158,6.275,6.333,6.333,0,0,1-4.8,2.05,4.8,4.8,0,0,1-4.444-2.208v8.165h-3.457v-16.753q0-2.494-.128-5.115h3.041l.194,2.467h.065a6.152,6.152,0,0,1,9.846-.612,8.61,8.61,0,0,1,1.835,5.735Zm-3.524.127a6.428,6.428,0,0,0-1.026-3.748,3.539,3.539,0,0,0-3.008-1.536,3.615,3.615,0,0,0-2.324.849,3.926,3.926,0,0,0-1.359,2.226,4.6,4.6,0,0,0-.163,1.05v2.6a4.178,4.178,0,0,0,1.04,2.875,3.465,3.465,0,0,0,2.709,1.17,3.538,3.538,0,0,0,3.041-1.505,6.617,6.617,0,0,0,1.089-3.972Zm23.536,1.792a5.771,5.771,0,0,1-1.919,4.483,8.507,8.507,0,0,1-5.878,1.89,10.256,10.256,0,0,1-5.589-1.345l.8-2.884a9.618,9.618,0,0,0,5,1.346,4.714,4.714,0,0,0,3.041-.881,2.878,2.878,0,0,0,1.092-2.351,3.011,3.011,0,0,0-.9-2.21,8.324,8.324,0,0,0-2.977-1.66q-5.669-2.114-5.67-6.182a5.458,5.458,0,0,1,2-4.354,7.912,7.912,0,0,1,5.3-1.7,10.485,10.485,0,0,1,4.9,1.025l-.867,2.819a8.57,8.57,0,0,0-4.148-.993,4.224,4.224,0,0,0-2.86.9,2.567,2.567,0,0,0-.867,1.957,2.64,2.64,0,0,0,.993,2.116,11.221,11.221,0,0,0,3.135,1.661,10.638,10.638,0,0,1,4.1,2.622,5.468,5.468,0,0,1,1.321,3.748Zm11.462-6.913h-3.812v7.555q0,2.884,2.017,2.885a6.065,6.065,0,0,0,1.535-.162l.1,2.623a7.864,7.864,0,0,1-2.689.383,4.145,4.145,0,0,1-3.2-1.251q-1.15-1.252-1.153-4.2v-7.845h-2.272v-2.594h2.272v-2.85l3.4-1.025v3.875h3.812Zm17.16,5.063a8.532,8.532,0,0,1-2.049,5.891,7.311,7.311,0,0,1-5.7,2.37,6.968,6.968,0,0,1-5.46-2.272,8.282,8.282,0,0,1-2.03-5.727,8.469,8.469,0,0,1,2.1-5.923,7.267,7.267,0,0,1,5.654-2.3,7.106,7.106,0,0,1,5.506,2.272A8.162,8.162,0,0,1,1176.281,1897.529Zm-3.583.08a6.964,6.964,0,0,0-.926-3.671,3.424,3.424,0,0,0-3.107-1.854,3.475,3.475,0,0,0-3.171,1.854,7.085,7.085,0,0,0-.927,3.736,6.94,6.94,0,0,0,.927,3.671,3.547,3.547,0,0,0,6.249-.03,7,7,0,0,0,.955-3.708Zm14.827-4.693a6.128,6.128,0,0,0-1.09-.1,3.265,3.265,0,0,0-2.819,1.379,5.193,5.193,0,0,0-.863,3.073v8.165H1179.3v-10.662q0-2.689-.1-4.9h3.012l.126,2.977h.1a5.329,5.329,0,0,1,1.729-2.466,4.178,4.178,0,0,1,2.5-.834,5.589,5.589,0,0,1,.864.064Zm15.464,4a8.1,8.1,0,0,1-.127,1.569h-10.373a4.514,4.514,0,0,0,1.506,3.526,5.147,5.147,0,0,0,3.393,1.087,11.491,11.491,0,0,0,4.195-.736l.542,2.4a12.971,12.971,0,0,1-5.218.961,7.565,7.565,0,0,1-5.685-2.127,7.864,7.864,0,0,1-2.065-5.716,8.913,8.913,0,0,1,1.923-5.856,6.626,6.626,0,0,1,5.441-2.5,5.8,5.8,0,0,1,5.094,2.5,8.4,8.4,0,0,1,1.375,4.891Zm-3.3-.9a4.673,4.673,0,0,0-.671-2.658,3.02,3.02,0,0,0-2.754-1.443,3.281,3.281,0,0,0-2.753,1.408,5.17,5.17,0,0,0-1.023,2.689Z" transform="translate(-1073.693 -1883.522)" fill="#fff"/>
    </g>
    <g id="Group_165" data-name="Group 165" transform="translate(61.501 9.184)">
        <path id="Path_2056" data-name="Path 2056" d="M1083.965,1875.73h-1.812l-.991-3.115h-3.447l-.949,3.115H1075l3.423-10.607h2.108Zm-3.1-4.423-.9-2.769c-.094-.285-.267-.945-.535-2h-.032c-.111.455-.268,1.117-.5,2l-.881,2.769Zm11.642-3.225-2.9,7.647h-1.654l-2.8-7.647h1.826l1.311,4.045c.22.676.409,1.322.549,1.934h.048c.126-.549.314-1.194.549-1.934l1.292-4.045Zm6.167,7.647-.127-.881h-.047a2.609,2.609,0,0,1-2.235,1.055,2.226,2.226,0,0,1-2.342-2.1c0-.049,0-.1,0-.146,0-1.888,1.635-2.864,4.47-2.864v-.141c0-1.007-.535-1.511-1.59-1.511a3.576,3.576,0,0,0-2,.568l-.349-1.117a4.893,4.893,0,0,1,2.629-.662c2,0,3.006,1.055,3.006,3.164v2.816a11.457,11.457,0,0,0,.111,1.827Zm-.237-3.809c-1.889,0-2.833.457-2.833,1.543a1.084,1.084,0,0,0,.961,1.192,1.043,1.043,0,0,0,.2,0,1.626,1.626,0,0,0,1.669-1.556Zm5.441-5.1a1.016,1.016,0,1,1,1.07-1.023,1,1,0,0,1-.968,1.028c-.034,0-.069,0-.1,0Zm.882,8.909h-1.7v-7.648h1.7Zm4.719,0h-1.7v-11.156h1.7Zm7.223,0-.126-.881h-.047a2.609,2.609,0,0,1-2.235,1.054,2.226,2.226,0,0,1-2.343-2.1c0-.049,0-.1,0-.147,0-1.887,1.636-2.863,4.47-2.863v-.141c0-1.007-.535-1.511-1.589-1.511a3.576,3.576,0,0,0-2,.568l-.349-1.119a4.9,4.9,0,0,1,2.629-.662c2,0,3.007,1.055,3.007,3.164v2.817a11.708,11.708,0,0,0,.109,1.825H1116.7Zm-.237-3.809c-1.889,0-2.832.457-2.832,1.543a1.081,1.081,0,0,0,.961,1.191.984.984,0,0,0,.2,0,1.626,1.626,0,0,0,1.668-1.556Zm8.54,3.982a2.594,2.594,0,0,1-2.405-1.354h-.032l-.1,1.181h-1.448c.047-.612.063-1.312.063-2.062v-9.1h1.7v4.632h.032a2.623,2.623,0,0,1,2.44-1.275c1.842,0,3.133,1.573,3.133,3.871,0,2.371-1.436,4.1-3.386,4.1Zm-.349-6.642a1.954,1.954,0,0,0-1.873,2.031v1.338a1.874,1.874,0,0,0,1.824,1.923h.021c1.273,0,2.03-1.038,2.03-2.69,0-1.545-.787-2.6-2-2.6Zm7.941,6.468h-1.7v-11.155h1.7Zm9.252-3.415h-5.1a2.195,2.195,0,0,0,2.112,2.274,2.1,2.1,0,0,0,.3-.009,5.737,5.737,0,0,0,2.062-.362l.262,1.18a6.373,6.373,0,0,1-2.563.473,3.55,3.55,0,0,1-3.81-3.855c0-2.345,1.45-4.108,3.618-4.108,1.951,0,3.181,1.448,3.181,3.636a3.187,3.187,0,0,1-.051.772Zm-1.559-1.212c0-1.18-.6-2.01-1.685-2.01a2.017,2.017,0,0,0-1.858,2.01Zm11.861,4.8a3.641,3.641,0,0,1-3.694-3.586c0-.116,0-.232.01-.347a3.727,3.727,0,0,1,3.811-4.046,3.612,3.612,0,0,1,3.7,3.527,4.432,4.432,0,0,1-3.82,4.454Zm.064-6.737c-1.224,0-2.01,1.149-2.01,2.754,0,1.573.8,2.722,2,2.722s2-1.223,2-2.755c0-1.555-.785-2.719-1.98-2.719Zm12.886,6.565h-1.7v-4.39c0-1.352-.519-2.03-1.543-2.03a1.765,1.765,0,0,0-1.7,1.827l0,.045v4.545h-1.7v-5.458c0-.677-.018-1.4-.063-2.185h1.495l.082,1.178h.048a2.741,2.741,0,0,1,2.422-1.338c1.6,0,2.659,1.224,2.659,3.226v4.58Zm11.121-6.374h-1.869v3.715q0,1.418.989,1.417a3.4,3.4,0,0,0,.756-.079l.047,1.29a3.77,3.77,0,0,1-1.32.19c-1.34,0-2.139-.739-2.139-2.676v-3.854h-1.116v-1.276h1.116v-1.4l1.666-.5v1.9h1.87v1.272Zm9,6.374h-1.7v-4.358c0-1.369-.519-2.061-1.542-2.061a1.661,1.661,0,0,0-1.7,1.615,1.565,1.565,0,0,0,.006.194v4.609h-1.7v-11.156h1.7v4.594h.032a2.577,2.577,0,0,1,2.3-1.244c1.62,0,2.611,1.259,2.611,3.258Zm8.685-3.415h-5.1a2.193,2.193,0,0,0,2.108,2.274,2.148,2.148,0,0,0,.3-.009,5.736,5.736,0,0,0,2.06-.36l.262,1.18a6.366,6.366,0,0,1-2.565.472,3.549,3.549,0,0,1-3.809-3.854c0-2.346,1.45-4.108,3.618-4.108,1.951,0,3.18,1.448,3.18,3.636a3.281,3.281,0,0,1-.057.769Zm-1.559-1.212c0-1.18-.6-2.01-1.684-2.01a2.016,2.016,0,0,0-1.858,2.01Z" transform="translate(-1075.004 -1864.574)" fill="#fff"/>
    </g>
</svg>
