<svg width="25" height="24" viewBox="0 0 25 24" fill="none" xmlns="http://www.w3.org/2000/svg">
    <path fill-rule="evenodd" clip-rule="evenodd" d="M12.2334 7.58469C12.5952 7.47177 12.9828 7.47177 13.3445 7.58469L13.3718 7.5932L22.1552 11.0882C22.4828 11.202 22.9253 11.4504 23.1336 11.9462L23.1342 11.9477L23.1349 11.9492C23.2597 12.25 23.3838 12.7384 23.1847 13.2274L20.9958 18.8126L20.9938 18.8177C20.9058 19.0329 20.7519 19.2146 20.5541 19.3369C20.358 19.458 20.1289 19.5145 19.8991 19.4983C18.5614 19.4131 17.3982 18.7927 16.4987 18.0147C15.5282 18.8554 14.2559 19.5 12.7892 19.5C11.3234 19.5 10.0453 18.8561 9.07311 18.0164C8.17323 18.7941 7.00991 19.4132 5.67244 19.4983C5.4419 19.5144 5.21212 19.4574 5.01574 19.3354C4.81783 19.2125 4.66408 19.0299 4.57666 18.8139L4.57492 18.8096L2.38603 13.2045L2.38062 13.1886C2.21035 12.6874 2.31167 12.2733 2.44515 11.9524C2.65013 11.4596 3.0933 11.2016 3.43686 11.0878L12.2059 7.59326L12.2334 7.58469ZM12.7005 9.0109L3.94211 12.5011L3.91461 12.5097C3.89264 12.5166 3.87238 12.5248 3.85488 12.5336C3.83898 12.5415 3.82735 12.5489 3.81961 12.5546C3.79779 12.6109 3.79288 12.6386 3.7916 12.6515C3.79095 12.6581 3.79101 12.6632 3.79167 12.6689C3.79221 12.6736 3.79355 12.682 3.79736 12.695L5.85806 17.9718C6.77348 17.8378 7.61838 17.3445 8.30913 16.6844L8.31144 16.6822L8.31378 16.68C8.51943 16.4867 8.791 16.3792 9.07318 16.3792C9.35536 16.3792 9.62693 16.4867 9.83258 16.68L9.83518 16.6824L9.83775 16.6849C10.649 17.4616 11.6777 18 12.7892 18C13.8995 18 14.9211 17.4627 15.733 16.6835L15.736 16.6807L15.739 16.6779C15.9447 16.4848 16.2162 16.3773 16.4984 16.3773C16.7806 16.3773 17.0522 16.4848 17.2579 16.6779L17.2604 16.6803L17.2629 16.6826C17.954 17.3436 18.7991 17.8378 19.7142 17.9719L21.7892 12.6774C21.7891 12.6741 21.7889 12.6695 21.7883 12.6634C21.7858 12.6371 21.7776 12.5988 21.7604 12.552C21.7425 12.5393 21.7086 12.5203 21.6571 12.5031L21.6373 12.4965L12.8776 9.01093C12.8194 8.99637 12.7586 8.99636 12.7005 9.0109Z" fill="white"/>
    <path d="M20.2881 22.1784C20.2881 22.1209 20.2726 22.0644 20.2432 22.0149C20.2138 21.9655 20.1717 21.9248 20.1212 21.8972C18.8518 21.2152 17.6945 20.1713 17.1854 19.6472C17.1098 19.5679 17.0089 19.5174 16.9 19.5045C16.7912 19.4916 16.6813 19.517 16.5892 19.5764C14.23 21.0961 11.3575 21.097 8.99778 19.5788C8.90486 19.5188 8.79386 19.4932 8.68408 19.5066C8.57429 19.5199 8.47265 19.5714 8.39684 19.6519C7.892 20.1806 6.74731 21.2128 5.47043 21.8902C5.41977 21.9158 5.37646 21.9539 5.34457 22.0009C5.31267 22.0479 5.29324 22.1022 5.28809 22.1588C5.28428 22.2069 5.2916 22.2554 5.30948 22.3003C5.32735 22.3452 5.35531 22.3854 5.39118 22.4178C5.42706 22.4501 5.4699 22.4739 5.51639 22.4871C5.56289 22.5003 5.61179 22.5026 5.65934 22.4939C6.63668 22.298 7.58121 21.8527 8.48121 21.3769C8.53895 21.3465 8.60313 21.3304 8.66837 21.3299C8.73362 21.3294 8.79803 21.3445 8.85621 21.3741C10.0751 21.9943 11.4232 22.3176 12.7908 22.3178C14.1583 22.3179 15.5066 21.9949 16.7256 21.375C16.7844 21.3452 16.8496 21.3299 16.9155 21.3304C16.9815 21.3309 17.0464 21.3471 17.1048 21.3778C18.0001 21.8466 18.9432 22.2961 19.9173 22.4934C19.9632 22.502 20.0104 22.5002 20.0555 22.4883C20.1006 22.4764 20.1425 22.4546 20.1782 22.4245C20.2138 22.3944 20.2424 22.3568 20.2617 22.3143C20.281 22.2718 20.2907 22.2256 20.29 22.1789L20.2881 22.1784Z" fill="white"/>
    <path fill-rule="evenodd" clip-rule="evenodd" d="M10.9119 1.5L10.9141 1.5H14.6641L14.6662 1.5C15.1625 1.50144 15.638 1.69922 15.9889 2.05013C16.3398 2.40104 16.5376 2.87656 16.5391 3.37282L16.5391 3.375V4.5C16.5391 4.91421 16.2033 5.25 15.7891 5.25C15.3748 5.25 15.0391 4.91421 15.0391 4.5V3.37637C15.0386 3.27672 14.9988 3.18127 14.9283 3.11079C14.8578 3.04031 14.7623 3.0005 14.6627 3H10.9154C10.8158 3.0005 10.7203 3.04031 10.6499 3.11079C10.5794 3.18127 10.5396 3.27672 10.5391 3.37638V4.5C10.5391 4.91421 10.2033 5.25 9.78906 5.25C9.37485 5.25 9.03906 4.91421 9.03906 4.5V3.375L9.03907 3.37282C9.04051 2.87656 9.23828 2.40104 9.58919 2.05013C9.9401 1.69922 10.4156 1.50144 10.9119 1.5Z" fill="white"/>
    <path fill-rule="evenodd" clip-rule="evenodd" d="M7.53688 3.75L7.53906 3.75H18.0391L18.0412 3.75C18.8356 3.75231 19.5968 4.06889 20.1585 4.63059C20.7202 5.19229 21.0368 5.95346 21.0391 6.74782L21.0391 6.75V10.9219C21.0391 11.3361 20.7033 11.6719 20.2891 11.6719C19.8748 11.6719 19.5391 11.3361 19.5391 10.9219V6.75128C19.5377 6.35356 19.3791 5.97251 19.0978 5.69125C18.8166 5.41002 18.4356 5.25141 18.0379 5.25H7.54026C7.14257 5.25141 6.76155 5.41002 6.48031 5.69125C6.19908 5.97248 6.04048 6.3535 6.03906 6.7512V11.0625C6.03906 11.4767 5.70328 11.8125 5.28906 11.8125C4.87485 11.8125 4.53906 11.4767 4.53906 11.0625V6.75L4.53907 6.74782C4.54137 5.95346 4.85795 5.19229 5.41965 4.63059C5.98136 4.06889 6.74252 3.75231 7.53688 3.75Z" fill="white"/>
    <path fill-rule="evenodd" clip-rule="evenodd" d="M12.7891 7.8562C13.2033 7.8562 13.5391 8.19199 13.5391 8.6062V18.5835C13.5391 18.9978 13.2033 19.3335 12.7891 19.3335C12.3748 19.3335 12.0391 18.9978 12.0391 18.5835V8.6062C12.0391 8.19199 12.3748 7.8562 12.7891 7.8562Z" fill="white"/>
</svg>
