<svg width="25" height="25" viewBox="0 0 25 25" fill="none" xmlns="http://www.w3.org/2000/svg">
    <g clip-path="url(#clip0_222_2394)">
        <path d="M12.779 1.81121C12.5999 1.73944 12.4001 1.73944 12.221 1.81121L3.269 5.39171L6.875 6.83321L16.106 3.14171L12.779 1.81121ZM18.125 3.95021L8.894 7.64171L12.5 9.08321L21.731 5.39171L18.125 3.95021ZM23 6.50021L13.25 10.4002V22.2832L23 18.3832V6.50171V6.50021ZM11.75 22.2847V10.3987L2 6.50021V18.3847L11.75 22.2847ZM11.6645 0.417712C12.2008 0.203211 12.7992 0.203211 13.3355 0.417712L24.029 4.69571C24.168 4.75143 24.2872 4.8475 24.3711 4.97155C24.4551 5.09559 24.5 5.24193 24.5 5.39171V18.3847C24.4998 18.6844 24.4098 18.9772 24.2417 19.2254C24.0735 19.4735 23.8348 19.6655 23.5565 19.7767L12.779 24.0877C12.5999 24.1595 12.4001 24.1595 12.221 24.0877L1.445 19.7767C1.16638 19.6657 0.927414 19.4738 0.758963 19.2257C0.590513 18.9775 0.500309 18.6846 0.5 18.3847V5.39171C0.500035 5.24193 0.544916 5.09559 0.628861 4.97155C0.712805 4.8475 0.831969 4.75143 0.971 4.69571L11.6645 0.417712Z" fill="white"/>
    </g>
    <defs>
        <clipPath id="clip0_222_2394">
            <rect width="24" height="24" fill="white" transform="translate(0.5 0.141602)"/>
        </clipPath>
    </defs>
</svg>
