<svg width="57" height="59" viewBox="0 0 57 59" fill="none" xmlns="http://www.w3.org/2000/svg">
<path d="M2.55078 45.96H54.9317" stroke="#091242" stroke-width="2" stroke-linecap="round" stroke-linejoin="round"/>
<path d="M32.9334 45.96V3.873C32.9334 3.36563 32.7284 2.87904 32.3636 2.52028C31.9987 2.16151 31.5038 1.95996 30.9878 1.95996H7.64089C7.12489 1.95996 6.63003 2.16151 6.26516 2.52028C5.90029 2.87904 5.69531 3.36563 5.69531 3.873V45.96" stroke="#091242" stroke-width="2" stroke-linecap="round" stroke-linejoin="round"/>
<path d="M32.9316 14.5312H48.7888C50.4456 14.5312 51.7888 15.8744 51.7888 17.5312V44.9122H32.9316V14.5312Z" fill="#F76907" stroke="#091242" stroke-width="2" stroke-linecap="round" stroke-linejoin="round"/>
<path d="M14.0762 11.3887H21.4095" stroke="#091242" stroke-width="2" stroke-linecap="round" stroke-linejoin="round"/>
<path d="M1.50391 41.7695L1.50391 27.1029" stroke="#091242" stroke-width="2" stroke-linecap="round" stroke-linejoin="round"/>
<path d="M55.9805 31.293L55.9805 16.6263" stroke="#091242" stroke-width="2" stroke-linecap="round" stroke-linejoin="round"/>
<path d="M36.0762 10.3408L43.4095 10.3408" stroke="#091242" stroke-width="2" stroke-linecap="round" stroke-linejoin="round"/>
<path d="M17.2188 27.1025H24.5521" stroke="#091242" stroke-width="2" stroke-linecap="round" stroke-linejoin="round"/>
<path d="M14.0762 36.5312H21.4095" stroke="#091242" stroke-width="2" stroke-linecap="round" stroke-linejoin="round"/>
<path d="M40.2656 36.5312H44.4561" stroke="#091242" stroke-width="2" stroke-linecap="round" stroke-linejoin="round"/>
<path d="M40.2656 27.1025H44.4561" stroke="#091242" stroke-width="2" stroke-linecap="round" stroke-linejoin="round"/>
</svg>
