<svg width="55" height="59" viewBox="0 0 55 59" fill="none" xmlns="http://www.w3.org/2000/svg">
<rect width="10.8596" height="8.52826" transform="matrix(-0.925898 -0.377773 -0.377773 0.925898 48.3125 41.105)" fill="#F76907"/>
<path d="M40.1191 27.2155L33.0533 23.9351L32.0439 27.2155L38.1002 31.2529L39.6143 34.0286L45.9224 33.0192L43.3989 26.2061L40.1191 27.2155Z" fill="#F76907"/>
<path d="M40.5607 26.7975C38.6211 25.7805 36.6506 24.7467 34.6787 23.7142C34.3998 23.5677 34.1251 23.4072 33.835 23.2846C33.1772 23.0071 32.4983 23.1973 32.1433 23.8184C31.6391 24.7002 31.1616 25.6002 30.7277 26.52C30.3911 27.2313 30.6813 27.913 31.4405 28.3187C33.0335 29.168 34.6364 30.0005 36.2351 30.8399C36.7168 31.0921 37.1901 31.3611 37.6816 31.5893C37.9591 31.7189 38.0211 31.878 37.9478 32.164C37.8436 32.571 37.7774 32.9879 37.7042 33.402C37.5154 34.4852 38.2239 35.2416 39.3197 35.0599C40.7381 34.8247 42.1453 34.5303 43.558 34.2612C44.2299 34.1331 44.9032 34.0133 45.5736 33.8795C46.6145 33.6725 47.0737 32.833 46.6539 31.8682C45.8145 29.9399 44.9637 28.0159 44.1045 26.0974C43.6186 25.0143 42.5678 24.8382 41.7227 25.6777C41.3508 26.0467 40.9677 26.4073 40.5607 26.7989V26.7975ZM42.7199 26.8721C43.5453 28.7426 44.3271 30.5146 45.1355 32.3471C43.1749 32.7245 41.2748 33.0894 39.3958 33.4513C39.3564 33.402 39.3338 33.3851 39.3367 33.3753C39.4141 32.9443 39.4902 32.5133 39.5747 32.0851C39.7324 31.2822 39.5 30.7751 38.7718 30.3892C37.9197 29.9371 37.0633 29.4934 36.2097 29.0455C34.9097 28.3623 33.6096 27.6792 32.2602 26.9693C32.6419 26.2397 33.0039 25.5495 33.3786 24.8354C33.5758 24.934 33.7321 25.0101 33.8843 25.0889C35.8266 26.1045 37.7676 27.1214 39.7099 28.137C40.6804 28.6441 41.1255 28.5722 41.8973 27.7722C42.1636 27.4961 42.4157 27.2059 42.7185 26.8735L42.7199 26.8721Z" fill="#091242"/>
<path d="M0.507046 46.0199C1.04088 47.4538 2.12542 47.9566 3.47478 47.8003C3.6762 48.6017 3.81849 49.3525 4.06216 50.0708C4.21288 50.5145 4.66922 50.6413 5.0636 50.4694C5.47912 50.2891 5.63548 49.8891 5.47069 49.4187C5.42984 49.3032 5.38052 49.1905 5.34108 49.075C4.8988 47.7763 5.59884 46.3579 6.88905 45.9283C8.19193 45.4959 9.58778 46.1988 10.0202 47.5045C10.5428 49.0834 9.37792 50.7187 7.706 50.7525C7.54824 50.7554 7.3891 50.7342 7.23275 50.7455C6.80597 50.7765 6.54678 51.0075 6.50452 51.4357C6.46368 51.8568 6.65383 52.2146 7.07357 52.2498C7.6229 52.2963 8.20462 52.3005 8.73423 52.1695C10.4583 51.7399 11.6344 50.2314 11.7147 48.4566C11.7231 48.2665 11.7147 48.0749 11.7147 47.8425H15.112C15.112 48.475 15.1092 49.1172 15.112 49.7595C15.1177 50.6131 15.3656 50.8596 16.2079 50.8638C16.6825 50.8652 17.1572 50.8765 17.6305 50.861C18.5742 50.8328 19.3883 50.9117 20.2236 51.5977C21.6941 52.8034 23.8589 52.5386 25.2309 51.2061C25.4942 50.9497 25.7464 50.8568 26.1056 50.8568C35.1539 50.8652 44.2037 50.8638 53.2521 50.8638C54.2817 50.8638 54.4873 50.6596 54.4873 49.6384C54.4873 35.1081 54.4831 20.5763 54.5 6.04597C54.5 5.36143 54.2845 4.96423 53.6352 4.73745C53.007 4.51772 52.4083 4.21912 51.7928 3.96136C51.1759 3.7036 50.7449 3.82473 50.5435 4.30222C50.3505 4.75717 50.5829 5.1586 51.1928 5.42481C51.659 5.62764 52.1337 5.81357 52.5901 6.03611C52.7197 6.0995 52.8901 6.26289 52.8901 6.38261C52.9084 8.32778 52.9028 10.2744 52.9028 12.2759H52.2351C42.729 12.2759 33.2228 12.2759 23.7181 12.2759C22.1645 12.2759 21.5363 12.897 21.5349 14.438C21.5335 16.5113 21.5349 18.5847 21.5349 20.658C21.5349 20.7989 21.5307 20.9397 21.5448 21.0792C21.5926 21.5426 21.9067 21.8553 22.318 21.8595C22.7293 21.8651 23.0547 21.5538 23.1026 21.0947C23.1209 20.92 23.1153 20.7439 23.1153 20.5679C23.1153 18.5114 23.1223 16.4564 23.1096 14.3999C23.1068 14.014 23.1885 13.8464 23.6308 13.8464C33.2595 13.8591 42.8881 13.8562 52.5168 13.8562C52.6211 13.8562 52.7239 13.8661 52.8647 13.8731V49.282H50.9252C50.135 49.282 49.3378 49.2229 48.5546 49.2961C47.5475 49.3905 46.7221 48.9539 45.8122 48.5581C46.2672 47.4355 46.7123 46.3354 47.1602 45.2354C47.6954 43.9198 48.2349 42.6042 48.7673 41.2873C49.0687 40.545 48.9194 40.2041 48.1659 39.897C45.1122 38.6533 42.0571 37.411 39.002 36.1701C38.2034 35.8447 37.8949 35.9715 37.5724 36.7617C36.6709 38.9702 35.7737 41.1802 34.8736 43.3902C34.8074 43.5508 34.737 43.7099 34.6454 43.9226C33.4834 43.4409 32.3411 42.969 31.1988 42.4915C30.7128 42.2887 30.0382 42.2 29.8015 41.8338C29.5508 41.4436 29.7071 40.7844 29.7057 40.2421C29.7015 36.4814 29.7043 32.722 29.7029 28.9613C29.7029 27.6443 29.2029 27.1372 27.9029 27.1358C26.3394 27.1344 24.7773 27.1358 23.1505 27.1358C23.1364 26.8612 23.1153 26.6076 23.1125 26.3555C23.1068 25.6526 23.1209 24.9498 23.1054 24.2469C23.0927 23.6582 22.7913 23.3356 22.3026 23.3469C21.8335 23.3581 21.5476 23.6666 21.5349 24.2314C21.518 24.9864 21.5293 25.7428 21.5293 26.4978C21.5293 26.6879 21.5293 26.8781 21.5293 27.1006H16.7121C16.7022 26.895 16.6853 26.7076 16.6853 26.5203C16.6853 21.1792 16.6896 15.8366 16.6755 10.4955C16.6741 9.93632 16.8403 9.66025 17.4149 9.49545C25.8957 7.06574 34.3694 4.60928 42.8487 2.17394C43.105 2.1007 43.4403 2.13732 43.6924 2.24014C45.1066 2.81482 46.5038 3.42753 47.9095 4.02333C48.5095 4.27687 48.9617 4.14587 49.1561 3.67543C49.3406 3.22611 49.1237 2.82609 48.549 2.57818C47.0827 1.94857 45.6136 1.3246 44.1473 0.693579C43.6262 0.469624 43.105 0.431593 42.5557 0.590757C34.013 3.06131 25.4703 5.52482 16.9262 7.99255C15.5825 8.3799 15.105 9.025 15.105 10.4462C15.1022 15.7704 15.105 21.0947 15.105 26.4175V27.1316H14.4641C10.8273 27.1316 7.19048 27.1316 3.55226 27.1316C2.20008 27.1316 1.72823 27.6077 1.72823 28.9782C1.72823 33.2657 1.72823 37.5533 1.72823 41.8394V42.4648C1.6902 42.4296 1.65357 42.3944 1.61554 42.3577C1.24369 42.593 0.871849 42.8282 0.499996 43.0634V46.0157L0.507046 46.0199ZM28.0916 31.4065V42.5084H3.35085V31.4065H28.0916ZM36.1202 44.5353C37.0427 42.269 37.9386 40.0661 38.8527 37.8181C39.5809 38.1153 40.2654 38.3956 40.9725 38.6843C40.7317 39.2787 40.5106 39.8125 40.2979 40.3492C39.9584 41.2084 40.1908 41.7718 41.0317 42.1282C41.5317 42.3408 42.0346 42.5479 42.5402 42.7451C43.36 43.0648 43.9346 42.8226 44.2811 42.0155C44.5192 41.4577 44.7474 40.8943 44.991 40.3083C45.7178 40.6055 46.3939 40.8816 47.1067 41.1732C46.1813 43.4493 45.2728 45.6819 44.3474 47.9594C41.5951 46.8143 38.8837 45.6847 36.1202 44.5353ZM29.355 44.1409C29.355 44.6043 29.3691 45.0072 29.3522 45.4072C29.3283 45.9607 29.0818 46.2044 28.5268 46.2129C27.7719 46.2255 27.0155 46.234 26.2619 46.203C26.0915 46.196 25.8788 46.0622 25.7703 45.9213C24.0111 43.6367 20.9081 43.6395 19.1362 45.9255C19.0207 46.0748 18.7728 46.2016 18.5854 46.203C16.2318 46.2213 13.8782 46.2199 11.5231 46.203C11.3499 46.203 11.1217 46.0875 11.0146 45.9509C9.19903 43.631 6.14252 43.6226 4.34947 45.9354C4.24242 46.0748 4.02554 46.1791 3.84665 46.2016C3.51847 46.2439 3.18041 46.2213 2.84659 46.2101C2.44798 46.1974 2.14655 46.003 2.10852 45.6002C2.06345 45.1199 2.09724 44.6325 2.09724 44.1381H29.3522L29.355 44.1409ZM3.34803 28.7514H28.0972V29.7683H3.34803V28.7514ZM43.098 49.1539C43.0938 49.1905 43.0909 49.2271 43.0867 49.2651C43.0233 49.2694 42.9614 49.2792 42.898 49.2792C41.1416 49.2792 39.3851 49.2849 37.6287 49.2736C37.4259 49.2736 37.2132 49.2102 37.0245 49.1327C35.2723 48.413 33.5243 47.6834 31.7777 46.9552C31.4284 46.8101 31.0847 46.6537 30.8297 46.5425C30.8861 45.6875 30.9368 44.9269 30.9903 44.1128C35.0483 45.803 39.0738 47.4791 43.0994 49.1553L43.098 49.1539ZM19.9897 48.2496C19.9996 46.8721 21.1081 45.7903 22.4913 45.8058C23.8308 45.8213 24.9309 46.9326 24.9309 48.2735C24.9309 49.6285 23.7956 50.7596 22.442 50.754C21.0743 50.7469 19.9799 49.63 19.9911 48.2496H19.9897ZM26.5253 47.8496C27.4873 47.8003 28.4451 47.7453 29.4015 47.7073C29.5156 47.7031 29.6339 47.7749 29.7466 47.8228C30.7171 48.2257 31.6861 48.6285 32.6538 49.0356C32.7651 49.082 32.8665 49.1525 33.0242 49.2426H26.4351C26.4661 48.7538 26.4943 48.3045 26.5239 47.851L26.5253 47.8496ZM16.7262 47.8425H18.3911C18.4164 48.3327 18.4404 48.7806 18.4643 49.2511H16.7262V47.8425ZM42.9092 41.1943C42.5219 41.0267 42.1937 40.8858 41.8472 40.7365C42.0585 40.2266 42.2501 39.7661 42.4543 39.2731C42.8388 39.4393 43.1684 39.5801 43.5093 39.7266C43.3065 40.2252 43.1219 40.6774 42.9107 41.1943H42.9092Z" fill="#091242"/>
<path d="M20.4085 36.9503C20.4085 35.6502 20.4043 34.3501 20.4113 33.0501C20.4127 32.6261 20.3775 32.1261 19.9197 32.057C19.3972 31.9782 18.7817 31.9965 18.3154 32.2106C17.8337 32.4317 17.9675 33.2022 18.5028 33.4402C18.7972 33.5712 18.8323 33.736 18.8309 34.0008C18.8239 35.9854 18.8352 37.9714 18.8141 39.9561C18.8126 40.1251 18.6577 40.3448 18.5098 40.4476C18.1901 40.6702 17.9901 40.9251 18.0661 41.3209C18.1422 41.7153 18.4112 41.9224 18.8014 41.9632C18.9929 41.9829 19.1873 41.9787 19.3803 41.9759C20.131 41.9618 20.4043 41.6984 20.4085 40.9547C20.4155 39.6194 20.4099 38.2841 20.4113 36.9488L20.4085 36.9503Z" fill="#091242"/>
<path d="M23.9048 36.9034C23.9048 35.6033 23.9076 34.3032 23.9048 33.0032C23.902 32.2257 23.6443 31.9707 22.8597 31.9623C22.6667 31.9609 22.4724 31.9595 22.2808 31.9735C21.9047 32.0017 21.6568 32.2003 21.5779 32.5722C21.4963 32.9623 21.6272 33.3032 21.9977 33.4384C22.3062 33.5511 22.3287 33.73 22.3273 33.9948C22.3202 35.9625 22.3202 37.9302 22.3273 39.8965C22.3273 40.174 22.3217 40.3782 21.9836 40.4923C21.6315 40.612 21.454 40.9698 21.5892 41.3064C21.6906 41.5586 21.9498 41.836 22.1991 41.9205C22.5132 42.0262 22.8963 41.991 23.2386 41.9389C23.74 41.8614 23.9076 41.4895 23.9062 41.0135C23.9034 39.643 23.9062 38.2739 23.9062 36.9034H23.9048Z" fill="#091242"/>
<path d="M9.89366 36.9432C9.89366 35.6262 9.89647 34.3093 9.89366 32.9909C9.89225 32.2289 9.64434 31.9753 8.89641 31.9641C8.68654 31.9613 8.47385 31.9598 8.26539 31.9782C7.88791 32.0091 7.58225 32.2232 7.59211 32.5866C7.60057 32.8726 7.75409 33.2656 7.97523 33.4078C8.24426 33.5811 8.31893 33.729 8.31753 34.0149C8.30907 35.9826 8.31048 37.9489 8.31612 39.9166C8.31612 40.1927 8.29074 40.3659 7.97805 40.5209C7.76536 40.6265 7.56536 41.035 7.59775 41.2786C7.62874 41.5195 7.9189 41.8322 8.16257 41.9139C8.49358 42.0252 8.8936 41.99 9.25277 41.9364C9.72885 41.8674 9.89788 41.5139 9.89648 41.0547C9.89225 39.6842 9.89507 38.3151 9.89507 36.9446L9.89366 36.9432Z" fill="#091242"/>
<path d="M6.40733 36.8995C6.40733 35.6178 6.40874 34.3346 6.40733 33.0529C6.40733 32.2063 6.16223 31.9683 5.30444 31.9641C5.11147 31.9641 4.87909 31.9091 4.73402 31.9951C4.48612 32.1415 4.20863 32.3416 4.09736 32.5895C3.94947 32.9191 4.11142 33.2881 4.45933 33.4177C4.80301 33.5458 4.83261 33.7501 4.8312 34.0557C4.81993 36.0051 4.82274 37.9559 4.82979 39.9053C4.82979 40.1856 4.81852 40.3842 4.48189 40.4983C4.12835 40.618 3.9565 40.9786 4.09313 41.3139C4.19595 41.566 4.45651 41.8406 4.70723 41.9238C5.02274 42.0294 5.40587 41.9928 5.74674 41.9392C6.24817 41.8604 6.41156 41.4871 6.41015 41.011C6.40592 39.6405 6.40874 38.27 6.40874 36.901L6.40733 36.8995Z" fill="#091242"/>
<path d="M25.784 40.3429C25.1291 40.6288 24.9051 41.0204 25.1136 41.5007C25.3023 41.9331 25.9418 42.1162 26.7179 41.9542C27.1855 41.857 27.394 41.5556 27.394 41.0894C27.394 38.3315 27.3968 35.5736 27.3897 32.8157C27.3883 32.2819 27.1095 32.0044 26.5869 31.9706C26.3418 31.9551 26.0953 31.9621 25.8502 31.9706C25.4305 31.9847 25.1403 32.1819 25.0685 32.6072C24.9981 33.0214 25.1685 33.3256 25.5685 33.4848C25.6319 33.5101 25.6967 33.5369 25.784 33.5721V40.3443V40.3429Z" fill="#091242"/>
<path d="M13.3908 36.9535C13.3908 35.6197 13.3951 34.2858 13.3908 32.9505C13.388 32.2237 13.1373 31.9758 12.4119 31.9631C12.1837 31.9589 11.9203 31.9026 11.7372 31.9955C11.4823 32.1251 11.1414 32.3505 11.1062 32.5773C11.0654 32.8364 11.2456 33.2646 11.4639 33.3956C11.7682 33.5773 11.8175 33.7562 11.8175 34.0548C11.809 36.0028 11.8104 37.9522 11.8175 39.9002C11.8175 40.1762 11.7753 40.341 11.4893 40.5129C11.2654 40.6481 11.071 41.0594 11.102 41.32C11.1302 41.5496 11.4555 41.8369 11.709 41.92C12.0245 42.0242 12.4063 41.9848 12.7485 41.9355C13.2274 41.8665 13.3979 41.5186 13.3965 41.058C13.3923 39.6889 13.3951 38.3198 13.3951 36.9507L13.3908 36.9535Z" fill="#091242"/>
<path d="M16.897 36.9516C16.897 35.6346 16.8942 34.319 16.8984 33.0021C16.8998 32.5739 16.8505 32.1217 16.3744 32.0288C15.842 31.9245 15.2448 31.7766 14.7701 32.2133C14.3744 32.5781 14.4757 33.1993 14.9927 33.4359C15.2856 33.5697 15.318 33.7415 15.318 34.0035C15.3124 35.9698 15.3124 37.9347 15.318 39.901C15.318 40.1827 15.2617 40.3461 14.9786 40.5123C14.7603 40.6405 14.5405 41.0405 14.5842 41.2687C14.6335 41.525 14.942 41.8265 15.2068 41.9222C15.5152 42.0349 15.9026 41.9885 16.2449 41.9377C16.7562 41.8617 16.8984 41.4757 16.897 41.0067C16.8942 39.6559 16.897 38.3038 16.897 36.953V36.9516Z" fill="#091242"/>
</svg>
