<svg width="55" height="58" viewBox="0 0 55 58" fill="none" xmlns="http://www.w3.org/2000/svg">
<path d="M8.44873 17.061C10.0536 18.4436 11.5538 19.7348 13.0541 21.026C14.3584 22.1499 15.6639 23.2698 16.9629 24.4003C17.3027 24.6956 17.6608 24.8773 18.0986 24.6695C18.5194 24.4695 18.59 24.0866 18.5887 23.6593C18.5808 21.6768 18.5847 19.6956 18.5847 17.7131C18.5847 17.5445 18.5847 17.3759 18.5847 17.0845C18.8213 17.2753 18.9794 17.3942 19.1297 17.5236C21.7513 19.7818 24.3702 22.0414 26.9905 24.2997C27.0833 24.3794 27.1669 24.5022 27.2728 24.5244C27.5929 24.5937 27.9732 24.7453 28.2307 24.6342C28.4646 24.5336 28.6789 24.1441 28.709 23.8605C28.7796 23.1901 28.7377 22.5066 28.7377 21.8284C28.7377 20.4719 28.7377 19.1153 28.739 17.7601C28.739 17.5798 28.756 17.3981 28.7691 17.1302C28.9638 17.2779 29.088 17.3628 29.2004 17.4595C31.8076 19.706 34.4134 21.9551 37.0206 24.2029C37.1788 24.3389 37.3317 24.4839 37.5055 24.5976C38.0491 24.9531 38.6999 24.6917 38.8424 24.0579C38.8868 23.8579 38.8842 23.6436 38.8842 23.4358C38.8868 19.5936 38.8855 15.7502 38.8855 11.908V11.2637H45.5845C45.5845 11.4728 45.5845 11.6597 45.5845 11.8453C45.5845 13.7062 45.5779 15.5659 45.5884 17.4269C45.5923 18.1666 46.2105 18.6462 46.7816 18.3182C47.0351 18.1718 47.3004 17.7889 47.3056 17.5092C47.3474 15.1451 47.3435 12.781 47.3226 10.4156C47.3174 9.78174 46.9567 9.47724 46.3098 9.47463C43.5981 9.46679 40.885 9.46679 38.172 9.47463C37.4388 9.47594 37.1317 9.81441 37.1317 10.5959C37.1291 14.1597 37.1317 17.7248 37.1317 21.2886C37.1317 21.4742 37.1317 21.6598 37.1317 21.9369C36.9383 21.7931 36.8154 21.7121 36.7057 21.6167C34.0841 19.3584 31.4652 17.0989 28.8449 14.8393C28.726 14.7374 28.6214 14.5845 28.4855 14.5452C28.1732 14.4538 27.8256 14.3231 27.5263 14.3806C27.129 14.4577 26.9957 14.8354 26.9957 15.2366C26.997 17.2531 26.9957 19.2709 26.9957 21.2873C26.9957 21.4716 26.9957 21.6559 26.9957 21.9408C26.7944 21.7892 26.6716 21.7068 26.5605 21.6128C23.8723 19.2996 21.1854 16.9852 18.4998 14.6681C18.1692 14.3832 17.8346 14.1558 17.3733 14.3597C16.9133 14.5635 16.8466 14.9608 16.8466 15.3999C16.8492 17.3641 16.8466 19.3297 16.8466 21.2939C16.8466 21.4781 16.8466 21.6637 16.8466 21.9708C16.5774 21.746 16.4075 21.6088 16.2415 21.4651C13.6344 19.2173 11.0285 16.9695 8.41998 14.723C8.27623 14.5988 8.12855 14.4695 7.96127 14.3832C7.46989 14.1284 6.90402 14.3688 6.76027 14.9046C6.69884 15.1346 6.69624 15.3856 6.69624 15.6273C6.69362 22.7393 6.69362 29.8499 6.69624 36.9618C6.69624 37.2036 6.708 37.4506 6.76289 37.6845C6.86482 38.1145 7.17716 38.321 7.6045 38.3092C8.03838 38.2987 8.32066 38.0517 8.41475 37.6296C8.45919 37.4297 8.44481 37.2154 8.44481 37.0063C8.44612 30.5909 8.44481 24.1742 8.44481 17.7588C8.44481 17.5706 8.44481 17.3837 8.44481 17.057L8.44873 17.061Z" fill="#091242"/>
<path d="M45.5835 55.5234H8.44776C8.44776 54.6138 8.44906 53.7317 8.44776 52.8496C8.44776 52.6588 8.45821 52.4614 8.41639 52.2785C8.31838 51.855 8.02303 51.608 7.60091 51.6002C7.18402 51.5924 6.86907 51.8067 6.76191 52.2393C6.72401 52.3895 6.70179 52.5477 6.70179 52.7019C6.69656 53.8663 6.69133 55.032 6.70179 56.1964C6.70963 56.9884 7.03112 57.3086 7.81524 57.3086C20.6133 57.3112 33.4114 57.3112 46.2082 57.3086C47.0537 57.3086 47.3373 56.9884 47.3373 56.054C47.3386 51.0631 47.3373 46.0735 47.3373 41.0826C47.3373 38.3878 47.3373 35.6918 47.3373 32.997C47.3373 32.1058 47.0315 31.6653 46.4303 31.6863C45.8488 31.7059 45.5848 32.1136 45.5848 32.9957C45.5848 40.2815 45.5848 47.5672 45.5848 54.853V55.5221L45.5835 55.5234Z" fill="#091242"/>
<path d="M35.5107 2.11292C36.1707 2.21821 36.7923 2.31984 37.4147 2.41598C37.7214 2.46267 38.0052 2.4233 38.1828 2.13031C38.4235 1.73478 38.1681 1.28156 37.6591 1.20374C37.2985 1.1488 36.936 1.11035 36.5753 1.05542C36.0975 0.982168 35.68 0.796304 35.302 0.473102C35.1482 0.342173 34.8296 0.267095 34.6539 0.337595C34.4763 0.409011 34.2804 0.684602 34.2676 0.881454C34.0808 3.84154 35.3935 6.83093 39.003 7.60186C40.3294 7.88477 41.665 7.83533 42.9987 7.65771C43.4757 7.59453 43.6816 7.3281 43.5965 6.87488C43.3384 5.49967 42.9246 4.18306 42.0192 3.0752C41.5322 2.47915 40.9208 2.04425 40.2159 1.74577C39.8863 1.6066 39.5559 1.73661 39.4103 2.03418C39.2648 2.33357 39.3581 2.68424 39.6969 2.83348C41.2897 3.53665 41.8508 4.94574 42.271 6.50682C40.7001 6.66155 39.1815 6.6231 37.7809 5.854C36.3172 5.05012 35.7029 3.7097 35.5098 2.11292H35.5107Z" fill="#091242"/>
<rect width="4.68247" height="4.68247" transform="matrix(-1 0 0 1 36.5918 33.0879)" fill="#F76907"/>
<rect width="4.68247" height="4.68247" transform="matrix(-1 0 0 1 26.7578 33.0879)" fill="#F76907"/>
<rect width="4.68247" height="4.68247" transform="matrix(-1 0 0 1 17.3906 33.0879)" fill="#F76907"/>
<path d="M15.0218 39.3856C15.9262 39.3856 16.8305 39.3947 17.7336 39.383C18.5242 39.3738 18.8365 39.0641 18.8418 38.2695C18.8522 36.4438 18.8522 34.6182 18.8418 32.7925C18.8378 31.9966 18.5268 31.6934 17.727 31.6895C15.9013 31.6816 14.0757 31.6803 12.25 31.6895C11.4868 31.6934 11.1731 32.0097 11.1692 32.7716C11.16 34.6142 11.16 36.4582 11.1692 38.3009C11.1731 39.0576 11.4907 39.3712 12.2565 39.3817C13.1778 39.3947 14.0992 39.3843 15.0205 39.3843L15.0218 39.3856ZM12.9622 37.6174V33.4511H17.0527V37.6174H12.9622Z" fill="#091242"/>
<path d="M34.059 31.6859C33.1547 31.6859 32.2503 31.6781 31.3473 31.6885C30.5828 31.6977 30.2665 32.0087 30.2639 32.7693C30.2561 34.612 30.2561 36.4547 30.2639 38.2986C30.2678 39.0553 30.5854 39.3768 31.3486 39.3807C33.1913 39.3912 35.034 39.3925 36.8779 39.3807C37.6098 39.3755 37.9274 39.0618 37.9326 38.3235C37.947 36.4638 37.947 34.6028 37.9326 32.7419C37.9274 32.0009 37.6111 31.699 36.8766 31.6898C35.9383 31.6768 34.9987 31.6872 34.0604 31.6872L34.059 31.6859ZM32.0504 33.4476H36.1513V37.6165H32.0504V33.4476Z" fill="#091242"/>
<path d="M28.38 35.5155C28.38 34.5771 28.3878 33.6375 28.3774 32.6992C28.3695 32.0222 28.0663 31.6981 27.3907 31.6929C25.4957 31.6798 23.6008 31.6798 21.7059 31.6929C21.0511 31.6981 20.7375 32.0105 20.7335 32.6574C20.7205 34.5693 20.7218 36.4825 20.7335 38.3945C20.7375 39.044 21.0446 39.3707 21.6902 39.3772C23.6021 39.3942 25.5154 39.3942 27.4273 39.3772C28.0663 39.3707 28.3695 39.0322 28.3774 38.3866C28.3878 37.43 28.38 36.4747 28.38 35.5181V35.5155ZM22.507 37.613V33.4546H26.5987V37.613H22.507Z" fill="#091242"/>
</svg>
