<svg width="55" height="57" viewBox="0 0 55 57" fill="none" xmlns="http://www.w3.org/2000/svg">
<rect width="26.7081" height="8.28872" transform="matrix(-1 0 0 1 46.4727 33.7598)" fill="#F76907"/>
<rect width="17.4984" height="8.28872" transform="matrix(-1 0 0 1 41.8672 25.0103)" fill="#F76907"/>
<path d="M3.19497 10.8066C3.61138 11.5623 3.64607 11.5829 4.92356 11.7551C4.92356 11.9453 4.92356 12.1471 4.92356 12.3476C4.92356 22.1266 4.92356 31.9057 4.92356 41.6848C4.92356 42.925 5.31169 43.3105 6.56347 43.3105C20.7353 43.3105 34.9059 43.3105 49.0778 43.3105C49.1742 43.3105 49.2706 43.3105 49.367 43.3105C50.2537 43.2964 50.7203 42.8273 50.7216 41.9302C50.7241 36.9925 50.7228 32.0548 50.7228 27.1171C50.7228 22.196 50.7228 17.2737 50.7228 12.3527V11.7358C50.9336 11.7217 51.12 11.7114 51.3063 11.696C51.9541 11.6433 52.4219 11.1973 52.4411 10.5509C52.4656 9.71807 52.4643 8.88398 52.4411 8.04988C52.4232 7.4407 52.0029 7.00887 51.3937 6.92019C51.2048 6.8932 51.0107 6.89449 50.8179 6.89449C48.173 6.8932 45.5281 6.89449 42.8831 6.89449C42.6929 6.89449 42.5027 6.89449 42.2431 6.89449C42.2431 6.19534 42.2431 5.52833 42.2431 4.86131C42.2418 3.74833 41.8126 3.3165 40.7086 3.31522C38.5122 3.31522 36.3158 3.31522 34.1194 3.31522C33.96 3.31522 33.7929 3.30108 33.6413 3.34092C33.2737 3.4386 33.063 3.68535 33.0861 4.07734C33.1092 4.46418 33.3303 4.70708 33.7171 4.74179C34.0513 4.77263 34.3893 4.75592 34.726 4.75592C36.5535 4.75592 38.3811 4.75592 40.2086 4.75592H40.7651V10.227H14.8787V4.75592H15.4236C20.265 4.75592 25.1063 4.75592 29.9476 4.75592C30.1083 4.75592 30.2689 4.76235 30.4283 4.7495C30.8576 4.71608 31.1262 4.44362 31.1313 4.04778C31.1364 3.65836 30.8653 3.36534 30.4489 3.31907C30.3216 3.30493 30.1931 3.31265 30.0646 3.31265C25.0305 3.31265 19.9976 3.31265 14.9635 3.31265C13.83 3.31265 13.4084 3.73933 13.4071 4.88573C13.4071 5.53861 13.4071 6.19149 13.4071 6.89192C13.1642 6.89192 12.9753 6.89192 12.7877 6.89192C10.1106 6.89192 7.43356 6.90349 4.75649 6.88421C4.01879 6.87907 3.47772 7.10783 3.19883 7.8224V10.8041L3.19497 10.8066ZM46.8698 41.8531C46.8698 41.6167 46.8698 41.4277 46.8698 41.2375C46.8698 33.0444 46.8698 24.8513 46.8698 16.6581C46.8698 15.6865 46.4239 15.2251 45.4767 15.2251C33.7081 15.2239 21.9396 15.2239 10.171 15.2251C9.24054 15.2251 8.78043 15.684 8.77786 16.6093C8.77272 17.8765 8.77659 19.1424 8.77659 20.4096C8.77659 21.3722 8.77143 22.3336 8.77915 23.2962C8.783 23.8154 9.07347 24.1264 9.51429 24.1174C9.93712 24.1097 10.2032 23.8077 10.2173 23.3142C10.2237 23.0738 10.2186 22.8335 10.2186 22.5932C10.2186 21.6845 10.2186 20.7772 10.2186 19.8737H45.4008V32.9878H42.8639C42.8639 32.7642 42.8639 32.574 42.8639 32.3851C42.8639 30.0923 42.8639 27.7995 42.8639 25.5067C42.8639 24.4927 42.5503 24.1765 41.5504 24.1765C36.051 24.1765 30.5517 24.1765 25.0523 24.1765C24.0653 24.1765 23.7363 24.5068 23.7363 25.5093C23.7337 27.8175 23.7363 30.127 23.7337 32.4352C23.7337 32.6203 23.7144 32.8041 23.7029 33.0225C22.4357 33.0225 21.2199 33.0161 20.0041 33.0251C19.2959 33.0303 18.9001 33.4197 18.8872 34.124C18.8757 34.7807 18.8808 35.4387 18.8847 36.0955C18.8885 36.6905 19.161 37.0195 19.6288 37.0079C20.0799 36.9964 20.3215 36.6866 20.3254 36.1032C20.3292 35.5647 20.3254 35.0262 20.3254 34.4941H22.1452C22.1452 35.0017 22.1413 35.4786 22.1452 35.9566C22.1529 36.6545 22.4691 36.9964 23.1644 37.0195C23.7414 37.0388 24.3185 37.0388 24.8955 37.0195C25.5934 36.9964 25.9018 36.6622 25.9108 35.9579C25.916 35.467 25.9108 34.9773 25.9108 34.4954H27.7024V41.83H20.3228C20.3228 41.1051 20.3318 40.4176 20.3202 39.73C20.3112 39.2249 19.9938 38.9229 19.5427 38.9614C19.143 38.9949 18.8911 39.2866 18.8834 39.7621C18.8731 40.4471 18.8808 41.1321 18.8808 41.8261H17.3835C17.3835 40.5255 17.3835 39.2647 17.3835 38.0027C17.3835 35.9219 17.3874 33.8412 17.3823 31.7605C17.3797 30.7555 16.944 30.3249 15.9454 30.3223C14.2142 30.3185 12.4818 30.3223 10.7507 30.3223H10.2186C10.2186 30.0422 10.2186 29.8353 10.2186 29.6271C10.2186 28.6812 10.2276 27.7352 10.2121 26.7893C10.2057 26.3601 9.92041 26.0825 9.52972 26.0671C9.11717 26.0504 8.81642 26.3318 8.77915 26.7752C8.76758 26.9191 8.7753 27.0631 8.7753 27.2083C8.7753 31.8903 8.7753 36.5723 8.7753 41.2542C8.7753 41.4419 8.7753 41.6295 8.7753 41.8339H6.39126V11.7371H49.2384V41.8531H46.8711H46.8698ZM10.2327 16.7031H45.3957V18.352H10.2327V16.7031ZM36.5355 34.48V41.8351H29.1958V34.4992H30.9925C30.9925 35.012 30.9874 35.4901 30.9925 35.9682C31.0002 36.6635 31.3176 36.9989 32.0194 37.0221C32.5951 37.0401 33.1735 37.0414 33.7492 37.0221C34.442 36.9977 34.7491 36.6609 34.7568 35.9528C34.762 35.4644 34.7568 34.9748 34.7568 34.48H36.533H36.5355ZM45.3854 34.48V41.8377H38.0585V34.5005H39.8398C39.8398 35.012 39.8347 35.4901 39.8398 35.9682C39.8475 36.6648 40.1649 37.0002 40.8641 37.0234C41.4077 37.0414 41.9539 37.0362 42.4989 37.0259C43.2893 37.0105 43.6016 36.6905 43.6054 35.9065C43.608 35.4323 43.6054 34.9593 43.6054 34.48H45.3841H45.3854ZM35.8274 25.6365C35.8274 26.1416 35.8223 26.603 35.8274 27.0644C35.839 27.8393 36.1667 28.1645 36.9507 28.1774C37.4468 28.1851 37.9441 28.1825 38.4402 28.1774C39.3039 28.1696 39.6097 27.8561 39.6162 26.9757C39.6187 26.5349 39.6162 26.094 39.6162 25.6545H41.3885V32.9981H34.05V25.6365H35.8261H35.8274ZM25.2168 32.9956V25.6584H26.9801C26.9801 26.1455 26.975 26.594 26.9801 27.0412C26.9904 27.8458 27.3156 28.1684 28.1304 28.1774C28.6277 28.1825 29.1251 28.1825 29.6212 28.1774C30.4373 28.1684 30.7586 27.8483 30.7689 27.0412C30.7753 26.5824 30.7689 26.1223 30.7689 25.6494H32.5437V32.9956H25.213H25.2168ZM50.9812 10.227H42.2675V8.36476H50.9812V10.227ZM4.66139 8.37247H13.3737V10.236H4.66139V8.37247ZM15.8927 31.7823V34.1407H10.2533V31.7823H15.8927ZM10.243 37.9937V35.6495H15.9069V37.9937H10.243ZM10.2391 39.4897H15.8979V41.8403H10.2391V39.4897ZM37.308 26.7122V25.6507H38.133V26.7122H37.308ZM29.2935 25.6455V26.7019H28.4568V25.6455H29.2935ZM42.1416 34.4864V35.5428H41.3203V34.4864H42.1416ZM33.2904 34.489V35.557H32.4589V34.489H33.2904ZM23.6193 35.5634V34.4967H24.4341V35.5634H23.6193Z" fill="#091242"/>
<path d="M27.8075 8.22712C29.8407 8.22712 31.8752 8.24125 33.9084 8.21041C34.1641 8.20655 34.4893 8.02406 34.6461 7.82099C34.7579 7.67577 34.7322 7.26707 34.6037 7.13341C34.4199 6.94192 34.0896 6.80826 33.8171 6.80055C32.6013 6.76585 31.383 6.78513 30.1672 6.78513C27.4451 6.78513 24.7231 6.78513 22.001 6.78513C21.8417 6.78513 21.6784 6.77741 21.5216 6.80569C21.1104 6.87766 20.8495 7.20024 20.9009 7.58323C20.9549 7.98678 21.1978 8.21555 21.6103 8.22198C22.2028 8.23226 22.7953 8.22712 23.3878 8.22712C24.8606 8.22712 26.3347 8.22712 27.8075 8.22712Z" fill="#091242"/>
<path d="M24.0355 39.3225C24.4031 39.3225 24.7719 39.3469 25.1369 39.316C25.5739 39.2788 25.8181 38.9922 25.8104 38.5938C25.8027 38.1941 25.5456 37.9165 25.1061 37.9036C24.3877 37.883 23.6679 37.883 22.9508 37.9036C22.5203 37.9165 22.2517 38.2108 22.2465 38.6002C22.2427 38.9832 22.5061 39.2813 22.9354 39.316C23.3004 39.3456 23.6692 39.3225 24.0368 39.3212L24.0355 39.3225Z" fill="#091242"/>
<path d="M32.8422 37.8995C32.4913 37.8995 32.1379 37.8816 31.7883 37.9034C31.3616 37.9304 31.084 38.2196 31.0969 38.609C31.111 39.0177 31.3372 39.2927 31.7407 39.3081C32.5054 39.3377 33.2727 39.339 34.0374 39.303C34.4422 39.2837 34.6658 38.9958 34.6517 38.5858C34.6389 38.1746 34.3972 37.933 33.9898 37.9073C33.6081 37.8828 33.2239 37.9021 32.8409 37.9021C32.8409 37.9021 32.8409 37.9021 32.8409 37.9008L32.8422 37.8995Z" fill="#091242"/>
<path d="M41.7127 37.8992C41.3619 37.8992 41.0097 37.8838 40.6589 37.903C40.2232 37.9274 39.9559 38.1973 39.9443 38.588C39.9327 38.9787 40.1859 39.2962 40.6152 39.3129C41.3644 39.3425 42.1163 39.3412 42.8643 39.309C43.2678 39.2923 43.494 39.0199 43.5056 38.6086C43.5159 38.214 43.246 37.93 42.8141 37.9043C42.4479 37.8825 42.0803 37.8992 41.7127 37.8992Z" fill="#091242"/>
<path d="M37.7039 30.4828C38.0548 30.4828 38.4069 30.4983 38.7578 30.479C39.2192 30.4533 39.5006 30.1731 39.5058 29.7708C39.5109 29.3647 39.232 29.0678 38.7732 29.055C38.0715 29.0357 37.3672 29.0357 36.6655 29.055C36.2195 29.0678 35.9085 29.3891 35.9394 29.7786C35.9728 30.204 36.2221 30.452 36.6501 30.4751C36.9997 30.4944 37.3518 30.479 37.7039 30.479C37.7039 30.479 37.7039 30.4816 37.7039 30.4828Z" fill="#091242"/>
<path d="M28.875 30.4812C29.2259 30.4812 29.578 30.4979 29.9289 30.4774C30.3813 30.4504 30.6679 30.1522 30.664 29.7538C30.6589 29.3554 30.3723 29.0636 29.9122 29.0521C29.2259 29.0341 28.5383 29.0341 27.8533 29.0521C27.3945 29.0636 27.1015 29.3528 27.0925 29.7474C27.0835 30.1573 27.3893 30.4478 27.87 30.4838C27.9021 30.4863 27.9343 30.4863 27.9664 30.4863C28.2697 30.4863 28.573 30.4863 28.8763 30.4863C28.8763 30.4851 28.8763 30.4838 28.8763 30.4825L28.875 30.4812Z" fill="#091242"/>
</svg>
