<svg width="55" height="59" viewBox="0 0 55 59" fill="none" xmlns="http://www.w3.org/2000/svg">
<rect width="18.8285" height="9.44854" transform="matrix(-1 0 0 1 50.5391 36.9468)" fill="#F76907"/>
<rect width="15.3601" height="6.96208" transform="matrix(-1 0 0 1 20.8086 39.9302)" fill="#F76907"/>
<path d="M21.7969 22.5254H15.851L18.5762 27.001L18.3285 29.2388L21.7969 29.4875V22.5254Z" fill="#F76907"/>
<path d="M40.625 21.5303H46.0753L43.5773 26.3256L43.8044 28.7232L40.625 28.9896V21.5303Z" fill="#F76907"/>
<path d="M1.5 49.1447C1.90242 50.219 2.69482 50.5882 3.80804 50.566C5.98055 50.5229 8.15443 50.5549 10.3283 50.5507C10.5344 50.5507 10.7999 50.5951 10.9313 50.4882C11.1608 50.3022 11.4139 50.0344 11.4651 49.7637C11.5356 49.3987 11.2825 49.1072 10.8884 49.0295C10.7045 48.9934 10.5109 48.9962 10.3214 48.9962C8.13093 48.9934 5.93906 48.9962 3.74857 48.9948C3.05298 48.9948 3.05297 48.992 3.05159 48.3078C3.05159 48.169 3.06127 48.0302 3.05021 47.8928C3.02116 47.5472 3.19541 47.4237 3.51485 47.4376C3.63516 47.4431 3.75687 47.4376 3.87718 47.4376C19.9546 47.4376 36.0334 47.4376 52.1108 47.4431C52.3721 47.4431 52.834 47.4806 52.8603 47.5875C52.9585 47.9761 52.9239 48.4022 52.9059 48.813C52.9031 48.8755 52.7261 48.9657 52.621 48.9823C52.4357 49.0115 52.2421 48.9962 52.0527 48.9962C39.6662 48.9962 27.2797 48.9962 14.8932 48.9962C14.6692 48.9962 14.4424 48.9907 14.2225 49.0226C13.8298 49.0809 13.6085 49.3293 13.5892 49.7249C13.5684 50.1426 13.7689 50.4244 14.1824 50.5146C14.365 50.5549 14.5586 50.5521 14.748 50.5521C27.2728 50.5535 39.7962 50.5535 52.321 50.5521C53.8283 50.5521 54.4976 49.8775 54.4976 48.3689C54.4976 48.126 54.5045 47.8831 54.4948 47.6416C54.4547 46.6964 53.7771 45.9608 52.8381 45.9011C52.1882 45.8609 51.5341 45.8928 50.8274 45.8928C50.815 45.6499 50.7984 45.4681 50.7984 45.2849C50.797 42.566 50.7915 39.8484 50.8053 37.1295C50.8067 36.8283 50.8731 36.5104 50.9823 36.2287C51.5935 34.6492 52.2421 33.0851 52.8381 31.5014C52.9405 31.228 52.9405 30.8408 52.8229 30.5826C52.74 30.4008 52.3486 30.2218 52.1467 30.269C51.8936 30.3272 51.5894 30.5715 51.4843 30.813C50.9408 32.0635 50.4541 33.3404 49.9479 34.6076C49.9286 34.6562 49.9106 34.7048 49.8912 34.752C49.6036 35.4718 49.0329 35.7813 48.1792 35.6805C48.1792 34.9879 48.1695 34.2842 48.1889 33.5833C48.1917 33.4723 48.3175 33.3501 48.4102 33.2585C49.0311 32.6437 49.3491 31.9095 49.3464 31.0295C49.3408 29.6097 49.3464 28.1898 49.3464 26.77C49.3436 24.7589 48.2898 23.6194 46.2141 23.4556C46.2141 22.9352 46.2183 22.405 46.2141 21.8748C46.2058 20.8797 45.7066 20.3731 44.7165 20.3689C43.4567 20.3633 42.1983 20.3633 40.9385 20.3689C39.9594 20.3731 39.4726 20.8519 39.4519 21.8262C39.4422 22.2912 39.4505 22.7547 39.4505 23.2544H36.1191C35.9905 22.6437 36.0748 22.2246 36.6833 21.8443C38.1381 20.9352 39.0757 19.5792 39.5915 17.9359C39.6371 17.7901 39.6883 17.6458 39.7464 17.4695C39.9096 17.4695 40.0631 17.4765 40.2166 17.4695C41.5649 17.4001 42.5495 16.7492 43.0985 15.525C43.6489 14.294 43.4567 13.1184 42.5993 12.0802C42.3863 11.8221 42.3047 11.5944 42.313 11.2558C42.3573 9.35156 42.4306 7.439 41.5594 5.6569C41.4529 5.439 41.3561 5.21693 41.2302 5.01013C40.9841 4.60902 40.5886 4.48689 40.2124 4.67703C39.8169 4.87689 39.6994 5.28078 39.8695 5.74018C40.1433 6.48272 40.5056 7.21416 40.6342 7.98307C40.7988 8.96155 40.767 9.97474 40.8237 11.0198H24.7712C24.1392 6.93796 26.1416 3.22249 30.2239 2.33838C32.3272 1.88175 34.5136 1.86787 36.581 2.75059C36.9115 2.89216 37.2226 3.08508 37.5352 3.26551C38.0551 3.5653 38.5018 3.50285 38.7535 3.08369C38.9955 2.67842 38.86 2.27453 38.369 1.95531C36.9889 1.05594 35.4705 0.602087 33.829 0.57988C32.0202 0.554897 30.2142 0.493829 28.4814 1.21833C25.3271 2.53685 23.1822 5.65413 23.1394 9.07675C23.1352 9.44038 23.1269 9.80402 23.1394 10.1677C23.1656 10.9588 23.1006 11.6347 22.4866 12.3176C21.6417 13.2586 21.6237 14.4799 22.1852 15.6319C22.7466 16.7825 23.6994 17.3918 24.98 17.4681C25.1335 17.4779 25.2884 17.4681 25.4792 17.4681C25.5359 17.6375 25.5912 17.7943 25.6424 17.9525C26.1623 19.5736 27.0861 20.9171 28.5188 21.8262C29.1093 22.201 29.2586 22.6062 29.0927 23.3057H22.4991C22.4991 23.1323 22.5074 22.8797 22.4977 22.627C22.4659 21.7582 21.9639 21.2419 21.0927 21.2308C19.7651 21.2141 18.4362 21.2128 17.1072 21.2308C16.2595 21.2433 15.7631 21.7416 15.7271 22.5937C15.7036 23.1447 15.7229 23.6971 15.7229 24.2787C15.4588 24.3231 15.2265 24.3578 14.9955 24.4022C13.6389 24.6617 12.617 25.8179 12.5907 27.2016C12.5603 28.8116 12.5603 30.4216 12.5893 32.0316C12.6184 33.6194 13.8962 34.8741 15.4768 34.9157C15.9746 34.9282 16.4725 34.9171 17.009 34.9171V38.7297H16.3992C12.9323 38.7297 9.46402 38.7297 5.99714 38.7297C4.7802 38.7297 4.34598 39.1655 4.34322 40.3841C4.34045 42.0122 4.34322 43.6388 4.34322 45.2669C4.34322 45.4515 4.34322 45.636 4.34322 45.8887C3.07373 45.7721 1.98401 45.9372 1.50415 47.2738V49.1433L1.5 49.1447ZM25.2745 24.8477C26.6643 24.8477 27.9919 24.8366 29.3181 24.8616C29.484 24.8644 29.6845 25.0268 29.8035 25.1697C30.5198 26.0344 31.2099 26.9227 31.9234 27.7887C32.3729 28.3342 32.8541 28.33 33.3049 27.7873C33.8014 27.1892 34.3476 26.6187 34.7542 25.9608C35.3184 25.049 36.0389 24.6951 37.1023 24.8283C37.8588 24.9227 38.6359 24.8463 39.4491 24.8463C39.4491 25.8221 39.4436 26.72 39.4505 27.618C39.4574 28.3175 39.3136 29.0559 39.9331 29.6097C39.9649 29.6388 39.9773 29.7041 39.9773 29.7526C39.9801 30.5091 39.9787 31.2641 39.9787 32.0441C39.7837 32.0594 39.6496 32.0774 39.5168 32.0788C38.9651 32.083 38.4133 32.0719 37.8615 32.0885C37.4162 32.101 37.1493 32.3578 37.1162 32.795C37.083 33.2377 37.325 33.5209 37.7537 33.6041C37.9874 33.6486 38.2335 33.6361 38.4741 33.6374C38.9651 33.6416 39.4546 33.6374 39.9469 33.6374V35.6638C39.8819 35.6916 39.8515 35.7152 39.8211 35.7152C37.4411 35.7207 35.0612 35.7263 32.6812 35.7193C32.5692 35.7193 32.395 35.6402 32.3549 35.5514C32.0894 34.9421 31.8515 34.3189 31.5791 33.6361C32.4766 33.6361 33.2856 33.6458 34.0945 33.6333C34.6837 33.6236 35.046 33.2932 35.0266 32.8186C35.0086 32.3606 34.6657 32.0844 34.0876 32.0802C33.1736 32.0746 32.2595 32.0677 31.3454 32.0844C31.0605 32.0899 30.9001 32.0039 30.8074 31.7304C30.6913 31.3876 30.5571 31.049 30.4036 30.72C30.2073 30.2995 29.8131 30.1316 29.4273 30.2759C29.0235 30.4272 28.8341 30.8449 28.9779 31.2988C29.0539 31.5403 29.1508 31.7749 29.2489 32.0399H25.2731V24.845L25.2745 24.8477ZM32.6923 45.8456V37.3224H49.2067V38.4022C49.1362 38.423 49.1044 38.4397 49.0726 38.4411C47.3481 38.4452 45.6236 38.4411 43.8978 38.4508C42.992 38.4549 42.4845 38.9574 42.4721 39.8595C42.461 40.6381 42.4665 41.4181 42.4693 42.1968C42.4748 43.2905 42.927 43.7499 44.0029 43.7512C45.5559 43.754 47.1075 43.7512 48.6605 43.7512C48.843 43.7512 49.0255 43.7512 49.2109 43.7512V45.847H32.6923V45.8456ZM38.3497 12.652C38.3497 13.7763 38.3677 14.8658 38.3455 15.9553C38.2902 18.7506 36.108 21.1933 33.4073 21.507C30.423 21.854 27.6904 20.0899 27.0944 17.2169C26.7902 15.7499 26.8718 14.2024 26.7777 12.652H38.3483H38.3497ZM25.2731 33.6402C26.7819 33.6402 28.2284 33.6319 29.6721 33.6555C29.7993 33.6569 29.9749 33.8484 30.0372 33.9914C30.3068 34.6076 30.582 35.2266 30.7798 35.8678C30.943 36.4008 31.0854 36.9643 31.0909 37.5167C31.1227 40.1093 31.1061 42.7034 31.1048 45.2974C31.1048 45.4792 31.0896 45.661 31.0813 45.8304H25.2731V33.6416V33.6402ZM18.5993 38.7297C18.5993 37.4001 18.5855 36.1565 18.6118 34.9143C18.6159 34.6853 18.7335 34.4244 18.8759 34.237C19.277 33.7096 19.548 33.1087 19.2908 32.5021C19.017 31.8595 19.2853 31.3446 19.4235 30.7297C19.92 30.7297 20.4165 30.7325 20.9129 30.7297C22.004 30.7228 22.4935 30.2343 22.4963 29.1434C22.5005 27.915 22.488 26.6867 22.5088 25.4584C22.5115 25.2974 22.6291 25.042 22.7535 24.9976C23.0287 24.8991 23.3426 24.906 23.6565 24.8672V45.8373H21.5338C21.5338 45.6263 21.5338 45.4556 21.5338 45.2863C21.5338 43.5902 21.5421 41.8942 21.5297 40.1996C21.5228 39.2294 21.047 38.7492 20.1122 38.7325C19.6337 38.7242 19.1539 38.7311 18.5993 38.7311V38.7297ZM14.1312 29.661C14.1312 28.8991 14.1202 28.1371 14.134 27.3751C14.1506 26.5146 14.6927 25.9414 15.5487 25.8956C16.0991 25.8665 16.655 25.8581 17.2026 25.9012C17.4032 25.9178 17.6673 26.0705 17.7572 26.2384C17.8139 26.3453 17.6465 26.6395 17.5083 26.7742C17.0339 27.2322 17.0187 27.6569 17.5083 28.0871C17.9051 28.4383 17.9121 28.6257 17.5373 28.9588C17.0132 29.4237 17.0118 29.8415 17.529 30.2953C17.8955 30.6159 17.9024 30.8283 17.558 31.135C17.0063 31.6277 17.0132 32.0108 17.5414 32.5091C17.6701 32.6312 17.8153 32.8977 17.7641 33.0129C17.6922 33.1711 17.4488 33.3266 17.2663 33.3432C16.7698 33.3876 16.2664 33.3626 15.7672 33.3585C14.6872 33.3515 14.1382 32.8089 14.1312 31.7374C14.1271 31.0448 14.1312 30.3522 14.1312 29.6597V29.661ZM47.792 28.7506C47.792 29.5112 47.8045 30.2731 47.7892 31.0337C47.7713 31.9192 47.2084 32.4785 46.322 32.5049C45.8228 32.5202 45.3194 32.5382 44.823 32.4952C44.5962 32.4758 44.3804 32.3134 44.1606 32.2162C44.2643 32.0039 44.3224 31.7485 44.4786 31.5889C44.8824 31.1767 44.8963 30.7186 44.4607 30.3342C44.014 29.94 44.0126 29.7929 44.4496 29.4029C44.9087 28.9935 44.9046 28.5327 44.4385 28.1274C44.025 27.7679 44.0223 27.5875 44.4302 27.2252C44.9184 26.7908 44.9018 26.362 44.4247 25.9095C44.285 25.7776 44.1205 25.4778 44.1785 25.3724C44.2698 25.2086 44.5339 25.0698 44.7372 25.0531C45.2503 25.0087 45.7702 25.0323 46.2874 25.0393C47.2071 25.0518 47.7726 25.6014 47.7906 26.5188C47.8058 27.2627 47.7934 28.0066 47.7934 28.7506H47.792ZM16.3466 45.8415V40.3134H19.9366V45.8415H16.3466ZM9.53732 45.8331H5.93353V40.3203H9.53732V45.8331ZM11.1484 45.8526V40.3217H14.7287V45.8526H11.1484ZM20.906 22.8075V29.1434H19.3973C19.335 28.6687 19.2659 28.2329 19.2244 27.7943C19.2009 27.5556 19.158 27.2891 19.2341 27.074C19.6434 25.9067 19.0211 24.7062 17.8194 24.4064C17.6424 24.362 17.464 24.3217 17.3174 24.2856V22.8075H20.9074H20.906ZM41.0408 28.269V21.9567H44.6252V23.4543C42.909 23.5847 42.1609 25.1642 42.7791 26.3772C42.8164 26.4494 42.8524 26.5438 42.8385 26.6173C42.7293 27.1614 42.6076 27.7013 42.4831 28.2703H41.0422L41.0408 28.269ZM41.576 35.7013V29.8873H42.5066C42.6034 30.1982 42.703 30.4716 42.7694 30.7547C42.8012 30.8921 42.8095 31.0573 42.7625 31.1864C42.201 32.7256 43.1013 34.0511 44.7303 34.0677C45.3457 34.0733 45.9611 34.0677 46.5834 34.0677V35.7013H41.5773H41.576ZM49.2233 42.1593H44.0651V40.0386H49.2233V42.1593ZM34.5412 23.0184C34.5067 23.2669 34.5675 23.6722 34.3974 23.915C33.8581 24.6867 33.233 25.3987 32.6135 26.1676C32.0783 25.5042 31.5998 24.8505 31.0577 24.2551C30.6844 23.8456 30.6498 23.4182 30.7258 23.0184H34.5426H34.5412ZM39.9331 12.6742C40.5886 12.5188 41.1404 12.6187 41.5248 13.2072C41.9175 13.8082 41.9632 14.4397 41.5953 15.0615C41.2316 15.6736 40.6812 15.9609 39.9331 15.8956V12.6742ZM25.287 15.8998C24.5153 15.9553 23.9539 15.6513 23.6054 15.0073C23.2638 14.3786 23.3288 13.7499 23.7395 13.16C24.1323 12.5965 24.6716 12.5341 25.287 12.6742V15.8998Z" fill="#091242"/>
<path d="M32.6311 19.71C33.5576 19.6767 34.3804 19.3783 35.0622 18.7329C35.4314 18.3831 35.4784 17.9126 35.1894 17.5851C34.9004 17.2561 34.4468 17.2492 34.0389 17.5712C33.0542 18.3456 32.165 18.347 31.1901 17.5781C30.7766 17.252 30.3341 17.252 30.0395 17.5781C29.7339 17.9168 29.7892 18.397 30.1875 18.7634C30.8776 19.3977 31.7032 19.6905 32.6311 19.7114V19.71Z" fill="#091242"/>
<path d="M34.2 14.7868C34.1958 15.614 34.4544 16.0054 34.9882 15.9873C35.5054 15.9693 35.7488 15.5876 35.7474 14.7937C35.7474 14.6216 35.7585 14.4454 35.7349 14.276C35.6713 13.8319 35.3367 13.5474 34.9163 13.5848C34.4752 13.6237 34.2331 13.8777 34.2013 14.3218C34.1903 14.4759 34.2 14.6327 34.2 14.7882V14.7868Z" fill="#091242"/>
<path d="M31.0256 14.7591C31.0256 14.6384 31.0311 14.5176 31.0256 14.3969C30.9993 13.8875 30.7269 13.5919 30.2802 13.5808C29.8405 13.5711 29.5238 13.8653 29.4851 14.3567C29.4629 14.6481 29.4602 14.9451 29.4892 15.2366C29.5335 15.6863 29.8668 15.9902 30.2664 15.9875C30.6882 15.9847 30.998 15.6557 31.0256 15.1727C31.0339 15.0353 31.0256 14.8966 31.0256 14.7578V14.7591Z" fill="#091242"/>
</svg>
