<svg width="55" height="57" viewBox="0 0 55 57" fill="none" xmlns="http://www.w3.org/2000/svg">
<rect width="10.6684" height="22.0988" transform="matrix(-1 0 0 1 42.373 9.08301)" fill="#F76907"/>
<rect width="10.6684" height="22.0988" transform="matrix(-1 0 0 1 12.6523 9.08301)" fill="#F76907"/>
<rect width="24.3849" height="14.4785" transform="matrix(-1 0 0 1 34.752 15.9409)" fill="#F76907"/>
<path d="M0.5 55.7102C0.829655 56.3461 1.34856 56.5566 2.06529 56.5566C15.596 56.5417 29.1288 56.546 42.6595 56.546C42.7913 56.546 42.9253 56.546 43.0571 56.5375C43.7484 56.4971 44.127 56.1057 44.2035 55.4422C44.2758 54.8212 43.8122 54.2661 43.1273 54.1938C42.5808 54.1363 42.0257 54.1831 41.3621 54.1831C41.3621 53.8109 41.3621 53.5281 41.3621 53.2473C41.3621 46.4288 41.3663 39.6103 41.3536 32.7918C41.3536 32.2814 41.4557 31.9241 41.8938 31.5817C42.9274 30.7756 43.5102 29.6761 43.5144 28.3511C43.5336 22.6725 43.5549 16.9961 43.5144 11.3176C43.4996 9.33326 42.0023 7.94446 39.9542 7.89554C38.1507 7.85301 36.3471 7.88278 34.5415 7.88278C34.2543 7.88278 33.9694 7.88278 33.6014 7.88278C33.6014 6.23877 33.6014 4.67983 33.6014 3.12089C33.6014 1.12808 32.7975 0.324153 30.8047 0.324153C28.9735 0.324153 27.1424 0.311392 25.3133 0.330534C24.5073 0.339041 24.0117 0.83033 24.0159 1.53005C24.0202 2.23827 24.5094 2.67852 25.3261 2.70829C25.5111 2.71467 25.6982 2.70829 25.8833 2.70829C27.3699 2.70829 28.8544 2.70829 30.341 2.70829C30.6005 2.70829 30.86 2.70829 31.1663 2.70829V14.7545H13.584V2.70829C14.2284 2.70829 14.8559 2.70829 15.4854 2.70829C17.1571 2.70829 18.8287 2.71892 20.5003 2.69978C21.2575 2.69128 21.7424 2.21275 21.7573 1.54281C21.7701 0.879247 21.283 0.33904 20.545 0.33266C18.1035 0.311392 15.6619 0.290124 13.2225 0.347548C12.0059 0.377323 11.1765 1.31099 11.151 2.5424C11.1212 4.00138 11.1403 5.46036 11.1382 6.91935C11.1382 7.20434 11.1382 7.48933 11.1382 7.87853C10.7745 7.87853 10.4895 7.87853 10.2067 7.87853C8.45632 7.87853 6.70385 7.86152 4.9535 7.88278C2.64805 7.91043 1.16779 9.38643 1.1614 11.6812C1.14864 17.0939 1.1529 22.5066 1.1614 27.9193C1.1614 29.4676 1.73564 30.7501 2.96705 31.7305C3.16272 31.8858 3.35202 32.1899 3.35202 32.426C3.36903 39.5891 3.36052 46.7521 3.35202 53.9173C3.35202 53.9641 3.31797 54.013 3.27969 54.1108C2.34389 54.2724 1.19121 53.8364 0.5 54.9105V55.7059V55.7102ZM22.3741 31.2563C24.6093 33.1725 26.8531 33.1023 29.0586 31.2456C31.2322 33.1108 33.1144 33.1087 35.539 31.386C36.6896 31.9028 37.7551 32.3792 38.9291 32.9067V54.1087H17.8589C17.8589 53.7769 17.8589 53.4898 17.8589 53.2027C17.8589 50.1273 17.8631 47.0499 17.8567 43.9745C17.8525 42.4538 17.0783 41.6627 15.5662 41.652C13.6563 41.6372 11.7465 41.6393 9.83874 41.652C8.28193 41.6627 7.51204 42.4475 7.50991 44.0192C7.50353 47.0945 7.50991 50.172 7.50991 53.2473C7.50991 53.5302 7.50991 53.8131 7.50991 54.0917H5.81486V32.9109C7.01225 32.3665 8.06924 31.8837 9.19219 31.3711C11.3807 33.1427 13.1395 33.1406 15.7193 31.2541C18.0184 33.1406 19.8113 33.1406 22.3762 31.2541L22.3741 31.2563ZM7.78428 23.4424H3.54766C3.54766 19.4228 3.53917 15.4733 3.55618 11.5239C3.5583 10.8326 3.92835 10.3329 4.65572 10.2988C5.68083 10.252 6.71024 10.2861 7.78428 10.2861V23.4403V23.4424ZM15.4258 54.1044H9.94721V44.0596H15.4258V54.1044ZM36.9405 23.4722V10.269C37.8295 10.269 38.6696 10.2648 39.5097 10.269C40.8219 10.2776 41.1515 10.6051 41.1515 11.9279C41.1558 15.5073 41.1537 19.0889 41.1515 22.6683C41.1515 22.9235 41.1239 23.1787 41.1048 23.4701H36.9384L36.9405 23.4722ZM30.2773 17.2662C30.4708 17.2471 30.626 17.2003 30.7749 17.2194C32.47 17.43 33.7418 16.3751 33.6185 14.31C33.5398 12.9956 33.6036 11.6727 33.6036 10.3307H34.4415V23.4531H30.2773V17.2662ZM11.1382 10.3243C11.1382 10.6306 11.1382 10.8879 11.1382 11.1474C11.1382 12.3661 11.1276 13.5847 11.1424 14.8034C11.1616 16.3496 12.0081 17.1811 13.567 17.213C13.852 17.2194 14.1349 17.213 14.4517 17.213V23.4679H10.262V10.3222H11.1403L11.1382 10.3243ZM16.938 23.4701V17.2811H21.1299V23.4701H16.938ZM27.7974 23.4531H23.6119V17.262H27.7974V23.4531ZM27.8846 25.9478C27.8378 26.9048 27.8718 27.7832 27.7314 28.6318C27.5634 29.6463 26.6192 30.2907 25.5855 30.2482C24.603 30.2056 23.7097 29.4783 23.6119 28.5084C23.5289 27.6769 23.5948 26.8325 23.5948 25.9499H27.8825L27.8846 25.9478ZM16.9252 25.9691H21.1575C21.1575 26.7985 21.2128 27.5663 21.1448 28.3234C21.0427 29.4421 20.1537 30.2269 19.0797 30.2482C18.0248 30.2694 17.0656 29.5463 16.9465 28.4999C16.8529 27.6705 16.9274 26.824 16.9274 25.9669L16.9252 25.9691ZM14.4943 25.9414C14.4943 26.7751 14.5326 27.5152 14.4858 28.2511C14.4156 29.3634 13.5521 30.195 12.4823 30.246C11.3615 30.3013 10.3789 29.5421 10.2598 28.4127C10.1748 27.6088 10.2428 26.79 10.2428 25.9393H14.4943V25.9414ZM7.8119 25.9308C7.8119 26.7985 7.85868 27.5918 7.79913 28.3766C7.72469 29.3655 6.89736 30.144 5.92966 30.2418C4.89604 30.346 3.89011 29.7611 3.69232 28.7552C3.5158 27.8449 3.5583 26.8942 3.50301 25.9308H7.80977H7.8119ZM34.416 25.9414C34.416 26.8644 34.5011 27.7641 34.3926 28.6403C34.2756 29.5761 33.3653 30.2311 32.4061 30.2524C31.4448 30.2737 30.4771 29.6675 30.341 28.7424C30.207 27.8279 30.3113 26.8772 30.3113 25.9435H34.4139L34.416 25.9414ZM41.109 25.952C41.109 26.8623 41.1707 27.6854 41.0941 28.4936C40.9984 29.4953 40.086 30.2333 39.0673 30.2503C38.04 30.2673 37.0809 29.5718 36.9703 28.5808C36.8746 27.73 36.9511 26.8602 36.9511 25.952H41.1112H41.109Z" fill="#091242"/>
<path d="M21.8213 47.905V38.0707H34.7884V47.905C33.8101 47.905 32.8637 47.8987 31.9172 47.905C30.9921 47.9135 30.4391 48.3644 30.4391 49.0939C30.4391 49.8255 30.9921 50.2828 31.913 50.2892C32.9742 50.2977 34.0355 50.3019 35.0968 50.2892C36.4069 50.2722 37.2044 49.5363 37.2151 48.2219C37.2427 44.6936 37.2448 41.1652 37.2129 37.6369C37.2023 36.3565 36.4281 35.6249 35.1414 35.6207C30.5795 35.6037 26.0153 35.6037 21.4534 35.6207C20.156 35.6249 19.4095 36.3544 19.401 37.6411C19.3776 41.1695 19.3776 44.6978 19.401 48.2262C19.4095 49.5363 20.1943 50.2785 21.5087 50.2892C23.259 50.3019 25.0094 50.2998 26.7619 50.2892C27.6785 50.2849 28.2209 49.8128 28.2017 49.0684C28.1847 48.3538 27.6615 47.9135 26.7831 47.9072C25.1455 47.8965 23.5078 47.905 21.8255 47.905H21.8213Z" fill="#091242"/>
</svg>
