<svg width="25" height="25" viewBox="0 0 25 25" fill="none" xmlns="http://www.w3.org/2000/svg">
    <path d="M3.83594 22.7085C3.42344 22.7085 3.08594 22.371 3.08594 21.9585V3.40068C3.08594 3.00225 3.30156 2.62725 3.64375 2.43037C4.21094 2.10225 5.35 1.7085 7.58594 1.7085C9.32969 1.7085 11.2797 2.39756 13.0047 3.00693C14.3875 3.49443 15.7 3.9585 16.5859 3.9585C17.7344 3.95381 18.8547 3.72881 19.9141 3.27881C20.125 3.18975 20.3547 3.18975 20.5656 3.27412C20.7719 3.3585 20.9359 3.52256 21.025 3.72881C21.0672 3.83193 21.0906 3.94443 21.0906 4.05693V14.3366C21.0906 14.7116 20.8703 15.0444 20.5281 15.1944C20.1203 15.3726 18.6297 15.9585 16.5906 15.9585C15.4609 15.9585 14.0406 15.6257 12.5406 15.2694C10.8531 14.871 9.10938 14.4585 7.59063 14.4585C5.86094 14.4585 4.97969 14.721 4.59062 14.8851V21.9585C4.58594 22.371 4.24844 22.7085 3.83594 22.7085ZM7.58594 12.9585C9.28281 12.9585 11.1953 13.4085 12.8828 13.8069C14.2937 14.1397 15.6297 14.4585 16.5859 14.4585C17.9641 14.4585 19.0281 14.1585 19.5859 13.9569V4.99443C18.6203 5.29912 17.6125 5.45381 16.5859 5.4585C15.4375 5.4585 14.0125 4.95225 12.4984 4.42256C10.8156 3.82256 9.07188 3.2085 7.58594 3.2085C5.84688 3.2085 4.96563 3.471 4.58594 3.63506V13.3007C5.24219 13.1132 6.20312 12.9585 7.58594 12.9585Z" fill="white"/>
</svg>
