<svg width="23" height="20" viewBox="0 0 23 20" fill="none" xmlns="http://www.w3.org/2000/svg">
    <path fill-rule="evenodd" clip-rule="evenodd" d="M6.19591 0.593666C6.334 0.379438 6.57143 0.25 6.8263 0.25H8.08677C8.10126 0.25 8.11575 0.25042 8.13021 0.251259C8.29971 0.261092 8.46504 0.307638 8.61477 0.387675C8.7588 0.464664 8.88509 0.570874 8.98559 0.69943L14.8552 7.83556L17.5631 7.76463C17.7563 7.75416 18.2898 7.75 18.4382 7.75C19.531 7.75 20.4946 7.8963 21.2148 8.21318C21.9298 8.52779 22.5763 9.10481 22.5763 10C22.5763 10.8956 21.9278 11.4734 21.2136 11.7888C20.4929 12.107 19.5294 12.2547 18.4386 12.2547C18.2887 12.2547 17.7587 12.2505 17.5638 12.2401L14.8561 12.168L8.97279 19.3018C8.87231 19.43 8.74617 19.5359 8.60237 19.6126C8.45289 19.6924 8.28787 19.7389 8.1187 19.7487C8.10417 19.7496 8.08961 19.75 8.07505 19.75H6.8263C6.57145 19.75 6.33403 19.6206 6.19594 19.4064C6.05785 19.1922 6.03798 18.9225 6.1432 18.6904L9.16547 12.0225L4.62989 11.921L2.97571 13.9262C2.97203 13.9308 2.96815 13.9358 2.96407 13.941C2.88401 14.0429 2.72808 14.2413 2.48715 14.3634C2.22594 14.4958 1.95193 14.5 1.7638 14.5H0.923803C0.831655 14.5 0.359996 14.4889 0.148861 14.0242C0.0648892 13.8394 0.0724499 13.6712 0.0814525 13.5886C0.0902087 13.5083 0.108707 13.4402 0.120314 13.401L1.04935 10.0704C1.05618 10.0459 1.06425 10.0218 1.07352 9.9981C1.07482 9.9948 1.07482 9.99113 1.07352 9.98783C1.06415 9.96393 1.05601 9.93955 1.04914 9.91481L0.120443 6.5717C0.12031 6.57126 0.120155 6.57075 0.119979 6.57018C0.11179 6.54334 0.0590024 6.37037 0.0892429 6.17381C0.10929 6.0435 0.17426 5.84448 0.361918 5.68724C0.546304 5.53273 0.749492 5.50234 0.876928 5.50234H1.76099C2.15216 5.50234 2.66004 5.65853 2.97973 6.06473L4.60038 8.0358L9.16236 7.96832L6.14324 1.30971C6.03799 1.07759 6.05783 0.807893 6.19591 0.593666ZM8.09105 1.97318L10.93 8.23432C10.9911 8.36713 11.0174 8.5134 11.0062 8.65929C10.9949 8.80805 10.9451 8.95131 10.8616 9.07498C10.7782 9.19867 10.664 9.29852 10.5303 9.36473C10.4086 9.42502 10.2745 9.45554 10.139 9.45404L4.45337 9.53814C4.27867 9.54229 4.10535 9.50578 3.94711 9.43146C3.79035 9.35783 3.65271 9.24912 3.5448 9.11379L1.81958 7.01555C1.81921 7.01539 1.81882 7.01522 1.81842 7.01505C1.8127 7.01263 1.80593 7.01026 1.79851 7.00822L2.48584 9.48247C2.6041 9.81265 2.60405 10.1737 2.48568 10.5039L1.78947 12.9999C1.79164 12.9999 1.79377 12.9999 1.79587 12.9998C1.7988 12.9962 1.80184 12.9923 1.805 12.9884C1.80792 12.9847 1.81087 12.981 1.81385 12.9774L3.5776 10.8394C3.68555 10.7055 3.82258 10.5978 3.97835 10.5247C4.13689 10.4502 4.31053 10.4135 4.48564 10.4174L10.1426 10.5439L10.1429 10.5439C10.2855 10.5472 10.4252 10.5852 10.5499 10.6547C10.6745 10.7242 10.7803 10.8231 10.858 10.9427C10.9357 11.0624 10.9831 11.1992 10.996 11.3413C11.0088 11.4834 10.9868 11.6265 10.9318 11.7581C10.9289 11.765 10.9259 11.7719 10.9228 11.7787L8.10411 17.9975L13.8858 10.9869C13.9859 10.8598 14.1006 10.7951 14.1506 10.7691C14.2215 10.7323 14.2863 10.7112 14.3297 10.6991C14.4099 10.6767 14.5051 10.6609 14.5996 10.6609C14.6062 10.6609 14.6129 10.661 14.6195 10.6612L17.6148 10.7409C17.6233 10.7411 17.6318 10.7415 17.6403 10.742C17.7678 10.7497 18.2728 10.7547 18.4386 10.7547C19.4231 10.7547 20.1534 10.6172 20.6077 10.4166C21.0685 10.2131 21.0763 10.0386 21.0763 10C21.0763 9.96097 21.0694 9.78799 20.6107 9.58615C20.1571 9.38659 19.4266 9.25 18.4382 9.25C18.2719 9.25 17.7634 9.25499 17.6411 9.26261C17.6321 9.26317 17.6231 9.26357 17.6141 9.26381L14.5783 9.34332C14.4309 9.34884 14.2845 9.31527 14.1541 9.24582C14.0443 9.18733 13.9493 9.10524 13.8756 9.00587L8.09105 1.97318ZM1.5587 13.8266C1.5589 13.8259 1.5591 13.8252 1.5593 13.8246C1.5583 13.8282 1.55796 13.829 1.5587 13.8266Z" fill="white"/>
</svg>
