<svg id="Group_7" data-name="Group 7" xmlns="http://www.w3.org/2000/svg" xmlns:xlink="http://www.w3.org/1999/xlink" width="102.557" height="30.436" viewBox="0 0 102.557 30.436">
    <defs>
        <linearGradient id="linear-gradient" x1="47.17" y1="48.144" x2="47.15" y2="48.133" gradientUnits="objectBoundingBox">
            <stop offset="0" stop-color="#4896d1"/>
            <stop offset="0.007" stop-color="#4998d2"/>
            <stop offset="0.26" stop-color="#41b8ea"/>
            <stop offset="0.512" stop-color="#3fc6f1"/>
            <stop offset="0.76" stop-color="#55c8e8"/>
            <stop offset="1" stop-color="#5ac8e7"/>
        </linearGradient>
        <linearGradient id="linear-gradient-2" x1="58.012" y1="131.104" x2="57.898" y2="131.104" gradientUnits="objectBoundingBox">
            <stop offset="0" stop-color="#fddf00"/>
            <stop offset="0.409" stop-color="#fdbc11"/>
            <stop offset="0.775" stop-color="#f9a31a"/>
            <stop offset="1" stop-color="#f89b1c"/>
        </linearGradient>
        <linearGradient id="linear-gradient-3" x1="37.25" y1="89.062" x2="37.21" y2="89.011" gradientUnits="objectBoundingBox">
            <stop offset="0" stop-color="#ee3f49"/>
            <stop offset="1" stop-color="#c11e63"/>
        </linearGradient>
        <linearGradient id="linear-gradient-4" x1="37.215" y1="90.072" x2="37.232" y2="90.05" gradientUnits="objectBoundingBox">
            <stop offset="0" stop-color="#319f71"/>
            <stop offset="0.068" stop-color="#2ba670"/>
            <stop offset="0.476" stop-color="#4ab870"/>
            <stop offset="0.801" stop-color="#5dbc6a"/>
            <stop offset="1" stop-color="#66bd68"/>
        </linearGradient>
        <linearGradient id="linear-gradient-5" x1="36.894" y1="124.059" x2="36.862" y2="123.998" gradientUnits="objectBoundingBox">
            <stop offset="0" stop-color="#cb2e36"/>
            <stop offset="1" stop-color="#9b1c50"/>
        </linearGradient>
        <linearGradient id="linear-gradient-6" x1="-12.425" y1="267.402" x2="-18.767" y2="265.19" gradientUnits="objectBoundingBox">
            <stop offset="0" stop-color="#2e88c9"/>
            <stop offset="0.007" stop-color="#2e88c9"/>
            <stop offset="0.26" stop-color="#00a6df"/>
            <stop offset="0.512" stop-color="#00b7df"/>
            <stop offset="0.76" stop-color="#21c0dc"/>
            <stop offset="1" stop-color="#28c0da"/>
        </linearGradient>
        <linearGradient id="linear-gradient-7" x1="93.096" y1="221.19" x2="92.796" y2="221.19" gradientUnits="objectBoundingBox">
            <stop offset="0" stop-color="#dec423"/>
            <stop offset="0.409" stop-color="#dea626"/>
            <stop offset="0.775" stop-color="#dd9126"/>
            <stop offset="1" stop-color="#de8926"/>
        </linearGradient>
        <linearGradient id="linear-gradient-8" x1="93.096" y1="222.057" x2="92.796" y2="222.057" gradientUnits="objectBoundingBox">
            <stop offset="0" stop-color="#fde640"/>
            <stop offset="0.409" stop-color="#ffce40"/>
            <stop offset="0.775" stop-color="#fcba40"/>
            <stop offset="1" stop-color="#fbb341"/>
        </linearGradient>
        <linearGradient id="linear-gradient-9" x1="-18.148" y1="279.643" x2="-24.477" y2="277.529" gradientUnits="objectBoundingBox">
            <stop offset="0" stop-color="#5cb2e4"/>
            <stop offset="0.007" stop-color="#5cb3e4"/>
            <stop offset="0.26" stop-color="#4fc8f4"/>
            <stop offset="0.512" stop-color="#62cbec"/>
            <stop offset="0.76" stop-color="#6ecde8"/>
            <stop offset="1" stop-color="#70cde7"/>
        </linearGradient>
        <linearGradient id="linear-gradient-10" x1="36.862" y1="126.01" x2="36.876" y2="125.982" gradientUnits="objectBoundingBox">
            <stop offset="0" stop-color="#65b794"/>
            <stop offset="0.068" stop-color="#63bc94"/>
            <stop offset="0.476" stop-color="#6ac18e"/>
            <stop offset="0.801" stop-color="#72c38a"/>
            <stop offset="1" stop-color="#74c388"/>
        </linearGradient>
    </defs>
    <path id="Path_2029" data-name="Path 2029" d="M873.314,1885.632H778.355a3.814,3.814,0,0,1-3.8-3.8V1859a3.814,3.814,0,0,1,3.8-3.8h94.96a3.815,3.815,0,0,1,3.8,3.8v22.827a3.815,3.815,0,0,1-3.8,3.8" transform="translate(-774.557 -1855.196)" fill="#081306"/>
    <path id="Path_2031" data-name="Path 2031" d="M844.47,1868.629a2.062,2.062,0,0,1-.566,1.524,2.209,2.209,0,0,1-1.674.676,2.385,2.385,0,1,1,0-4.769,2.345,2.345,0,0,1,.936.191,1.888,1.888,0,0,1,.713.51l-.4.4a1.539,1.539,0,0,0-1.248-.542,1.823,1.823,0,1,0,1.271,3.137,1.436,1.436,0,0,0,.382-.925h-1.653v-.548h2.209a1.97,1.97,0,0,1,.032.344" transform="translate(-808.448 -1860.835)" fill="#fff"/>
    <path id="Path_2032" data-name="Path 2032" d="M844.389,1868.545h-.076a1.987,1.987,0,0,1-.544,1.471h0a2.133,2.133,0,0,1-1.62.652,2.309,2.309,0,1,1,0-4.617,2.272,2.272,0,0,1,.906.185,1.808,1.808,0,0,1,.685.49l.058-.049-.054-.054-.4.4.054.053.059-.049a1.616,1.616,0,0,0-1.307-.569,1.9,1.9,0,1,0,1.326,3.267,1.516,1.516,0,0,0,.4-.972l.007-.082h-1.662v-.4h2.133v-.076l-.075.013a1.872,1.872,0,0,1,.031.331h.152a2.032,2.032,0,0,0-.033-.358l-.011-.062h-2.348v.7H843.8v-.076l-.076-.006a1.364,1.364,0,0,1-.36.877,1.737,1.737,0,0,1-2.412,0,1.837,1.837,0,0,1,0-2.524,1.654,1.654,0,0,1,1.192-.485,1.461,1.461,0,0,1,1.189.514l.053.064.459-.46.049-.049-.045-.053a1.955,1.955,0,0,0-.741-.531,2.425,2.425,0,0,0-.966-.2,2.461,2.461,0,1,0,0,4.922,2.285,2.285,0,0,0,1.729-.7l-.055-.052.053.054a2.138,2.138,0,0,0,.588-1.578h-.076m3.5-1.907h-2.077v1.447h1.872v.548h-1.872v1.448h2.076v.559h-2.661v-4.565h2.661v.561" transform="translate(-808.367 -1860.751)" fill="#fff"/>
    <path id="Path_2033" data-name="Path 2033" d="M853.79,1866.75v-.075h-2.151v1.6h1.872v.4h-1.872v1.6h2.076v.41H851.2v-4.416h2.509v.485h.152v-.637h-2.813v4.718h2.813v-.713H851.79v-1.3h1.872v-.7H851.79v-1.295h2.076v-.076h-.076m2.47,4h-.586v-4H854.4v-.561h3.132v.561h-1.272v4" transform="translate(-814.266 -1860.863)" fill="#fff"/>
    <path id="Path_2034" data-name="Path 2034" d="M859.794,1870.755v-.076h-.509v-4h-1.271v-.41h2.98v.41h-1.271v4.08h.151v-3.928h1.272v-.714h-3.284v.713h1.271v4h.738v-.076H859.8m3.539,0v-4.566h.585v4.566h-.585" transform="translate(-817.801 -1860.863)" fill="#fff"/>
    <path id="Path_2035" data-name="Path 2035" d="M869.157,1870.755h.076v-4.49h.434v4.414h-.51v.076h0v.076h.662v-4.717h-.738v4.717h.076v-.076m3.183,0h-.586v-4.005h-1.271v-.561h3.132v.561h-1.271v4" transform="translate(-823.625 -1860.864)" fill="#fff"/>
    <path id="Path_2036" data-name="Path 2036" d="M873.772,1870.729v-.076h-.51v-4H871.99v-.41h2.98v.41H873.7v4.08h.152V1866.8h1.272v-.713h-3.284v.713h1.271v4h.738v-.076h-.076m4.292-.972a1.751,1.751,0,0,0,2.476,0h0a1.947,1.947,0,0,0,0-2.621,1.75,1.75,0,0,0-2.476,0h0A1.95,1.95,0,0,0,878.065,1869.758Zm2.909.382a2.363,2.363,0,0,1-3.342,0,2.468,2.468,0,0,1,0-3.385,2.356,2.356,0,0,1,3.332,0l.007.008A2.461,2.461,0,0,1,880.974,1870.141Z" transform="translate(-825.056 -1860.837)" fill="#fff"/>
    <path id="Path_2037" data-name="Path 2037" d="M883.508,1869.671l-.054.053a1.827,1.827,0,0,0,2.583,0h0a2.024,2.024,0,0,0,0-2.728,1.827,1.827,0,0,0-2.583,0h0a2.027,2.027,0,0,0,0,2.728l.054-.053.054-.053a1.874,1.874,0,0,1,0-2.514,1.675,1.675,0,0,1,2.368,0,1.872,1.872,0,0,1,0,2.514,1.675,1.675,0,0,1-2.368,0Zm2.91.382-.054-.053a2.288,2.288,0,0,1-3.234,0l0,0,0,0a2.4,2.4,0,0,1,0-3.282,2.28,2.28,0,0,1,3.225,0l.005.005a2.386,2.386,0,0,1,0,3.277l.054.053.054.053a2.537,2.537,0,0,0,0-3.487,2.431,2.431,0,0,0-3.438-.013l-.01.01h0a2.546,2.546,0,0,0,0,3.491v0a2.44,2.44,0,0,0,3.45,0h0Zm1.493.59v-4.566h.713l2.215,3.552h.026l-.026-.88v-2.672h.586v4.564h-.611l-2.317-3.724h-.026l.026.88v2.844h-.586" transform="translate(-830.502 -1860.752)" fill="#fff"/>
    <path id="Path_2038" data-name="Path 2038" d="M865.572,1870.752h.076v-4.49h.594l2.215,3.551h.145l-.028-.957v-2.594h.434v4.414h-.492l-2.317-3.724h-.145l.027.957v2.767h-.509v.076h0v.076h.659v-2.921l-.025-.881h-.076v.076h.026v-.076l-.064.041,2.338,3.76h.73v-4.717h-.738v2.749l.025.881.076,0v-.076H868.5v.076l.064-.042-2.238-3.587h-.831v4.717h.076v-.076m23.824,12.935h1.418v-9.51h-1.418Zm12.768-6.086-1.625,4.124h-.049L898.8,1877.6h-1.527l2.529,5.764-1.442,3.206h1.479l3.9-8.97Zm-8.04,5c-.465,0-1.112-.232-1.112-.808,0-.734.807-1.016,1.5-1.016a2.52,2.52,0,0,1,1.3.318,1.72,1.72,0,0,1-1.682,1.509Zm.171-5.213a2.66,2.66,0,0,0-2.529,1.457l1.258.526a1.343,1.343,0,0,1,1.3-.7,1.367,1.367,0,0,1,1.49,1.224v.1a3.129,3.129,0,0,0-1.476-.367c-1.356,0-2.737.746-2.737,2.142a2.2,2.2,0,0,0,2.358,2.092,2,2,0,0,0,1.809-.93h.049v.734h1.368v-3.644a2.6,2.6,0,0,0-2.882-2.631Zm-8.761,1.366h-2.016v-3.26h2.016a1.63,1.63,0,1,1,.052,3.26Zm-.037-4.584h-3.4v9.512h1.417v-3.6h1.979a2.958,2.958,0,1,0,.341-5.907,2.845,2.845,0,0,0-.341,0Zm-18.521,8.434a1.969,1.969,0,0,1,0-3.923,1.978,1.978,0,0,1,0,3.923Zm1.627-4.474h-.049a2.238,2.238,0,0,0-1.7-.723,3.241,3.241,0,0,0,0,6.473,2.2,2.2,0,0,0,1.7-.736h.049v.469c0,1.238-.661,1.9-1.725,1.9a1.789,1.789,0,0,1-1.628-1.152l-1.236.515a3.08,3.08,0,0,0,2.864,1.912c1.664,0,3.072-.98,3.072-3.371v-5.81H868.6Zm2.326,5.553h1.42v-9.513h-1.42Zm3.513-3.138a1.773,1.773,0,0,1,1.655-1.885l.034,0a1.249,1.249,0,0,1,1.2.687Zm4.406-1.079a3.005,3.005,0,0,0-2.766-2.06,3.074,3.074,0,0,0-3.047,3.237,3.165,3.165,0,0,0,3.092,3.235h.115a3.213,3.213,0,0,0,2.693-1.436l-1.1-.735a1.846,1.846,0,0,1-1.591.9,1.645,1.645,0,0,1-1.567-.981l4.324-1.782Zm-34.419-1.066v1.372h3.282a2.867,2.867,0,0,1-.747,1.729,3.355,3.355,0,0,1-2.533,1.006,3.654,3.654,0,0,1,0-7.306,3.49,3.49,0,0,1,2.472.981l.967-.969a4.776,4.776,0,0,0-3.439-1.385,5.026,5.026,0,1,0-.222,10.05q.111,0,.222,0a4.444,4.444,0,0,0,4.684-4.191c.008-.143.009-.287,0-.43a4.482,4.482,0,0,0-.074-.858Zm8.416,4.2a1.967,1.967,0,1,1,1.818-2.1c0,.047.005.095.005.143a1.871,1.871,0,0,1-1.773,1.964h-.046Zm0-5.2a3.236,3.236,0,1,0,3.243,3.237,3.187,3.187,0,0,0-3.141-3.233h-.1Zm7.075,5.2a1.967,1.967,0,1,1,1.818-2.1q.005.071.005.143a1.871,1.871,0,0,1-1.777,1.96Zm0-5.2a3.236,3.236,0,1,0,3.243,3.237,3.187,3.187,0,0,0-3.136-3.237Z" transform="translate(-808.16 -1860.861)" fill="#fff"/>
    <path id="Path_2039" data-name="Path 2039" d="M790.713,1866.972a1.473,1.473,0,0,0-.407,1.125V1884.7a1.527,1.527,0,0,0,.352,1.069l.057.054h0a.976.976,0,0,0,.671.246,1.743,1.743,0,0,0,.851-.255l11.027-6.276,3.788-2.156a1.416,1.416,0,0,0,.8-.984h0a1.417,1.417,0,0,0-.8-.987l-3.788-2.155-11.026-6.276a1.747,1.747,0,0,0-.852-.256.977.977,0,0,0-.671.246Z" transform="translate(-782.73 -1861.182)" fill="#3dbcec"/>
    <path id="Path_2040" data-name="Path 2040" d="M790.714,1886.1l-.057-.054a1.527,1.527,0,0,1-.352-1.069v-16.605a1.471,1.471,0,0,1,.407-1.125l9.412,9.427-9.411,9.426" transform="translate(-782.73 -1861.45)" fill="url(#linear-gradient)"/>
    <path id="Path_2041" data-name="Path 2041" d="M813.867,1886.593l-3.138-3.144,3.137-3.143,3.788,2.155a1.419,1.419,0,0,1,.8.987h0a1.42,1.42,0,0,1-.8.984l-3.788,2.155" transform="translate(-793.334 -1868.231)" fill="url(#linear-gradient-2)"/>
    <path id="Path_2042" data-name="Path 2042" d="M791.83,1896.518a.977.977,0,0,1-.671-.246h0l9.411-9.426,3.138,3.143-11.027,6.276a1.751,1.751,0,0,1-.851.255" transform="translate(-783.175 -1871.626)" fill="url(#linear-gradient-3)"/>
    <path id="Path_2043" data-name="Path 2043" d="M800.569,1876.4l-9.413-9.426a.975.975,0,0,1,.671-.246,1.757,1.757,0,0,1,.853.256l11.026,6.276-3.138,3.143" transform="translate(-783.174 -1861.183)" fill="url(#linear-gradient-4)"/>
    <path id="Path_2044" data-name="Path 2044" d="M791.768,1900.02a.977.977,0,0,1-.671-.246h0l0,0-.05-.05,0,0,.056-.057a.976.976,0,0,0,.671.246,1.748,1.748,0,0,0,.851-.255l11.027-6.276.07.071-.071.041-11.026,6.276a1.817,1.817,0,0,1-.78.254h-.069" transform="translate(-783.113 -1875.015)" fill="url(#linear-gradient-5)"/>
    <path id="Path_2045" data-name="Path 2045" d="M790.659,1905.289a1.527,1.527,0,0,1-.352-1.069v-.111a1.528,1.528,0,0,0,.352,1.069l.057.054-.057.057" transform="translate(-782.732 -1880.587)" fill="url(#linear-gradient-6)"/>
    <path id="Path_2046" data-name="Path 2046" d="M817.324,1890.059l-.071-.071,3.788-2.156a1.419,1.419,0,0,0,.8-.985.946.946,0,0,1-.088.393,1.631,1.631,0,0,1-.708.705l-3.717,2.114" transform="translate(-796.721 -1871.627)" fill="url(#linear-gradient-7)"/>
    <path id="Path_2047" data-name="Path 2047" d="M821.837,1883.373a1.419,1.419,0,0,0-.8-.987l-3.788-2.155.071-.071h0l3.717,2.115a1.337,1.337,0,0,1,.8,1.1" transform="translate(-796.721 -1868.155)" fill="url(#linear-gradient-8)"/>
    <path id="Path_2048" data-name="Path 2048" d="M790.306,1868.306v-.116c0-.041,0-.082,0-.123h0v0a1.453,1.453,0,0,1,.348-.934l.055.056a1.473,1.473,0,0,0-.407,1.121" transform="translate(-782.731 -1861.39)" fill="url(#linear-gradient-9)"/>
    <path id="Path_2049" data-name="Path 2049" d="M803.647,1873.137l-11.026-6.276a1.75,1.75,0,0,0-.852-.256.98.98,0,0,0-.671.246l-.055-.056c.017-.018.035-.036.054-.053h0a.977.977,0,0,1,.665-.246h.006a1.746,1.746,0,0,1,.852.256l11.1,6.316h0l-.071.071" transform="translate(-783.114 -1861.062)" fill="url(#linear-gradient-10)"/>
</svg>
