<svg id="Group_7" data-name="Group 7" xmlns="http://www.w3.org/2000/svg" xmlns:xlink="http://www.w3.org/1999/xlink" width="208.771" height="61.958" viewBox="0 0 208.771 61.958">
    <defs>
        <linearGradient id="linear-gradient" x1="47.17" y1="48.144" x2="47.15" y2="48.133" gradientUnits="objectBoundingBox">
            <stop offset="0" stop-color="#4896d1"/>
            <stop offset="0.007" stop-color="#4998d2"/>
            <stop offset="0.26" stop-color="#41b8ea"/>
            <stop offset="0.512" stop-color="#3fc6f1"/>
            <stop offset="0.76" stop-color="#55c8e8"/>
            <stop offset="1" stop-color="#5ac8e7"/>
        </linearGradient>
        <linearGradient id="linear-gradient-2" x1="58.012" y1="131.104" x2="57.898" y2="131.104" gradientUnits="objectBoundingBox">
            <stop offset="0" stop-color="#fddf00"/>
            <stop offset="0.409" stop-color="#fdbc11"/>
            <stop offset="0.775" stop-color="#f9a31a"/>
            <stop offset="1" stop-color="#f89b1c"/>
        </linearGradient>
        <linearGradient id="linear-gradient-3" x1="37.25" y1="89.062" x2="37.21" y2="89.011" gradientUnits="objectBoundingBox">
            <stop offset="0" stop-color="#ee3f49"/>
            <stop offset="1" stop-color="#c11e63"/>
        </linearGradient>
        <linearGradient id="linear-gradient-4" x1="37.215" y1="90.072" x2="37.232" y2="90.05" gradientUnits="objectBoundingBox">
            <stop offset="0" stop-color="#319f71"/>
            <stop offset="0.068" stop-color="#2ba670"/>
            <stop offset="0.476" stop-color="#4ab870"/>
            <stop offset="0.801" stop-color="#5dbc6a"/>
            <stop offset="1" stop-color="#66bd68"/>
        </linearGradient>
        <linearGradient id="linear-gradient-5" x1="36.894" y1="124.059" x2="36.862" y2="123.998" gradientUnits="objectBoundingBox">
            <stop offset="0" stop-color="#cb2e36"/>
            <stop offset="1" stop-color="#9b1c50"/>
        </linearGradient>
        <linearGradient id="linear-gradient-6" x1="-12.425" y1="267.402" x2="-18.767" y2="265.19" gradientUnits="objectBoundingBox">
            <stop offset="0" stop-color="#2e88c9"/>
            <stop offset="0.007" stop-color="#2e88c9"/>
            <stop offset="0.26" stop-color="#00a6df"/>
            <stop offset="0.512" stop-color="#00b7df"/>
            <stop offset="0.76" stop-color="#21c0dc"/>
            <stop offset="1" stop-color="#28c0da"/>
        </linearGradient>
        <linearGradient id="linear-gradient-7" x1="93.096" y1="221.19" x2="92.796" y2="221.19" gradientUnits="objectBoundingBox">
            <stop offset="0" stop-color="#dec423"/>
            <stop offset="0.409" stop-color="#dea626"/>
            <stop offset="0.775" stop-color="#dd9126"/>
            <stop offset="1" stop-color="#de8926"/>
        </linearGradient>
        <linearGradient id="linear-gradient-8" x1="93.096" y1="222.057" x2="92.796" y2="222.057" gradientUnits="objectBoundingBox">
            <stop offset="0" stop-color="#fde640"/>
            <stop offset="0.409" stop-color="#ffce40"/>
            <stop offset="0.775" stop-color="#fcba40"/>
            <stop offset="1" stop-color="#fbb341"/>
        </linearGradient>
        <linearGradient id="linear-gradient-9" x1="-18.148" y1="279.643" x2="-24.477" y2="277.529" gradientUnits="objectBoundingBox">
            <stop offset="0" stop-color="#5cb2e4"/>
            <stop offset="0.007" stop-color="#5cb3e4"/>
            <stop offset="0.26" stop-color="#4fc8f4"/>
            <stop offset="0.512" stop-color="#62cbec"/>
            <stop offset="0.76" stop-color="#6ecde8"/>
            <stop offset="1" stop-color="#70cde7"/>
        </linearGradient>
        <linearGradient id="linear-gradient-10" x1="36.862" y1="126.01" x2="36.876" y2="125.982" gradientUnits="objectBoundingBox">
            <stop offset="0" stop-color="#65b794"/>
            <stop offset="0.068" stop-color="#63bc94"/>
            <stop offset="0.476" stop-color="#6ac18e"/>
            <stop offset="0.801" stop-color="#72c38a"/>
            <stop offset="1" stop-color="#74c388"/>
        </linearGradient>
    </defs>
    <path id="Path_2029" data-name="Path 2029" d="M975.591,1917.154h-193.3a7.764,7.764,0,0,1-7.732-7.746V1862.94a7.765,7.765,0,0,1,7.732-7.744H975.6a7.766,7.766,0,0,1,7.733,7.744v46.467a7.766,7.766,0,0,1-7.733,7.745" transform="translate(-774.557 -1855.196)" fill="#9dc08b"/>
    <path id="Path_2031" data-name="Path 2031" d="M849.26,1871.29a4.2,4.2,0,0,1-1.152,3.1,4.5,4.5,0,0,1-3.409,1.375,4.854,4.854,0,1,1,0-9.709,4.773,4.773,0,0,1,1.9.389,3.843,3.843,0,0,1,1.451,1.038l-.815.818a3.134,3.134,0,0,0-2.54-1.1,3.712,3.712,0,1,0,2.588,6.387,2.924,2.924,0,0,0,.778-1.883H844.7v-1.116h4.5a4.021,4.021,0,0,1,.065.7" transform="translate(-775.932 -1855.425)" fill="#fff"/>
    <path id="Path_2032" data-name="Path 2032" d="M849.257,1871.287H849.1a4.046,4.046,0,0,1-1.107,2.994h0a4.343,4.343,0,0,1-3.3,1.327,4.7,4.7,0,1,1,0-9.4,4.627,4.627,0,0,1,1.843.377,3.679,3.679,0,0,1,1.394,1l.118-.1-.11-.11-.815.818.11.109.119-.1a3.29,3.29,0,0,0-2.66-1.158,3.867,3.867,0,1,0,2.7,6.651,3.087,3.087,0,0,0,.823-1.978l.014-.167h-3.383v-.807h4.341v-.155l-.152.027a3.808,3.808,0,0,1,.063.675h.309a4.125,4.125,0,0,0-.068-.729l-.022-.127h-4.779v1.426h3.523v-.155l-.154-.013a2.777,2.777,0,0,1-.732,1.786,3.536,3.536,0,0,1-4.909,0,3.739,3.739,0,0,1,0-5.138,3.368,3.368,0,0,1,2.427-.987,2.973,2.973,0,0,1,2.421,1.047l.109.13.935-.937.1-.1-.091-.108a3.981,3.981,0,0,0-1.508-1.081,4.939,4.939,0,0,0-1.966-.4,5.01,5.01,0,1,0,0,10.02,4.651,4.651,0,0,0,3.52-1.42l-.111-.107.108.11a4.353,4.353,0,0,0,1.2-3.212h-.154m7.128-3.882h-4.229v2.946h3.81v1.116h-3.81v2.948h4.225v1.137h-5.416v-9.293h5.416v1.142" transform="translate(-775.929 -1855.421)" fill="#fff"/>
    <path id="Path_2033" data-name="Path 2033" d="M856.624,1867.41v-.153h-4.38v3.256h3.81v.806h-3.81v3.257h4.225v.835h-5.107v-8.99h5.107v.987h.309v-1.3h-5.726v9.6h5.726v-1.452h-4.225v-2.638h3.81V1870.2h-3.81v-2.636h4.225v-.156h-.155m5.028,8.153h-1.193v-8.153H857.87v-1.142h6.376v1.142h-2.588v8.152" transform="translate(-776.168 -1855.426)" fill="#fff"/>
    <path id="Path_2034" data-name="Path 2034" d="M861.8,1875.562v-.156H860.76v-8.149h-2.588v-.835h6.066v.835H861.65v8.306h.308v-8h2.589v-1.454h-6.685v1.452h2.588v8.152h1.5v-.155H861.8m7.2,0v-9.294h1.191v9.294H869" transform="translate(-776.312 -1855.426)" fill="#fff"/>
    <path id="Path_2035" data-name="Path 2035" d="M869.237,1875.562h.155v-9.14h.883v8.985h-1.038v.155h0v.155h1.347v-9.6h-1.5v9.6h.155v-.155m6.48,0h-1.193v-8.153h-2.588v-1.141h6.376v1.141h-2.588v8.152" transform="translate(-776.548 -1855.426)" fill="#fff"/>
    <path id="Path_2036" data-name="Path 2036" d="M875.774,1875.561v-.156h-1.039v-8.147h-2.588v-.835h6.067v.835h-2.589v8.306h.309v-8h2.588v-1.451h-6.685v1.451h2.588v8.152h1.5v-.155h-.154m8.738-1.979a3.564,3.564,0,0,0,5.041,0h0a3.963,3.963,0,0,0,0-5.335,3.563,3.563,0,0,0-5.04,0h0A3.969,3.969,0,0,0,884.513,1873.585Zm5.922.778a4.81,4.81,0,0,1-6.8,0,5.025,5.025,0,0,1,0-6.89,4.8,4.8,0,0,1,6.782-.01l.015.016A5.009,5.009,0,0,1,890.436,1874.363Z" transform="translate(-776.606 -1855.425)" fill="#fff"/>
    <path id="Path_2037" data-name="Path 2037" d="M884.73,1873.578l-.11.109a3.718,3.718,0,0,0,5.259,0h0a4.119,4.119,0,0,0,0-5.553,3.718,3.718,0,0,0-5.259,0h0a4.125,4.125,0,0,0,0,5.553l.11-.109.111-.109a3.815,3.815,0,0,1,0-5.117,3.409,3.409,0,0,1,4.821,0,3.811,3.811,0,0,1,0,5.117,3.409,3.409,0,0,1-4.821,0Zm5.924.778-.111-.107a4.659,4.659,0,0,1-6.583,0l0-.005,0,.005a4.875,4.875,0,0,1,0-6.681,4.642,4.642,0,0,1,6.565,0l.011.01a4.857,4.857,0,0,1,.006,6.67l.11.107.111.108a5.165,5.165,0,0,0-.006-7.1,4.948,4.948,0,0,0-7-.026l-.021.02h0a5.183,5.183,0,0,0,0,7.107v0a4.966,4.966,0,0,0,7.023,0l0,0Zm3.039,1.2v-9.294h1.452l4.509,7.229h.052l-.052-1.791v-5.439h1.193v9.291H899.6l-4.717-7.58h-.052l.052,1.792v5.788h-1.193" transform="translate(-776.827 -1855.422)" fill="#fff"/>
    <path id="Path_2038" data-name="Path 2038" d="M892.791,1875.562h.155v-9.139h1.21l4.51,7.229h.3l-.057-1.948v-5.281h.884v8.984h-1l-4.718-7.58h-.3l.055,1.948v5.632h-1.036v.155h0v.155h1.342v-5.946l-.051-1.794h-.155v.155h.052v-.155l-.131.083,4.76,7.654h1.485v-9.6h-1.5v5.6l.052,1.793.154,0v-.155h-.051v.155l.13-.084-4.555-7.3H892.63v9.6h.155v-.155m48.5,26.331h2.886V1882.53h-2.886Zm25.991-12.388-3.307,8.4h-.1l-3.433-8.4h-3.108l5.147,11.734-2.935,6.526h3.011l7.932-18.26Zm-16.366,10.187c-.947,0-2.264-.473-2.264-1.644,0-1.495,1.643-2.067,3.059-2.067a5.131,5.131,0,0,1,2.637.648,3.5,3.5,0,0,1-3.423,3.072Zm.349-10.612a5.414,5.414,0,0,0-5.148,2.965l2.561,1.071a2.734,2.734,0,0,1,2.637-1.42,2.782,2.782,0,0,1,3.034,2.491v.2a6.368,6.368,0,0,0-3.005-.748c-2.761,0-5.572,1.519-5.572,4.36,0,2.588,2.263,4.259,4.8,4.259a4.071,4.071,0,0,0,3.682-1.892h.1v1.494h2.785v-7.418c0-3.436-2.558-5.356-5.866-5.356Zm-17.834,2.78h-4.1v-6.637h4.1a3.319,3.319,0,1,1,.106,6.637Zm-.074-9.332h-6.913v19.364h2.884v-7.336h4.029a6.022,6.022,0,1,0,.695-12.024,5.789,5.789,0,0,0-.695,0Zm-37.7,17.168a4.008,4.008,0,0,1,0-7.985c1.968,0,3.512,1.7,3.512,4.018A3.679,3.679,0,0,1,895.643,1899.691Zm3.313-9.108h-.1a4.556,4.556,0,0,0-3.463-1.472,6.6,6.6,0,0,0,0,13.176,4.486,4.486,0,0,0,3.463-1.5h.1v.955c0,2.521-1.345,3.867-3.512,3.867a3.641,3.641,0,0,1-3.315-2.345l-2.516,1.049a6.269,6.269,0,0,0,5.83,3.892c3.388,0,6.254-2,6.254-6.862v-11.828h-2.741Zm4.734,11.3h2.89v-19.365h-2.89Zm7.15-6.388a3.61,3.61,0,0,1,3.369-3.837l.069,0a2.543,2.543,0,0,1,2.442,1.4Zm8.969-2.2a6.117,6.117,0,0,0-5.631-4.193,6.258,6.258,0,0,0-6.2,6.589,6.442,6.442,0,0,0,6.294,6.586c.077,0,.156,0,.234,0a6.541,6.541,0,0,0,5.482-2.923l-2.241-1.5a3.757,3.757,0,0,1-3.239,1.822,3.348,3.348,0,0,1-3.189-2l8.8-3.628Zm-70.065-2.17v2.794h6.68a5.836,5.836,0,0,1-1.521,3.519,6.83,6.83,0,0,1-5.157,2.047,7.438,7.438,0,0,1,0-14.873,7.105,7.105,0,0,1,5.033,2l1.969-1.972a9.724,9.724,0,0,0-7-2.82,10.231,10.231,0,1,0-.452,20.457q.226.006.452,0a9.046,9.046,0,0,0,9.536-8.531c.016-.292.019-.583.006-.875a9.124,9.124,0,0,0-.15-1.747Zm17.132,8.559a4,4,0,1,1,3.7-4.284c.007.1.011.193.011.291a3.81,3.81,0,0,1-3.61,4l-.094,0Zm0-10.582a6.588,6.588,0,1,0,6.6,6.589,6.488,6.488,0,0,0-6.395-6.581h-.2Zm14.4,10.582a4,4,0,1,1,3.7-4.284c.007.1.011.194.011.291a3.808,3.808,0,0,1-3.618,3.989Zm0-10.582a6.588,6.588,0,1,0,6.6,6.589,6.488,6.488,0,0,0-6.385-6.589Z" transform="translate(-775.921 -1855.426)" fill="#fff"/>
    <path id="Path_2039" data-name="Path 2039" d="M791.138,1867.227a3,3,0,0,0-.828,2.29v33.8a3.109,3.109,0,0,0,.716,2.176l.115.11h0a1.986,1.986,0,0,0,1.366.5,3.549,3.549,0,0,0,1.733-.52l22.447-12.775,7.711-4.389a2.882,2.882,0,0,0,1.62-2h0a2.886,2.886,0,0,0-1.62-2.009l-7.711-4.388-22.446-12.776a3.558,3.558,0,0,0-1.735-.521,1.991,1.991,0,0,0-1.366.5Z" transform="translate(-774.889 -1855.439)" fill="#3dbcec"/>
    <path id="Path_2040" data-name="Path 2040" d="M791.141,1905.621l-.115-.11a3.108,3.108,0,0,1-.716-2.176v-33.8a3,3,0,0,1,.828-2.29l19.16,19.19-19.157,19.188" transform="translate(-774.889 -1855.45)" fill="url(#linear-gradient)"/>
    <path id="Path_2041" data-name="Path 2041" d="M817.116,1893.1l-6.387-6.4,6.386-6.4,7.711,4.388a2.888,2.888,0,0,1,1.621,2.01h0a2.891,2.891,0,0,1-1.621,2l-7.711,4.387" transform="translate(-775.319 -1855.725)" fill="url(#linear-gradient-2)"/>
    <path id="Path_2042" data-name="Path 2042" d="M792.525,1906.536a1.989,1.989,0,0,1-1.366-.5h0l19.158-19.188,6.388,6.4-22.447,12.776a3.564,3.564,0,0,1-1.733.52" transform="translate(-774.907 -1855.863)" fill="url(#linear-gradient-3)"/>
    <path id="Path_2043" data-name="Path 2043" d="M810.317,1886.419l-19.161-19.188a1.984,1.984,0,0,1,1.365-.5,3.574,3.574,0,0,1,1.736.52l22.446,12.776-6.388,6.4" transform="translate(-774.907 -1855.439)" fill="url(#linear-gradient-4)"/>
    <path id="Path_2044" data-name="Path 2044" d="M792.523,1906.9a1.989,1.989,0,0,1-1.367-.5h0l0,0-.1-.1-.01-.009.115-.115a1.986,1.986,0,0,0,1.367.5,3.557,3.557,0,0,0,1.733-.52l22.447-12.775.143.144-.145.083-22.445,12.776a3.7,3.7,0,0,1-1.587.517h-.141" transform="translate(-774.904 -1856)" fill="url(#linear-gradient-5)"/>
    <path id="Path_2045" data-name="Path 2045" d="M791.026,1906.511a3.108,3.108,0,0,1-.716-2.176v-.226a3.111,3.111,0,0,0,.716,2.175l.115.11-.115.115" transform="translate(-774.889 -1856.226)" fill="url(#linear-gradient-6)"/>
    <path id="Path_2046" data-name="Path 2046" d="M817.4,1893.385l-.144-.145,7.711-4.388a2.889,2.889,0,0,0,1.621-2,1.926,1.926,0,0,1-.179.8,3.319,3.319,0,0,1-1.442,1.435l-7.567,4.3" transform="translate(-775.456 -1855.863)" fill="url(#linear-gradient-7)"/>
    <path id="Path_2047" data-name="Path 2047" d="M826.585,1886.7a2.89,2.89,0,0,0-1.621-2.01l-7.711-4.387.144-.145h0l7.566,4.306a2.722,2.722,0,0,1,1.621,2.236" transform="translate(-775.456 -1855.722)" fill="url(#linear-gradient-8)"/>
    <path id="Path_2048" data-name="Path 2048" d="M790.31,1869.526v-.236c0-.083,0-.167.007-.251h0v-.009a2.958,2.958,0,0,1,.709-1.9l.113.114a3,3,0,0,0-.828,2.283" transform="translate(-774.889 -1855.447)" fill="url(#linear-gradient-9)"/>
    <path id="Path_2049" data-name="Path 2049" d="M816.7,1880.015l-22.446-12.776a3.562,3.562,0,0,0-1.734-.521,1.994,1.994,0,0,0-1.366.5l-.112-.113c.035-.037.071-.074.111-.109h0a1.988,1.988,0,0,1,1.353-.5h.012a3.553,3.553,0,0,1,1.735.522l22.591,12.858h0l-.144.145" transform="translate(-774.904 -1855.434)" fill="url(#linear-gradient-10)"/>
</svg>
