<svg width="34" height="33" viewBox="0 0 34 33" fill="none" xmlns="http://www.w3.org/2000/svg">
    <path d="M19.9627 9.73482e-07C19.4334 1.04231e-06 18.9797 0.281197 18.6017 0.843589C18.2993 1.40598 18.148 2.08085 18.148 2.8682C18.148 3.76803 18.2614 4.66786 18.4883 5.56768L24.4992 28.682C24.8773 29.8068 25.2553 30.7066 25.6333 31.3815C26.087 32.1688 26.8053 32.5625 27.7882 32.5625L31.5309 32.5625C32.1357 32.5625 32.5894 32.2251 32.8918 31.5502C33.2699 30.8753 33.3833 29.9755 33.2321 28.8507L30.737 4.89281C30.6614 3.54307 30.3589 2.36205 29.8297 1.34974C29.3004 0.449914 28.5065 -1.37664e-07 27.448 0L19.9627 9.73482e-07ZM1.81645 3.33345e-06C1.28719 3.40228e-06 0.83353 0.281199 0.455482 0.843591C0.153049 1.40598 0.00183105 2.08085 0.00183105 2.86821C0.00183105 3.76804 0.115246 4.66786 0.342072 5.56768L6.353 28.682C6.73105 29.8068 7.1469 30.7066 7.60056 31.3815C8.05421 32.1688 8.73469 32.5625 9.642 32.5625H13.3847C13.9895 32.5625 14.4432 32.2251 14.7456 31.5502C15.1237 30.8753 15.2371 29.9755 15.0859 28.8507L12.5908 4.89281C12.5152 3.54307 12.2127 2.36205 11.6835 1.34975C11.1542 0.449917 10.3981 2.21738e-06 9.41517 2.34521e-06L1.81645 3.33345e-06Z" fill="#F76907"/>
</svg>
