<svg width="34" height="33" viewBox="0 0 34 33" fill="none" xmlns="http://www.w3.org/2000/svg">
    <path d="M13.8455 9.79552e-07C14.3799 1.04881e-06 14.8379 0.28295 15.2196 0.848849C15.5249 1.41475 15.6776 2.09383 15.6776 2.88609C15.6776 3.79153 15.5631 4.69697 15.3341 5.6024L9.26524 28.8609C8.88356 29.9927 8.50187 30.8981 8.12018 31.5772C7.66215 32.3694 6.93695 32.7656 5.94456 32.7656L2.16584 32.7656C1.55514 32.7656 1.09711 32.426 0.791763 31.7469C0.410076 31.0679 0.295569 30.1624 0.448245 29.0306L2.96739 4.92332C3.04373 3.56516 3.34908 2.37678 3.88344 1.35816C4.41781 0.45272 5.21935 -1.38523e-07 6.28808 0L13.8455 9.79552e-07ZM32.1665 3.35423e-06C32.7009 3.42349e-06 33.1589 0.282953 33.5406 0.848851C33.846 1.41475 33.9986 2.09383 33.9986 2.88609C33.9986 3.79153 33.8841 4.69697 33.6551 5.6024L27.5863 28.8609C27.2046 29.9927 26.7847 30.8981 26.3267 31.5772C25.8687 32.3694 25.1816 32.7656 24.2656 32.7656H20.4869C19.8762 32.7656 19.4182 32.426 19.1128 31.7469C18.7311 31.0679 18.6166 30.1624 18.7693 29.0306L21.2884 4.92332C21.3648 3.56517 21.6701 2.37678 22.2045 1.35816C22.7388 0.452722 23.5022 2.23121e-06 24.4946 2.35983e-06L32.1665 3.35423e-06Z" fill="#F76907"/>
</svg>
