<svg width="20" height="20" viewBox="0 0 20 20" fill="none" xmlns="http://www.w3.org/2000/svg">
<path d="M14.0759 2.2472C15.173 2.25036 16.2242 2.67112 17 3.41761C17.7757 4.16409 18.213 5.17564 18.2162 6.23133V14.1987C18.213 15.2544 17.7757 16.266 17 17.0124C16.2242 17.7589 15.173 18.1797 14.0759 18.1829H5.79618C4.69911 18.1797 3.6479 17.7589 2.87215 17.0124C2.0964 16.266 1.65914 15.2544 1.65586 14.1987V6.23133C1.65914 5.17564 2.0964 4.16409 2.87215 3.41761C3.6479 2.67112 4.69911 2.25036 5.79618 2.2472H14.0759ZM14.0759 0.653809H5.79618C2.60821 0.653809 0 3.16363 0 6.23133V14.1987C0 17.2664 2.60821 19.7762 5.79618 19.7762H14.0759C17.2639 19.7762 19.8721 17.2664 19.8721 14.1987V6.23133C19.8721 3.16363 17.2639 0.653809 14.0759 0.653809Z" fill="white"/>
<path d="M15.3187 6.23161C15.073 6.23161 14.8329 6.16152 14.6286 6.03019C14.4244 5.89887 14.2652 5.71221 14.1712 5.49383C14.0772 5.27544 14.0526 5.03514 14.1005 4.8033C14.1484 4.57146 14.2667 4.35851 14.4404 4.19136C14.6141 4.02422 14.8354 3.91039 15.0764 3.86427C15.3173 3.81816 15.567 3.84183 15.794 3.93228C16.0209 4.02274 16.2149 4.17593 16.3513 4.37247C16.4878 4.56901 16.5607 4.80008 16.5607 5.03646C16.561 5.19351 16.5291 5.34907 16.4668 5.49423C16.4045 5.63938 16.3131 5.77127 16.1977 5.88231C16.0823 5.99336 15.9452 6.08138 15.7944 6.14133C15.6435 6.20127 15.4819 6.23195 15.3187 6.23161ZM9.93678 7.0281C10.5919 7.0281 11.2322 7.21502 11.7769 7.56524C12.3216 7.91546 12.7461 8.41323 12.9968 8.99562C13.2475 9.57801 13.3131 10.2188 13.1853 10.8371C13.0575 11.4554 12.742 12.0233 12.2788 12.469C11.8156 12.9148 11.2254 13.2183 10.5829 13.3413C9.94045 13.4643 9.27449 13.4011 8.66927 13.1599C8.06405 12.9187 7.54676 12.5102 7.18281 11.986C6.81887 11.4619 6.62461 10.8457 6.62461 10.2153C6.62555 9.37029 6.97481 8.56013 7.59576 7.96261C8.21671 7.36509 9.05863 7.029 9.93678 7.0281ZM9.93678 5.4347C8.9542 5.4347 7.99368 5.71508 7.17669 6.24038C6.3597 6.76568 5.72294 7.51231 5.34692 8.38585C4.9709 9.25939 4.87252 10.2206 5.06421 11.148C5.2559 12.0753 5.72906 12.9271 6.42385 13.5957C7.11864 14.2643 8.00386 14.7196 8.96756 14.9041C9.93127 15.0885 10.9302 14.9939 11.838 14.632C12.7457 14.2702 13.5216 13.6574 14.0675 12.8713C14.6134 12.0851 14.9048 11.1608 14.9048 10.2153C14.9048 8.94742 14.3814 7.73145 13.4497 6.83491C12.518 5.93837 11.2544 5.4347 9.93678 5.4347Z" fill="white"/>
</svg>
