<svg width="25" height="25" viewBox="0 0 25 25" fill="none" xmlns="http://www.w3.org/2000/svg">
    <path d="M6.11994 13.3483C6.24288 13.2959 6.3751 13.2686 6.50877 13.2681C6.64243 13.2676 6.77484 13.2939 6.89816 13.3455C7.02149 13.3971 7.13322 13.4728 7.22676 13.5683C7.32029 13.6638 7.39374 13.7771 7.44275 13.9015C7.49175 14.0258 7.51533 14.1587 7.51209 14.2924C7.50884 14.426 7.47884 14.5576 7.42386 14.6795C7.36887 14.8013 7.29002 14.9109 7.19195 15.0017C7.09389 15.0925 6.97862 15.1628 6.85294 15.2083C6.18448 15.4717 5.61076 15.9302 5.20644 16.5241C4.80212 17.118 4.58591 17.8198 4.58594 18.5383V20.2783C4.58594 20.5435 4.69129 20.7979 4.87883 20.9854C5.06637 21.173 5.32072 21.2783 5.58594 21.2783H13.5859C13.8512 21.2783 14.1055 21.173 14.293 20.9854C14.4806 20.7979 14.5859 20.5435 14.5859 20.2783V18.6313C14.5861 17.8898 14.3608 17.1657 13.94 16.5552C13.5193 15.9446 12.9229 15.4763 12.2299 15.2123C12.1035 15.1684 11.9871 15.0996 11.8877 15.0099C11.7884 14.9202 11.708 14.8115 11.6515 14.6902C11.5949 14.5689 11.5633 14.4374 11.5584 14.3037C11.5536 14.1699 11.5757 14.0365 11.6234 13.9114C11.671 13.7863 11.7433 13.6721 11.836 13.5755C11.9286 13.4789 12.0397 13.4018 12.1627 13.3489C12.2857 13.2961 12.418 13.2684 12.5518 13.2676C12.6857 13.2668 12.8184 13.2929 12.9419 13.3443C14.0135 13.7525 14.9358 14.4767 15.5866 15.4208C16.2373 16.365 16.5859 17.4846 16.5859 18.6313V20.2783C16.5859 21.074 16.2699 21.837 15.7073 22.3996C15.1446 22.9622 14.3816 23.2783 13.5859 23.2783H5.58594C4.79029 23.2783 4.02723 22.9622 3.46462 22.3996C2.90201 21.837 2.58594 21.074 2.58594 20.2783V18.5383C2.58608 17.4185 2.92321 16.3246 3.5535 15.399C4.18378 14.4733 5.07804 13.7588 6.11994 13.3483ZM9.58594 3.27832C10.6468 3.27832 11.6642 3.69975 12.4144 4.44989C13.1645 5.20004 13.5859 6.21745 13.5859 7.27832V9.27832C13.5859 10.3392 13.1645 11.3566 12.4144 12.1067C11.6642 12.8569 10.6468 13.2783 9.58594 13.2783C8.52507 13.2783 7.50766 12.8569 6.75751 12.1067C6.00736 11.3566 5.58594 10.3392 5.58594 9.27832V7.27832C5.58594 6.21745 6.00736 5.20004 6.75751 4.44989C7.50766 3.69975 8.52507 3.27832 9.58594 3.27832ZM9.58594 5.27832C9.0555 5.27832 8.5468 5.48903 8.17172 5.86411C7.79665 6.23918 7.58594 6.74789 7.58594 7.27832V9.27832C7.58594 9.80875 7.79665 10.3175 8.17172 10.6925C8.5468 11.0676 9.0555 11.2783 9.58594 11.2783C10.1164 11.2783 10.6251 11.0676 11.0002 10.6925C11.3752 10.3175 11.5859 9.80875 11.5859 9.27832V7.27832C11.5859 6.74789 11.3752 6.23918 11.0002 5.86411C10.6251 5.48903 10.1164 5.27832 9.58594 5.27832ZM18.5859 22.2783C18.3207 22.2783 18.0664 22.173 17.8788 21.9854C17.6913 21.7979 17.5859 21.5435 17.5859 21.2783C17.5859 21.0131 17.6913 20.7587 17.8788 20.5712C18.0664 20.3837 18.3207 20.2783 18.5859 20.2783H19.5859C19.8512 20.2783 20.1055 20.173 20.293 19.9854C20.4806 19.7979 20.5859 19.5435 20.5859 19.2783V17.4403C20.5859 16.7295 20.3622 16.0367 19.9465 15.46C19.5309 14.8834 18.9443 14.4521 18.2699 14.2273C18.1453 14.1858 18.0301 14.1202 17.9308 14.0342C17.8316 13.9481 17.7502 13.8434 17.6914 13.7259C17.6327 13.6085 17.5976 13.4806 17.5882 13.3495C17.5789 13.2185 17.5954 13.0869 17.6369 12.9623C17.6784 12.8377 17.7441 12.7225 17.8301 12.6232C17.9161 12.524 18.0209 12.4426 18.1383 12.3838C18.2558 12.3251 18.3837 12.29 18.5147 12.2806C18.6457 12.2713 18.7773 12.2878 18.9019 12.3293C19.9747 12.6868 20.9078 13.3728 21.569 14.2901C22.2302 15.2074 22.586 16.3095 22.5859 17.4403V19.2783C22.5859 20.074 22.2699 20.837 21.7073 21.3996C21.1446 21.9622 20.3816 22.2783 19.5859 22.2783H18.5859ZM15.5859 4.27832C15.3207 4.27832 15.0664 4.17296 14.8788 3.98543C14.6913 3.79789 14.5859 3.54354 14.5859 3.27832C14.5859 3.0131 14.6913 2.75875 14.8788 2.57121C15.0664 2.38368 15.3207 2.27832 15.5859 2.27832C16.6468 2.27832 17.6642 2.69975 18.4144 3.44989C19.1645 4.20004 19.5859 5.21745 19.5859 6.27832V8.27832C19.5859 9.33919 19.1645 10.3566 18.4144 11.1067C17.6642 11.8569 16.6468 12.2783 15.5859 12.2783C15.3207 12.2783 15.0664 12.173 14.8788 11.9854C14.6913 11.7979 14.5859 11.5435 14.5859 11.2783C14.5859 11.0131 14.6913 10.7587 14.8788 10.5712C15.0664 10.3837 15.3207 10.2783 15.5859 10.2783C16.1164 10.2783 16.6251 10.0676 17.0002 9.69253C17.3752 9.31746 17.5859 8.80875 17.5859 8.27832V6.27832C17.5859 5.74789 17.3752 5.23918 17.0002 4.86411C16.6251 4.48903 16.1164 4.27832 15.5859 4.27832Z" fill="white"/>
</svg>
