<svg width="24" height="25" viewBox="0 0 24 25" fill="none" xmlns="http://www.w3.org/2000/svg">
<path fill-rule="evenodd" clip-rule="evenodd" d="M4.5 9.44043C4.5 5.44731 7.89479 2.26855 12 2.26855C16.1052 2.26855 19.5 5.44731 19.5 9.44043C19.5 11.6916 18.2829 14.4767 16.9495 16.8841C15.5963 19.3275 14.0377 21.5289 13.2019 22.6576C13.064 22.8461 12.8837 22.9996 12.6755 23.1056C12.4663 23.2121 12.2348 23.2676 12 23.2676C11.7652 23.2676 11.5337 23.2121 11.3245 23.1056C11.1163 22.9996 10.9359 22.8461 10.798 22.6576C9.96224 21.5284 8.40373 19.3262 7.05043 16.8825C5.71719 14.475 4.5 11.69 4.5 9.44043ZM12 3.76855C8.65209 3.76855 6 6.34512 6 9.44043C6 11.269 7.03281 13.7544 8.36265 16.1558C9.66887 18.5145 11.1818 20.6545 12 21.7602C12.8181 20.6551 14.3311 18.5158 15.6374 16.1573C16.9671 13.7564 18 11.2707 18 9.44043C18 6.34512 15.3479 3.76855 12 3.76855Z" fill="#F76907"/>
<path fill-rule="evenodd" clip-rule="evenodd" d="M12 8.26855C11.1716 8.26855 10.5 8.94013 10.5 9.76855C10.5 10.597 11.1716 11.2686 12 11.2686C12.8284 11.2686 13.5 10.597 13.5 9.76855C13.5 8.94013 12.8284 8.26855 12 8.26855ZM9 9.76855C9 8.1117 10.3431 6.76855 12 6.76855C13.6569 6.76855 15 8.1117 15 9.76855C15 11.4254 13.6569 12.7686 12 12.7686C10.3431 12.7686 9 11.4254 9 9.76855Z" fill="#F76907"/>
</svg>
