<svg width="144" height="68" viewBox="0 0 144 68" fill="none" xmlns="http://www.w3.org/2000/svg">
<path d="M77.5941 10.8721C86.1878 14.2317 94.5899 17.2924 102.8 20.0539C109.18 22.1986 115.156 23.9911 120.728 25.4314C122.85 25.9788 124.986 26.43 127.136 26.7851C128.559 27.0231 130.001 27.1244 131.443 27.0877C131.798 27.0759 131.821 26.9827 131.512 26.8081C130.903 26.4324 130.273 26.0921 129.625 25.7889L99.8181 12.8203C98.4797 12.2305 97.0548 11.597 95.5436 10.9199C90.7829 8.76817 85.9967 6.64477 81.1851 4.5497C77.8917 3.11759 74.9332 1.90671 72.3097 0.916975C71.4056 0.574874 70.5216 0.279959 69.6577 0.0322303C69.5194 -0.00695231 69.3734 -0.0104752 69.2334 0.0220242C69.0933 0.0545235 68.9639 0.121945 68.8571 0.217992L63.9455 4.64172C63.9222 4.65979 63.9037 4.68338 63.8919 4.71035C63.88 4.73732 63.8751 4.76686 63.8776 4.79621C63.88 4.82556 63.8898 4.85383 63.906 4.87845C63.9222 4.90308 63.9444 4.92325 63.9704 4.93721C64.3505 5.18917 64.7452 5.41843 65.1525 5.62377C68.6956 7.25642 72.8446 9.00235 77.5994 10.8615" fill="#F76907"/>
<path d="M73.6242 12.3269C68.299 10.2318 62.9986 8.03242 57.7053 5.95681C56.4131 5.45191 55.0285 4.88859 53.5516 4.26691C52.0801 3.64936 45.0508 0.374075 43.8881 1.59502C41.8953 3.68892 39.954 5.8282 38.0641 8.01293C37.5907 8.56265 37.1251 9.15895 36.6671 9.80186C36.6528 9.82208 36.6436 9.84542 36.6402 9.8699C36.6367 9.89438 36.6392 9.9193 36.6474 9.94264C36.6555 9.96598 36.6691 9.98709 36.6871 10.0041C36.705 10.0212 36.7267 10.0337 36.7505 10.0408C46.2738 12.7498 55.632 15.7597 65.1163 18.7732C70.6593 20.5332 75.6673 22.0367 80.1405 23.2836C87.8006 25.4188 96.0671 27.39 104.94 29.1973C109.437 30.1151 113.942 30.8759 118.456 31.4799C122.854 32.1494 127.306 32.4053 131.753 32.2443C133.883 32.1311 137.632 31.6799 138.59 29.4008C138.665 29.2238 138.613 29.1743 138.438 29.2468C136.133 30.0845 133.673 30.4101 131.229 30.2006C126.088 29.8029 121.013 28.793 116.112 27.1924C101.343 22.6023 87.1799 17.6425 73.6242 12.3128" fill="white"/>
<path d="M23.6699 22.9805C23.6748 22.9633 23.683 22.9473 23.6942 22.9334C23.7054 22.9195 23.7192 22.9079 23.7349 22.8993C23.7506 22.8908 23.7678 22.8854 23.7856 22.8835C23.8034 22.8817 23.8214 22.8833 23.8385 22.8885C26.855 23.4783 29.856 24.1342 32.8417 24.8561C38.6959 26.2788 44.885 27.7534 51.409 29.2799C58.8206 31.0152 68.0829 32.9451 79.1961 35.0696C90.6019 37.3125 102.129 38.8894 113.72 39.7924C120.074 40.3551 126.472 40.2097 132.795 39.3589C137.277 38.6511 143.759 36.7807 143.967 31.1485C144.14 29.0485 143.619 26.9499 142.483 25.1729C142.293 24.95 142.202 24.9836 142.21 25.2755C142.226 26.2045 142.268 27.1264 142.33 28.0466C142.438 29.0228 142.228 30.0078 141.729 30.8551C141.231 31.7025 140.472 32.367 139.565 32.7499C137.934 33.6492 136.142 34.222 134.291 34.4362C130.598 34.8543 126.869 34.8662 123.174 34.4716C120.485 34.2274 117.339 33.8292 113.736 33.2772C107.819 32.3712 102.253 31.3496 97.0374 30.2124C91.3441 28.9714 84.145 27.163 75.44 24.7872C73.9016 24.3708 72.4023 23.949 70.942 23.522C55.0574 18.913 38.9675 14.4197 22.6723 10.042C18.0891 8.81046 13.0685 7.55472 7.61077 6.27479C5.52846 5.77258 3.42162 5.37745 1.2986 5.09099C0.980655 5.05121 0.659453 5.04411 0.340053 5.06976C0.255879 5.07621 0.176767 5.11232 0.116909 5.17166C0.0570511 5.23101 0.0203562 5.30968 0.0134286 5.39355C-0.0877508 6.52072 1.20273 7.96639 1.90566 8.70427C3.08905 9.95235 4.18013 11.1403 5.17891 12.268C6.09722 13.3085 7.1664 14.6403 8.38647 16.2635C13.8177 23.4963 18.606 31.1873 22.6972 39.2492C25.3413 44.3734 27.6427 49.6663 29.5862 55.0932C30.1921 56.8079 30.7047 58.554 31.1217 60.3238C31.1517 60.5504 31.2605 60.7594 31.4292 60.9142C31.5979 61.0691 31.8157 61.1601 32.0447 61.1714C32.0945 61.1749 32.1438 61.1601 32.1834 61.1298C32.223 61.0994 32.2501 61.0557 32.2595 61.0069C32.3511 60.4872 32.385 59.959 32.3607 59.432C32.2894 57.9261 32.1317 56.4254 31.8885 54.9375C30.6409 47.4103 28.9817 39.9568 26.9183 32.6101C26.6816 31.7843 26.4082 30.9621 26.0982 30.1434C25.187 27.7841 24.377 25.4755 23.6681 23.2176C23.6399 23.1399 23.6399 23.0547 23.6681 22.977" fill="#F76907"/>
<path d="M125.747 53.6429L131.299 53.6287C131.314 53.629 131.328 53.6262 131.342 53.6207C131.356 53.6152 131.368 53.607 131.379 53.5966C131.389 53.5862 131.397 53.5738 131.403 53.5602C131.408 53.5466 131.411 53.532 131.411 53.5173L131.478 41.6245C131.472 41.576 131.477 41.5267 131.493 41.4803C131.508 41.4339 131.534 41.3916 131.568 41.3563C131.602 41.3211 131.643 41.2939 131.689 41.2766C131.735 41.2593 131.784 41.2525 131.833 41.2565L132.778 41.2317C132.822 41.2235 132.868 41.2261 132.911 41.2393C132.955 41.2524 132.994 41.2757 133.027 41.3073C133.059 41.3388 133.084 41.3776 133.098 41.4205C133.113 41.4634 133.117 41.5091 133.11 41.5538L133.074 55.0018C133.077 55.0257 133.074 55.0498 133.066 55.0724C133.058 55.095 133.045 55.1156 133.028 55.1325C133.011 55.1495 132.99 55.1624 132.967 55.1704C132.945 55.1784 132.92 55.1813 132.896 55.1788L125.498 55.2372C125.444 55.233 125.39 55.2487 125.346 55.2813C125.303 55.3139 125.273 55.3611 125.262 55.4141C125.169 56.1704 124.913 56.8974 124.509 57.5444C124.106 58.1914 123.565 58.7429 122.926 59.1602C121.58 59.8164 120.046 59.9805 118.591 59.6238C118.516 59.6066 118.449 59.5656 118.399 59.5068C118.349 59.4481 118.32 59.3749 118.316 59.2982L118.281 58.2206C118.281 58.102 118.334 58.0436 118.458 58.056C120.679 58.21 123.251 58.3515 123.462 55.4018C123.464 55.3799 123.461 55.3579 123.454 55.337C123.447 55.3162 123.436 55.2969 123.421 55.2804C123.407 55.2639 123.389 55.2506 123.369 55.241C123.349 55.2315 123.328 55.2259 123.306 55.2248C122.45 55.1765 121.556 55.1269 120.622 55.0762C119.895 55.0705 119.189 54.8319 118.609 54.3957C118.028 53.9595 117.604 53.3488 117.398 52.6537C117.02 51.6694 116.914 50.6019 117.091 49.5628C117.268 48.5236 117.721 47.5507 118.403 46.7454C118.887 46.3173 119.463 46.0044 120.087 45.8303C120.71 45.6562 121.365 45.6255 122.002 45.7405C122.639 45.8556 123.242 46.1133 123.764 46.4942C124.287 46.8752 124.716 47.3695 125.019 47.9398C125.284 48.5809 125.434 49.2639 125.461 49.9571C125.509 51.0659 125.532 52.2196 125.528 53.4182C125.528 53.4765 125.551 53.5325 125.593 53.574C125.634 53.6154 125.69 53.6389 125.748 53.6394M121.209 47.2798C118.989 47.432 118.52 49.8969 118.872 51.7036C119.307 53.9508 121.845 53.8127 123.544 53.6057C123.577 53.6013 123.608 53.5868 123.633 53.564C123.658 53.5412 123.675 53.5112 123.682 53.4783C124.003 52.0763 123.967 50.6166 123.579 49.2316C123.455 48.6918 123.155 48.2082 122.727 47.8561C122.298 47.504 121.765 47.3032 121.209 47.2851V47.2798Z" fill="white"/>
<path d="M61.6174 43.2607V44.9824C61.6174 45.0111 61.6116 45.0396 61.6003 45.066C61.5891 45.0925 61.5727 45.1163 61.552 45.1363C61.5313 45.1563 61.5068 45.1719 61.4799 45.1823C61.453 45.1926 61.4243 45.1974 61.3955 45.1965L60.2257 45.1646C60.1965 45.1637 60.1677 45.157 60.1412 45.1447C60.1147 45.1325 60.0909 45.115 60.0713 45.0933C60.0517 45.0717 60.0367 45.0463 60.0273 45.0187C60.0178 44.9911 60.0141 44.9619 60.0162 44.9329L60.1441 43.2483C60.1477 43.194 60.1719 43.1431 60.2118 43.106C60.2517 43.0688 60.3042 43.0482 60.3588 43.0483H61.4079C61.4655 43.0483 61.5208 43.071 61.5617 43.1115C61.6026 43.1519 61.6258 43.2068 61.6262 43.2642L61.6174 43.2607Z" fill="white"/>
<path d="M76.4297 45.1262L76.5237 43.1798C76.5256 43.1404 76.5427 43.1032 76.5715 43.0761C76.6003 43.049 76.6386 43.0342 76.6782 43.0347L77.8479 43.047C77.8682 43.0473 77.8882 43.0516 77.9068 43.0597C77.9254 43.0678 77.9421 43.0795 77.9561 43.0942C77.97 43.1089 77.9808 43.1263 77.9878 43.1452C77.9949 43.1642 77.998 43.1844 77.9971 43.2046L77.9101 45.1368C77.9087 45.1761 77.892 45.2133 77.8634 45.2404C77.8349 45.2675 77.7968 45.2824 77.7574 45.2819H76.5806C76.56 45.2822 76.5396 45.2782 76.5206 45.2704C76.5016 45.2625 76.4844 45.2508 76.4701 45.2361C76.4558 45.2213 76.4447 45.2038 76.4374 45.1846C76.4302 45.1654 76.4269 45.1449 76.4279 45.1244L76.4297 45.1262Z" fill="white"/>
<path d="M81.3119 44.9986C81.3112 45.0372 81.3029 45.0753 81.2874 45.1106C81.272 45.146 81.2497 45.178 81.2218 45.2048C81.194 45.2315 81.1611 45.2526 81.1251 45.2667C81.0891 45.2808 81.0506 45.2878 81.0119 45.2871L80.0179 45.2676C79.9792 45.2669 79.941 45.2586 79.9055 45.2432C79.8701 45.2278 79.8379 45.2056 79.8111 45.1778C79.7842 45.15 79.7631 45.1173 79.7489 45.0814C79.7348 45.0455 79.7279 45.0071 79.7286 44.9685L79.7605 43.33C79.7612 43.2914 79.7695 43.2533 79.785 43.218C79.8004 43.1826 79.8227 43.1506 79.8506 43.1238C79.8784 43.097 79.9113 43.076 79.9473 43.0619C79.9833 43.0477 80.0218 43.0408 80.0605 43.0416L81.0563 43.061C81.095 43.0617 81.1332 43.07 81.1687 43.0854C81.2042 43.1008 81.2363 43.123 81.2631 43.1508C81.29 43.1786 81.3111 43.2113 81.3253 43.2472C81.3394 43.2831 81.3464 43.3215 81.3457 43.36L81.3137 44.9986H81.3119Z" fill="white"/>
<path d="M52.282 54.2471L51.7796 55.0647C51.761 55.0958 51.7352 55.122 51.7043 55.1411C51.6734 55.1602 51.6384 55.1716 51.6021 55.1744C50.2475 55.2533 48.8893 55.2474 47.5354 55.1567C45.9485 55.0594 42.4126 54.9956 42.9504 57.6339C43.0802 58.2682 43.2485 58.894 43.4545 59.5079C43.4936 59.6229 43.4545 59.6848 43.3303 59.6848L42.2066 59.7096C42.1615 59.7125 42.1165 59.7029 42.0764 59.682C42.0363 59.6611 42.0028 59.6297 41.9794 59.591C40.0269 56.5564 42.157 53.6066 45.5296 53.5995C46.6858 53.5995 47.9112 53.6196 49.2058 53.6597C49.57 53.6697 49.9344 53.6597 50.2974 53.6296C50.3587 53.6306 50.4181 53.608 50.4631 53.5665C50.508 53.5249 50.5352 53.4677 50.5389 53.4067C50.7241 52.1977 50.671 50.9644 50.3827 49.7757C50.3273 49.3873 50.1929 49.0142 49.9879 48.6793C49.7829 48.3444 49.5115 48.0546 49.1903 47.8279C48.8692 47.6011 48.5049 47.4421 48.12 47.3605C47.735 47.2788 47.3374 47.2764 46.9514 47.3532C46.3264 47.4295 45.7374 47.6862 45.2568 48.0917C44.7762 48.4973 44.4249 49.034 44.2462 49.6359C44.2138 49.7391 44.1506 49.83 44.0649 49.8964C43.9792 49.9628 43.8753 50.0016 43.7669 50.0075L42.8368 50.0517C42.6398 50.0605 42.5617 49.9703 42.6007 49.7792C43.6888 44.2938 51.9696 44.3876 52.2163 50.2411C52.2447 50.9052 52.3092 51.5965 52.4098 52.3149C52.5482 53.3023 53.4837 53.5535 54.3855 53.6066C55.5363 53.6868 56.6908 53.701 57.8433 53.6491C58.1348 53.6716 58.4277 53.631 58.7019 53.5301C58.9762 53.4292 59.2253 53.2703 59.4322 53.0644C59.6391 52.8585 59.7989 52.6104 59.9006 52.3372C60.0022 52.064 60.0435 51.772 60.0213 51.4815C60.0497 50.5377 60.0397 49.1622 59.9912 47.355C59.9822 47.3088 59.9842 47.261 59.9972 47.2157C60.0102 47.1704 60.0338 47.1289 60.066 47.0944C60.0982 47.0599 60.1381 47.0334 60.1824 47.0172C60.2268 47.001 60.2744 46.9955 60.3213 47.0011L61.2479 46.971C61.2918 46.9628 61.337 46.9652 61.3798 46.9781C61.4226 46.9909 61.4616 47.0139 61.4936 47.0449C61.5256 47.076 61.5497 47.1142 61.5638 47.1565C61.5779 47.1988 61.5816 47.2438 61.5745 47.2878C61.5745 48.3377 61.5745 49.4194 61.5745 50.533C61.5745 51.9114 61.7964 53.1554 63.4241 53.4527C64.8598 53.7273 66.3339 53.7368 67.7731 53.481C67.9766 53.4544 68.1725 53.3862 68.3483 53.2805C68.5242 53.1749 68.6762 53.0342 68.7949 52.8672C68.9136 52.7002 68.9964 52.5105 69.038 52.3101C69.0797 52.1097 69.0793 51.9029 69.0369 51.7026C68.96 50.2988 68.9511 48.8325 69.0103 47.3037C69.0082 47.2782 69.0116 47.2526 69.0204 47.2285C69.0292 47.2045 69.0431 47.1827 69.0611 47.1645C69.0792 47.1464 69.101 47.1323 69.125 47.1233C69.149 47.1144 69.1747 47.1107 69.2002 47.1126L70.4854 47.04C70.6043 47.04 70.6629 47.0896 70.6629 47.2081C70.6629 48.5447 70.6748 49.8712 70.6984 51.1877C70.6742 51.4683 70.7061 51.7509 70.7925 52.019C70.8788 52.2871 71.0178 52.5354 71.2013 52.7495C71.3849 52.9636 71.6093 53.1391 71.8615 53.2659C72.1137 53.3927 72.3887 53.4682 72.6705 53.4881C73.8553 53.6578 75.0533 53.717 76.2491 53.665C77.8076 53.6119 78.2461 52.4794 78.2123 51.1311C78.1745 49.7273 78.165 48.4196 78.1839 47.2081C78.1796 47.1805 78.1819 47.1523 78.1907 47.1257C78.1995 47.0992 78.2144 47.075 78.2343 47.0554C78.2543 47.0357 78.2786 47.021 78.3053 47.0125C78.332 47.004 78.3604 47.0019 78.3881 47.0064L79.5507 46.9764C79.5766 46.9737 79.6027 46.9767 79.6272 46.9852C79.6518 46.9937 79.6741 47.0074 79.6927 47.0255C79.7114 47.0435 79.7258 47.0655 79.735 47.0897C79.7442 47.1139 79.7479 47.1399 79.746 47.1657C79.7531 48.146 79.7708 49.2124 79.7992 50.3649C79.8401 51.9486 80.1738 53.4668 82.082 53.6632C83.0395 53.8033 84.0149 53.7631 84.9576 53.5447C85.499 53.3447 85.7369 52.2707 85.7351 51.8336C85.7351 50.7507 85.7351 49.5421 85.7351 48.2079C85.7302 48.1656 85.7345 48.1227 85.7478 48.0823C85.7611 48.0418 85.7829 48.0047 85.8119 47.9735C85.8409 47.9422 85.8763 47.9176 85.9158 47.9012C85.9552 47.8849 85.9977 47.8772 86.0404 47.8788L87.077 47.8044C87.2634 47.7903 87.3557 47.877 87.3522 48.0646C87.3356 49.1263 87.3279 50.2051 87.3291 51.301C87.3235 51.7807 87.4165 52.2564 87.6025 52.6988C87.7916 53.008 88.0578 53.2632 88.3751 53.4395C88.6924 53.6157 89.0501 53.7072 89.4134 53.7049C89.7766 53.7026 90.1331 53.6065 90.4482 53.4262C90.7632 53.2459 91.0261 52.9874 91.2112 52.6758C91.3913 52.2209 91.4724 51.7329 91.4491 51.2443C91.4029 50.0753 91.3982 48.9163 91.4349 47.7673C91.4326 47.7371 91.4367 47.7068 91.4469 47.6783C91.4571 47.6497 91.4732 47.6237 91.4941 47.6017C91.5149 47.5797 91.5402 47.5623 91.5682 47.5506C91.5962 47.5389 91.6264 47.5332 91.6567 47.5337L92.9135 47.4347C93.0537 47.4223 93.1194 47.4859 93.1105 47.6275C92.9886 49.063 93.0017 50.5067 93.1496 51.9398C93.3786 53.8561 95.4803 54.1339 96.8311 53.1483C96.9666 53.0618 97.0794 52.9442 97.16 52.8054C97.2406 52.6665 97.2867 52.5105 97.2944 52.3503C97.3394 51.0621 97.3684 49.3799 97.3814 47.3037C97.3789 47.283 97.3811 47.2619 97.3878 47.2421C97.3946 47.2224 97.4057 47.2044 97.4203 47.1894C97.435 47.1745 97.4528 47.163 97.4725 47.1558C97.4921 47.1487 97.5132 47.146 97.534 47.148L98.9541 47.102C98.9709 47.1017 98.9877 47.1049 99.0033 47.1112C99.0189 47.1175 99.0331 47.1269 99.045 47.1387C99.0569 47.1506 99.0663 47.1647 99.0726 47.1803C99.079 47.1959 99.0821 47.2126 99.0819 47.2294C99.0251 49.0343 99.0304 50.6227 99.0979 51.9946C99.1582 53.2828 100.207 53.6668 101.315 53.6756C104.231 53.6968 107.174 53.7163 110.144 53.734C111.005 53.7359 111.865 53.6946 112.722 53.6102C112.74 53.6105 112.759 53.6069 112.776 53.5996C112.793 53.5922 112.808 53.5813 112.821 53.5675C112.833 53.5538 112.842 53.5375 112.848 53.5198C112.854 53.5021 112.855 53.4835 112.853 53.4651C112.962 51.6932 112.443 49.9394 111.387 48.5105C110.944 47.9955 110.359 47.6226 109.704 47.4387C109.049 47.2548 108.354 47.2682 107.707 47.4771C106.597 47.9262 105.686 48.7601 105.144 49.8252C105.111 49.8779 105.066 49.9218 105.012 49.9526C104.958 49.9835 104.897 50.0006 104.835 50.0022L103.74 50.0659C103.639 50.0659 103.594 50.0234 103.608 49.9243C103.737 49.1801 104.031 48.474 104.469 47.8574C104.906 47.2408 105.476 46.7293 106.137 46.3601C106.798 45.9909 107.533 45.7732 108.289 45.7231C109.045 45.673 109.802 45.7916 110.506 46.0703C111.396 46.3752 112.186 46.9146 112.793 47.6312C113.399 48.3478 113.8 49.2148 113.952 50.1402C114.262 51.5263 114.552 53.1029 114.823 54.87C114.853 55.07 114.77 55.1708 114.566 55.1726C109.779 55.1962 105.351 55.2003 101.281 55.185C100.776 55.1945 100.276 55.075 99.8298 54.8377C99.3837 54.6005 99.0058 54.2535 98.7322 53.8296C98.7217 53.8111 98.7068 53.7955 98.6888 53.7841C98.6708 53.7728 98.6503 53.766 98.6291 53.7644C98.6078 53.7629 98.5865 53.7665 98.5671 53.7751C98.5476 53.7837 98.5305 53.7969 98.5174 53.8136C98.0268 54.3258 97.4384 54.7349 96.7867 55.0169C96.0886 55.2274 95.3467 55.2477 94.6381 55.0756C93.9295 54.9035 93.28 54.5454 92.7573 54.0384C92.7038 53.9923 92.6354 53.9669 92.5647 53.9669C92.494 53.9669 92.4256 53.9923 92.3721 54.0384C90.8154 55.3867 88.7084 55.8733 87.2368 54.0154C87.2247 53.9996 87.2094 53.9866 87.1918 53.9772C87.1742 53.9679 87.1548 53.9625 87.1349 53.9613C87.115 53.9601 87.0951 53.9633 87.0766 53.9704C87.058 53.9776 87.0412 53.9887 87.0273 54.003C86.7741 54.3705 86.4368 54.6727 86.0433 54.8847C85.6498 55.0967 85.2113 55.2124 84.7641 55.2222C83.5654 55.2222 82.5246 55.1927 81.6418 55.1337C80.7823 54.9337 80.0086 54.4672 79.4318 53.8013C79.4048 53.7783 79.3733 53.7611 79.3394 53.7507C79.3054 53.7404 79.2697 53.7371 79.2344 53.7411C79.1991 53.745 79.165 53.7562 79.1342 53.7739C79.1035 53.7915 79.0766 53.8153 79.0555 53.8437C78.75 54.2755 78.3422 54.6253 77.8684 54.8621C77.3946 55.0989 76.8694 55.2153 76.3396 55.2009C75.1018 55.2009 73.9604 55.2009 72.9155 55.2009C71.9225 55.0457 71.0138 54.5531 70.3434 53.8066C70.3215 53.7825 70.2942 53.7639 70.2636 53.7524C70.2331 53.741 70.2003 53.7368 70.1679 53.7405C70.1355 53.7441 70.1044 53.7553 70.0772 53.7733C70.05 53.7912 70.0275 53.8154 70.0115 53.8437C69.7251 54.2498 69.347 54.5829 68.9076 54.8163C68.4681 55.0496 67.9797 55.1765 67.482 55.1868C66.4358 55.1986 65.3324 55.208 64.1715 55.215C62.6609 55.2239 62.2668 54.5232 61.2017 53.773C61.1847 53.7576 61.1645 53.746 61.1426 53.7391C61.1206 53.7321 61.0975 53.7298 61.0746 53.7325C61.0517 53.7352 61.0297 53.7427 61.01 53.7546C60.9903 53.7664 60.9734 53.7824 60.9603 53.8013C60.7022 54.1688 60.3693 54.478 59.9833 54.7088C59.5974 54.9396 59.167 55.0867 58.7202 55.1407C57.5049 55.208 56.1966 55.2416 54.7955 55.2416C54.3573 55.2502 53.9224 55.1647 53.5203 54.9909C53.1181 54.8172 52.7582 54.5594 52.4648 54.2348C52.3974 54.1622 52.337 54.1675 52.2873 54.2507L52.282 54.2471Z" fill="white"/>
<path d="M48.351 56.7404L48.3954 58.2639C48.3954 58.3108 48.3767 58.3558 48.3434 58.389C48.3101 58.4222 48.2649 58.4409 48.2179 58.4409L47.1262 58.4922C47.0791 58.4922 47.034 58.4735 47.0007 58.4403C46.9674 58.4071 46.9487 58.3621 46.9487 58.3152L46.9238 56.8147C46.9237 56.7698 46.9407 56.7266 46.9713 56.6937C47.002 56.6609 47.044 56.6409 47.0889 56.6377L48.1539 56.5634C48.1783 56.5617 48.2027 56.565 48.2257 56.5731C48.2487 56.5813 48.2698 56.5941 48.2876 56.6107C48.3054 56.6273 48.3196 56.6473 48.3293 56.6696C48.339 56.692 48.344 56.7161 48.3439 56.7404H48.351Z" fill="white"/>
<path d="M66.984 59.0764C66.9845 59.1089 66.9724 59.1402 66.9502 59.164C66.9281 59.1877 66.8976 59.202 66.8651 59.2038L65.5391 59.2498C65.5064 59.2508 65.4747 59.2389 65.4508 59.2167C65.4269 59.1945 65.4127 59.1638 65.4113 59.1313L65.3438 57.2043C65.3428 57.1718 65.3548 57.1401 65.3771 57.1163C65.3993 57.0924 65.4301 57.0783 65.4628 57.0769L66.7888 57.0309C66.805 57.0302 66.8212 57.0327 66.8364 57.0383C66.8517 57.0439 66.8657 57.0525 66.8775 57.0635C66.8894 57.0745 66.899 57.0878 66.9057 57.1025C66.9124 57.1173 66.9161 57.1333 66.9166 57.1495L66.984 59.0764Z" fill="white"/>
<path d="M70.2623 59.1188C70.263 59.132 70.2611 59.1452 70.2567 59.1576C70.2522 59.17 70.2453 59.1814 70.2364 59.1911C70.2275 59.2008 70.2167 59.2086 70.2047 59.2142C70.1926 59.2197 70.1797 59.2228 70.1665 59.2232L68.8689 59.271C68.8423 59.2719 68.8165 59.2625 68.7969 59.2446C68.7773 59.2267 68.7655 59.2019 68.7641 59.1754L68.6896 57.1688C68.6889 57.1557 68.6908 57.1425 68.6952 57.1301C68.6997 57.1177 68.7066 57.1063 68.7155 57.0966C68.7245 57.0869 68.7352 57.079 68.7472 57.0735C68.7592 57.068 68.7722 57.0649 68.7854 57.0645L70.083 57.0167C70.1096 57.0157 70.1354 57.0252 70.155 57.0431C70.1746 57.061 70.1864 57.0858 70.1878 57.1122L70.2623 59.1188Z" fill="white"/>
<path d="M109.164 59.099C109.165 59.1135 109.162 59.1278 109.157 59.1413C109.152 59.1548 109.145 59.1672 109.135 59.1777C109.125 59.1882 109.113 59.1967 109.1 59.2026C109.087 59.2086 109.072 59.2118 109.058 59.2123L107.703 59.253C107.689 59.2537 107.674 59.2515 107.661 59.2465C107.647 59.2415 107.635 59.2339 107.624 59.224C107.614 59.214 107.605 59.2021 107.599 59.1889C107.593 59.1756 107.59 59.1613 107.59 59.1468L107.531 57.1862C107.531 57.1718 107.533 57.1575 107.538 57.144C107.543 57.1305 107.551 57.1181 107.561 57.1076C107.571 57.0971 107.583 57.0886 107.596 57.0827C107.609 57.0767 107.623 57.0735 107.638 57.073L108.992 57.0323C109.007 57.0318 109.021 57.0342 109.035 57.0393C109.048 57.0443 109.061 57.052 109.071 57.0619C109.082 57.0717 109.09 57.0836 109.096 57.0967C109.102 57.1098 109.105 57.124 109.106 57.1385L109.164 59.099Z" fill="white"/>
<path d="M68.0864 67.179L68.1094 67.8124C68.1099 67.8314 68.1067 67.8503 68.0997 67.868C68.0928 67.8857 68.0825 67.9018 68.0692 67.9155C68.056 67.9291 68.0402 67.94 68.0228 67.9475C68.0053 67.9551 67.9865 67.9591 67.9675 67.9593H64.1244C64.0867 67.9593 64.0507 67.9444 64.024 67.9178C63.9974 67.8913 63.9824 67.8553 63.9824 67.8178V62.2563C63.9824 62.2193 63.9969 62.1838 64.0227 62.1574C64.0486 62.1309 64.0838 62.1156 64.1209 62.1147L65.0279 62.0899C65.047 62.0892 65.0661 62.0923 65.0839 62.0991C65.1018 62.1059 65.1181 62.1163 65.1318 62.1295C65.1456 62.1427 65.1565 62.1585 65.1639 62.1761C65.1714 62.1936 65.1753 62.2124 65.1753 62.2315L65.1664 66.9189C65.1664 66.9378 65.1702 66.9564 65.1775 66.9739C65.1849 66.9913 65.1957 67.0071 65.2092 67.0202C65.2228 67.0334 65.2389 67.0438 65.2565 67.0507C65.2742 67.0576 65.293 67.0609 65.3119 67.0604L67.9462 67.0374C67.9644 67.0369 67.9824 67.04 67.9994 67.0465C68.0164 67.053 68.032 67.0628 68.0451 67.0753C68.0583 67.0878 68.0689 67.1028 68.0763 67.1193C68.0837 67.1359 68.0877 67.1538 68.0882 67.1719L68.0864 67.179Z" fill="white"/>
<path d="M79.2473 65.6985H78.2727C78.2489 65.7007 78.2248 65.6976 78.2023 65.6895C78.1798 65.6814 78.1593 65.6684 78.1424 65.6515C78.1255 65.6347 78.1125 65.6142 78.1043 65.5918C78.0962 65.5693 78.093 65.5453 78.0952 65.5216V64.9482C78.0926 64.9261 78.0951 64.9036 78.1025 64.8826C78.1099 64.8615 78.122 64.8424 78.138 64.8267C78.1539 64.811 78.1731 64.7992 78.1944 64.792C78.2156 64.7849 78.2381 64.7826 78.2603 64.7855H80.4952C80.5311 64.785 80.5658 64.7987 80.5917 64.8235C80.6176 64.8483 80.6327 64.8823 80.6336 64.9182C80.646 65.5587 80.6496 66.1975 80.6478 66.8363C80.6545 66.9557 80.6257 67.0745 80.5651 67.1777C80.5045 67.2809 80.4147 67.364 80.307 67.4167C79.4944 67.8607 78.5667 68.0506 77.6444 67.9617C77.0568 67.923 76.4996 67.688 76.0625 67.2947C75.6254 66.9014 75.3341 66.3728 75.2356 65.7941C75.0844 65.3109 75.0646 64.7963 75.1781 64.303C75.2915 63.8096 75.5342 63.3551 75.8814 62.9857C76.2286 62.6164 76.6679 62.3455 77.1544 62.2007C77.641 62.0559 78.1573 62.0423 78.6509 62.1613C79.0619 62.1998 79.4542 62.3512 79.7842 62.5986C80.1142 62.846 80.3688 63.1797 80.52 63.5627C80.5328 63.5925 80.5387 63.6248 80.5371 63.6572C80.5356 63.6896 80.5267 63.7211 80.5112 63.7496C80.4956 63.778 80.4738 63.8026 80.4474 63.8214C80.4209 63.8402 80.3905 63.8528 80.3585 63.8582L79.6804 63.9733C79.6198 63.9868 79.5564 63.9799 79.5002 63.9536C79.444 63.9273 79.3981 63.8832 79.3698 63.8282C79.2776 63.6437 79.1474 63.4808 78.9879 63.3498C78.8284 63.2188 78.643 63.1227 78.4438 63.0678C78.2445 63.0129 78.036 63.0003 77.8316 63.0311C77.6272 63.0618 77.4315 63.135 77.2574 63.246C76.8673 63.5104 76.5747 63.8948 76.4244 64.3406C76.2741 64.7863 76.2743 65.2688 76.4249 65.7144C76.4624 65.968 76.5596 66.2091 76.7086 66.4179C76.8576 66.6268 77.0541 66.7975 77.2819 66.9161C77.5098 67.0347 77.7626 67.0978 78.0197 67.1002C78.2768 67.1026 78.5308 67.0444 78.7609 66.9301C78.8789 66.9103 78.9914 66.8653 79.0904 66.7982C79.1894 66.7311 79.2727 66.6435 79.3345 66.5414C79.3964 66.4392 79.4354 66.3249 79.4488 66.2063C79.4623 66.0877 79.4498 65.9676 79.4123 65.8543C79.4099 65.8334 79.4034 65.8133 79.3932 65.795C79.3829 65.7767 79.3692 65.7606 79.3527 65.7476C79.3362 65.7346 79.3173 65.725 79.2971 65.7193C79.2768 65.7136 79.2557 65.712 79.2348 65.7144L79.2473 65.6985Z" fill="white"/>
<path d="M82.9269 67.8245C82.9269 67.8639 82.9112 67.9017 82.8832 67.9295C82.8552 67.9574 82.8173 67.9731 82.7778 67.9731H81.8991C81.8595 67.9731 81.8216 67.9574 81.7937 67.9295C81.7657 67.9017 81.75 67.8639 81.75 67.8245L81.7589 62.2541C81.7589 62.2147 81.7746 62.1769 81.8025 62.149C81.8305 62.1211 81.8684 62.1055 81.908 62.1055H82.7866C82.8063 62.1052 82.8258 62.1089 82.844 62.1163C82.8622 62.1237 82.8787 62.1346 82.8926 62.1485C82.9065 62.1623 82.9175 62.1788 82.9249 62.197C82.9323 62.2151 82.936 62.2345 82.9358 62.2541L82.9269 67.8245Z" fill="white"/>
<path d="M90.836 63.0362L89.4763 63.0274C89.4293 63.0274 89.3841 63.0088 89.3508 62.9756C89.3175 62.9424 89.2988 62.8974 89.2988 62.8505V62.2824C89.2988 62.2355 89.3175 62.1905 89.3508 62.1573C89.3841 62.1241 89.4293 62.1055 89.4763 62.1055L93.7365 62.1179C93.7598 62.1179 93.7829 62.1224 93.8045 62.1313C93.826 62.1402 93.8456 62.1532 93.862 62.1697C93.8785 62.1861 93.8916 62.2056 93.9006 62.2271C93.9095 62.2485 93.914 62.2716 93.914 62.2948V62.8522C93.914 62.8754 93.9095 62.8984 93.9006 62.9199C93.8916 62.9414 93.8785 62.9609 93.862 62.9773C93.8456 62.9937 93.826 63.0068 93.8045 63.0157C93.7829 63.0246 93.7598 63.0291 93.7365 63.0291L92.2863 63.0168C92.263 63.0168 92.2399 63.0213 92.2184 63.0302C92.1968 63.0391 92.1773 63.0522 92.1608 63.0686C92.1443 63.0851 92.1312 63.1046 92.1223 63.126C92.1134 63.1475 92.1088 63.1705 92.1088 63.1937V67.8068C92.1088 67.8537 92.0901 67.8987 92.0568 67.9319C92.0235 67.9651 91.9783 67.9837 91.9313 67.9837L91.1733 67.9997C91.1262 67.9997 91.0811 67.981 91.0478 67.9478C91.0145 67.9147 90.9958 67.8696 90.9958 67.8227V63.222C90.9958 63.1751 90.9771 63.1301 90.9438 63.0969C90.9106 63.0637 90.8654 63.0451 90.8183 63.0451L90.836 63.0362Z" fill="white"/>
<path d="M95.6994 67.8265C95.6994 67.8683 95.6828 67.9084 95.6532 67.9379C95.6235 67.9674 95.5834 67.984 95.5415 67.984H94.6716C94.6297 67.984 94.5896 67.9674 94.5599 67.9379C94.5303 67.9084 94.5137 67.8683 94.5137 67.8265V62.2615C94.5137 62.2197 94.5303 62.1797 94.5599 62.1501C94.5896 62.1206 94.6297 62.104 94.6716 62.104H95.5415C95.5834 62.104 95.6235 62.1206 95.6532 62.1501C95.6828 62.1797 95.6994 62.2197 95.6994 62.2615V67.8265Z" fill="white"/>
<path d="M97.8188 67.9612H96.8674C96.8473 67.9608 96.8281 67.9526 96.8139 67.9384C96.7997 67.9243 96.7915 67.9052 96.791 67.8851V62.1732C96.7908 62.1629 96.7927 62.1525 96.7966 62.1429C96.8006 62.1333 96.8065 62.1247 96.8141 62.1175C96.8216 62.1103 96.8305 62.1049 96.8403 62.1014C96.8501 62.0978 96.8606 62.0964 96.8709 62.0971L97.92 62.1148C97.9325 62.1149 97.9448 62.1182 97.9557 62.1244C97.9666 62.1306 97.9757 62.1395 97.9821 62.1502L100.272 65.8343C100.28 65.8487 100.294 65.8598 100.309 65.8661C100.325 65.8723 100.342 65.8733 100.358 65.8689C100.374 65.8644 100.388 65.8549 100.398 65.8416C100.409 65.8283 100.414 65.8121 100.414 65.7954L100.396 62.1821C100.397 62.162 100.405 62.143 100.419 62.1288C100.433 62.1146 100.452 62.1064 100.473 62.106L101.431 62.0918C101.451 62.0922 101.47 62.1004 101.485 62.1146C101.499 62.1288 101.507 62.1479 101.507 62.1679V67.917C101.507 67.9375 101.498 67.9568 101.483 67.971C101.468 67.9852 101.448 67.9931 101.428 67.9931L100.347 67.9489C100.334 67.9473 100.323 67.9432 100.312 67.9368C100.302 67.9304 100.293 67.9218 100.286 67.9116L98.0247 64.2842C98.0162 64.2699 98.0032 64.2587 97.9876 64.2524C97.9721 64.2462 97.955 64.2452 97.9388 64.2496C97.9227 64.254 97.9084 64.2636 97.8983 64.2769C97.8882 64.2902 97.8827 64.3065 97.8827 64.3232L97.8916 67.8798C97.8911 67.8999 97.8829 67.919 97.8687 67.9331C97.8545 67.9473 97.8354 67.9555 97.8153 67.9559L97.8188 67.9612Z" fill="white"/>
<path d="M74.3722 65.4113C74.3708 66.0868 74.1004 66.734 73.6204 67.2108C73.1404 67.6877 72.4902 67.955 71.8125 67.9541H71.3262C70.6486 67.9526 69.9993 67.683 69.5209 67.2046C69.0426 66.7261 68.7745 66.0779 68.7754 65.4024V64.6716C68.7768 63.9961 69.0473 63.3489 69.5272 62.8721C70.0072 62.3953 70.6575 62.128 71.3351 62.1289H71.8214C72.499 62.1303 73.1484 62.3999 73.6267 62.8783C74.105 63.3568 74.3732 64.005 74.3722 64.6805V65.4113ZM71.5676 67.0799C71.9909 67.174 72.4332 67.1349 72.8333 66.9679C73.2334 66.8009 73.5717 66.5144 73.8015 66.1477C74.0314 65.781 74.1415 65.3523 74.1167 64.9206C74.0919 64.489 73.9334 64.0756 73.663 63.7375C73.3926 63.3994 73.0236 63.1533 72.607 63.033C72.1904 62.9127 71.7466 62.9241 71.3368 63.0658C70.927 63.2075 70.5714 63.4724 70.3189 63.824C70.0665 64.1757 69.9298 64.5967 69.9274 65.0291C69.8782 65.5167 70.0222 66.0041 70.3287 66.3873C70.6352 66.7705 71.0798 67.0191 71.5676 67.0799Z" fill="white"/>
<path d="M84.9179 66.1118C84.9783 66.3195 85.0881 66.5097 85.2381 66.666C85.388 66.8224 85.5736 66.9404 85.7791 67.0099C85.9846 67.0794 86.2039 67.0983 86.4183 67.0652C86.6327 67.0321 86.836 66.9478 87.0107 66.8196C87.1284 66.7569 87.2234 66.6592 87.2827 66.5401C87.342 66.421 87.3625 66.2864 87.3414 66.1551C87.3203 66.0238 87.2587 65.9024 87.165 65.8077C87.0714 65.713 86.9504 65.6498 86.819 65.6269C86.0043 65.4967 85.2233 65.2082 84.5203 64.7776C84.3093 64.607 84.1508 64.3807 84.0628 64.1246C83.9749 63.8684 83.9611 63.5927 84.0229 63.3291C84.0848 63.0654 84.2198 62.8245 84.4126 62.6338C84.6054 62.4431 84.8482 62.3103 85.1132 62.2507C86.3255 61.911 88.0687 62.0543 88.3278 63.5761C88.3326 63.6186 88.3217 63.6614 88.2972 63.6965C88.2727 63.7316 88.2363 63.7568 88.1947 63.7672C87.9051 63.8266 87.6056 63.8187 87.3196 63.7442C87.2511 63.7277 87.1919 63.6851 87.1545 63.6257C87.0669 63.474 86.9488 63.342 86.8077 63.2379C86.6666 63.1338 86.5054 63.0598 86.3343 63.0206C86.1632 62.9814 85.9859 62.9778 85.8133 63.01C85.6408 63.0423 85.4767 63.1097 85.3315 63.208C85.2804 63.2314 85.2352 63.2656 85.1989 63.3083C85.1626 63.351 85.1361 63.4011 85.1214 63.4551C85.1067 63.5091 85.104 63.5657 85.1137 63.6208C85.1233 63.676 85.1449 63.7284 85.177 63.7743C85.2782 63.921 85.432 64.0235 85.6066 64.0609C86.1764 64.2025 86.7373 64.3688 87.2912 64.5528C87.6749 64.663 88.0082 64.9031 88.2333 65.232C88.4584 65.5608 88.5612 65.9576 88.5242 66.354C88.4872 66.7504 88.3125 67.1214 88.0304 67.4032C87.7482 67.6849 87.3763 67.8596 86.9788 67.8972C85.5676 68.1609 84.0605 67.8671 83.773 66.2126C83.7702 66.1938 83.7713 66.1746 83.7761 66.1561C83.7808 66.1377 83.7893 66.1204 83.8008 66.1052C83.8124 66.0901 83.8269 66.0774 83.8435 66.0679C83.86 66.0584 83.8783 66.0522 83.8972 66.0498L84.6854 65.9543C84.7364 65.9484 84.7878 65.9606 84.8306 65.9888C84.8735 66.0169 84.905 66.0592 84.9197 66.1082L84.9179 66.1118Z" fill="white"/>
<path d="M106.654 65.6945L105.766 65.7087C105.73 65.7094 105.694 65.7029 105.661 65.6896C105.628 65.6763 105.597 65.6564 105.571 65.6312C105.546 65.606 105.525 65.5758 105.512 65.5426C105.498 65.5095 105.491 65.4739 105.491 65.4379V65.0451C105.486 65.0064 105.489 64.9669 105.501 64.9297C105.514 64.8926 105.535 64.8589 105.562 64.8312C105.59 64.8035 105.624 64.7827 105.661 64.7704C105.698 64.7581 105.738 64.7546 105.777 64.7602H107.896C107.919 64.7572 107.942 64.7595 107.964 64.7669C107.986 64.7744 108.005 64.7867 108.021 64.8031C108.037 64.8194 108.049 64.8392 108.056 64.8609C108.063 64.8827 108.065 64.9058 108.061 64.9283V66.9615C108.063 67.0251 108.047 67.0878 108.016 67.1433C107.985 67.1987 107.939 67.2447 107.884 67.2764C107.239 67.7247 106.471 67.9651 105.685 67.9651C104.898 67.9651 104.131 67.7247 103.485 67.2764C103.001 66.7726 102.689 66.1292 102.594 65.4382C102.498 64.7471 102.624 64.0435 102.953 63.4278C103.244 62.9512 103.67 62.5709 104.177 62.3348C104.684 62.0987 105.25 62.0172 105.804 62.1007C106.26 62.0969 106.708 62.2318 107.085 62.4875C107.463 62.7432 107.754 63.1076 107.919 63.5322C107.991 63.6968 107.935 63.7959 107.761 63.8295L107.186 63.9463C107.108 63.9676 107.025 63.9617 106.951 63.9295C106.877 63.8974 106.816 63.8408 106.778 63.7693C106.694 63.6374 106.601 63.5109 106.501 63.3907C106.226 63.1632 105.883 63.0315 105.526 63.0155C105.168 62.9996 104.815 63.1002 104.52 63.3022C104.18 63.5942 103.934 63.9808 103.814 64.4125C103.695 64.8442 103.707 65.3015 103.849 65.7264C103.901 65.9783 104.011 66.2148 104.17 66.4175C104.329 66.6202 104.533 66.7835 104.765 66.8949C104.998 67.0062 105.253 67.0625 105.511 67.0593C105.769 67.0561 106.023 66.9936 106.253 66.8766C106.363 66.8495 106.467 66.7996 106.557 66.73C106.647 66.6604 106.722 66.5727 106.776 66.4726C106.83 66.3725 106.862 66.2622 106.87 66.1489C106.879 66.0355 106.863 65.9218 106.824 65.8149C106.821 65.7945 106.815 65.7748 106.804 65.7571C106.794 65.7394 106.78 65.7239 106.763 65.7116C106.747 65.6993 106.728 65.6903 106.708 65.6853C106.688 65.6802 106.667 65.6791 106.647 65.6821L106.654 65.6945Z" fill="white"/>
</svg>
