<svg width="215" height="86" viewBox="0 0 215 86" fill="none" xmlns="http://www.w3.org/2000/svg">
    <path d="M36.1158 27.3513C36.1231 27.3251 36.1354 27.3007 36.152 27.2794C36.1685 27.2582 36.1891 27.2405 36.2124 27.2274C36.2358 27.2144 36.2614 27.2061 36.2879 27.2033C36.3143 27.2005 36.341 27.203 36.3665 27.2109C40.8508 28.1108 45.3122 29.1116 49.7508 30.2132C58.4537 32.3839 67.6545 34.6338 77.3532 36.9629C88.3713 39.6106 102.141 42.5553 118.662 45.797C135.618 49.2191 152.755 51.6252 169.985 53.003C179.432 53.8615 188.943 53.6396 198.342 52.3415C205.005 51.2616 214.642 48.4077 214.951 39.814C215.208 36.6099 214.433 33.4079 212.745 30.6965C212.463 30.3563 212.328 30.4076 212.339 30.853C212.362 32.2705 212.426 33.6772 212.518 35.0811C212.679 36.5707 212.365 38.0735 211.625 39.3664C210.884 40.6593 209.755 41.6732 208.407 42.2575C205.982 43.6296 203.319 44.5036 200.567 44.8304C195.076 45.4684 189.534 45.4865 184.039 44.8844C180.042 44.5119 175.366 43.9043 170.009 43.062C161.212 41.6796 152.938 40.1209 145.185 38.3858C136.721 36.4922 126.019 33.733 113.078 30.1079C110.791 29.4726 108.562 28.829 106.391 28.1774C82.7769 21.1451 58.8575 14.2892 34.6328 7.6097C27.8193 5.73058 20.3557 3.81456 12.2421 1.86163C9.14653 1.09536 6.01447 0.492469 2.85835 0.0553855C2.38569 -0.00530727 1.90819 -0.016146 1.43337 0.0230046C1.30823 0.032844 1.19062 0.0879336 1.10164 0.178482C1.01265 0.269031 0.958101 0.389068 0.947802 0.51704C0.797387 2.23687 2.71584 4.44269 3.76083 5.56855C5.52006 7.47288 7.14208 9.28543 8.62688 11.0062C9.99204 12.5937 11.5815 14.6258 13.3953 17.1025C21.4694 28.1383 28.5878 39.8733 34.6697 52.1741C38.6006 59.9926 42.0219 68.0686 44.9111 76.349C45.8119 78.9653 46.5738 81.6295 47.1937 84.3299C47.2384 84.6756 47.4002 84.9945 47.6509 85.2308C47.9017 85.4671 48.2254 85.6059 48.5659 85.6231C48.6399 85.6285 48.7133 85.6059 48.7722 85.5596C48.831 85.5133 48.8712 85.4466 48.8852 85.3721C49.0214 84.5792 49.0718 83.7733 49.0357 82.9691C48.9296 80.6714 48.6953 78.3817 48.3337 76.1114C46.479 64.6264 44.0124 53.2537 40.9449 42.0442C40.5931 40.7842 40.1867 39.5296 39.7258 38.2805C38.3712 34.6806 37.167 31.1581 36.1132 27.7131C36.0713 27.5944 36.0713 27.4646 36.1132 27.3459" fill="#F76907"/>
</svg>
