<svg width="31" height="31" viewBox="0 0 31 31" fill="none" xmlns="http://www.w3.org/2000/svg">
<path d="M15.5 30.4939C17.5034 30.4972 19.4877 30.1051 21.3391 29.3398C23.1904 28.5746 24.8724 27.4515 26.2883 26.0348C32.2372 20.0885 32.2372 10.4139 26.2883 4.46764C23.4066 1.58722 19.5754 0 15.5 0C11.4246 0 7.59336 1.586 4.71167 4.46764C-1.23723 10.4139 -1.23723 20.0885 4.71167 26.0348C6.12763 27.4515 7.80956 28.5746 9.66092 29.3398C11.5123 30.1051 13.4966 30.4972 15.5 30.4939ZM15.5 2.44C18.9236 2.44 22.1409 3.77224 24.5625 6.19272C26.984 8.6132 28.3156 11.8291 28.3156 15.2512C28.3156 18.6733 26.9828 21.8892 24.5625 24.3097C19.5644 29.3032 11.4332 29.3032 6.43751 24.3097C4.01719 21.8892 2.68436 18.6721 2.68436 15.2512C2.68436 11.8303 4.01719 8.6132 6.43751 6.19272C8.85784 3.77224 12.0764 2.44 15.5 2.44Z" fill="white"/>
<path d="M18.3053 22.0779C18.547 22.0784 18.7833 22.0072 18.9843 21.8732C19.1854 21.7393 19.3421 21.5486 19.4345 21.3255C19.527 21.1023 19.5511 20.8568 19.5036 20.62C19.4562 20.3831 19.3395 20.1657 19.1683 19.9953L14.4216 15.2508L19.1683 10.5062C19.2816 10.3929 19.3715 10.2584 19.4328 10.1104C19.4941 9.96245 19.5257 9.80383 19.5257 9.64364C19.5257 9.48346 19.4941 9.32484 19.4328 9.17684C19.3715 9.02885 19.2816 8.89437 19.1683 8.7811C19.0549 8.66783 18.9204 8.57798 18.7723 8.51668C18.6243 8.45538 18.4656 8.42383 18.3053 8.42383C18.1451 8.42383 17.9864 8.45538 17.8383 8.51668C17.6903 8.57798 17.5557 8.66783 17.4424 8.7811L11.8328 14.3882C11.7194 14.5014 11.6294 14.6359 11.568 14.7839C11.5066 14.9319 11.475 15.0905 11.475 15.2508C11.475 15.411 11.5066 15.5696 11.568 15.7176C11.6294 15.8657 11.7194 16.0001 11.8328 16.1133L17.4424 21.7204C17.5556 21.8339 17.6901 21.9239 17.8382 21.9852C17.9863 22.0466 18.145 22.078 18.3053 22.0779Z" fill="white"/>
</svg>
