<svg width="16" height="15" viewBox="0 0 16 15" fill="none" xmlns="http://www.w3.org/2000/svg">
<path d="M2.06403 1.11279C1.96368 1.11585 1.86501 1.13773 1.77385 1.17715C1.6827 1.21657 1.60091 1.27272 1.53334 1.34229C1.46576 1.41185 1.41377 1.49341 1.38044 1.58214C1.34712 1.67087 1.33313 1.76495 1.33932 1.85883C1.43957 3.46899 1.91221 7.39779 4.17515 9.84791C6.88495 12.7999 10.414 13.817 14.0347 13.6667C14.2288 13.6558 14.4112 13.5764 14.5452 13.4444C14.6792 13.3124 14.7547 13.1377 14.7565 12.9555V10.3766C14.7543 10.136 14.6658 9.90303 14.5053 9.71518C14.3448 9.52732 14.1215 9.39545 13.8714 9.34071L12.0582 8.96501C11.8339 8.92022 11.6005 8.9395 11.3881 9.02035C11.1756 9.1012 10.994 9.23991 10.8666 9.41854L10.4656 9.98746C10.4287 10.0395 10.3737 10.0779 10.3099 10.096C10.2461 10.1142 10.1776 10.1109 10.1161 10.0868C9.19372 9.71373 5.51859 8.10357 5.1147 5.38777C5.10679 5.33532 5.11562 5.28185 5.14009 5.23409C5.16456 5.18634 5.20357 5.14643 5.2522 5.11941L5.97978 4.70345C6.17934 4.58758 6.33609 4.41708 6.42882 4.21501C6.52156 4.01293 6.54579 3.78905 6.49825 3.57365L6.10008 1.84542C6.04188 1.60327 5.89589 1.3875 5.68698 1.23484C5.47808 1.08218 5.21916 1.00207 4.95429 1.00813L2.06403 1.11279Z" stroke="#F76907"/>
</svg>
