<svg width="21" height="20" viewBox="0 0 21 20" fill="none" xmlns="http://www.w3.org/2000/svg">
<path d="M20.0133 14.8411C17.3395 14.4011 16.1345 11.6623 16.0858 11.5461L16.0745 11.5236C15.9383 11.2461 15.9058 11.0173 15.9808 10.8436C16.127 10.5011 16.687 10.3236 17.057 10.2061C17.1645 10.1723 17.2658 10.1398 17.3495 10.1073C17.7145 9.96358 17.9745 9.80733 18.147 9.63108C18.352 9.41983 18.392 9.21733 18.3895 9.08608C18.3833 8.76608 18.1383 8.48108 17.747 8.34233C17.6087 8.28722 17.461 8.25921 17.312 8.25983C17.1727 8.25788 17.0345 8.28602 16.907 8.34233C16.5945 8.48858 16.3145 8.56858 16.0733 8.57983C15.9783 8.57717 15.8846 8.55682 15.797 8.51983L15.8208 8.13358L15.8245 8.07608C15.9108 6.72234 16.017 5.03859 15.5695 4.03859C15.2816 3.37958 14.8656 2.78431 14.3458 2.28734C13.917 1.88387 13.4218 1.55741 12.882 1.32234C12.1615 1.00798 11.3844 0.843799 10.5983 0.839844L10.5483 0.839844L10.2045 0.843594C9.76078 0.843594 8.87204 0.906094 7.91829 1.32609C7.38008 1.56078 6.88655 1.88684 6.45954 2.28984C5.94225 2.78647 5.52809 3.38032 5.24079 4.03734C4.79329 5.03609 4.89954 6.71984 4.98454 8.07233V8.07483L5.01204 8.51858C4.90838 8.56176 4.79679 8.58263 4.68454 8.57983C4.43204 8.57983 4.13204 8.49983 3.79329 8.34108C3.68683 8.29333 3.57121 8.26943 3.45454 8.27108C3.24369 8.27323 3.03715 8.33101 2.85579 8.43858C2.62329 8.57483 2.47329 8.76608 2.43204 8.97983C2.40579 9.11983 2.40704 9.39858 2.71704 9.68108C2.88829 9.83608 3.13829 9.97983 3.46204 10.1073C3.54704 10.1411 3.64829 10.1723 3.75454 10.2061C4.12454 10.3236 4.68579 10.5011 4.83204 10.8436C4.90579 11.0173 4.87329 11.2461 4.73704 11.5236L4.72704 11.5461C4.46598 12.11 4.12682 12.6343 3.71954 13.1036C3.36815 13.5176 2.95894 13.8788 2.50454 14.1761C1.98766 14.5126 1.40674 14.7386 0.798294 14.8398C0.684286 14.8582 0.581156 14.9182 0.508876 15.0083C0.436595 15.0984 0.400309 15.212 0.407044 15.3273C0.410794 15.3961 0.427044 15.4648 0.455794 15.5311C0.552044 15.7548 0.773294 15.9448 1.13329 16.1111C1.57329 16.3148 2.23079 16.4861 3.08954 16.6198C3.13329 16.7023 3.17829 16.9086 3.20954 17.0498C3.24204 17.1998 3.27579 17.3548 3.32454 17.5186C3.37704 17.6961 3.51204 17.9086 3.86079 17.9086C3.99329 17.9086 4.14454 17.8786 4.32079 17.8448C4.57829 17.7948 4.93079 17.7261 5.36954 17.7261C5.61329 17.7261 5.86579 17.7473 6.11954 17.7898C6.60954 17.8711 7.03204 18.1686 7.52079 18.5136C8.23579 19.0186 9.04578 19.5898 10.2833 19.5898L10.3845 19.5861C10.4245 19.5886 10.4758 19.5898 10.5283 19.5898C11.7658 19.5898 12.5758 19.0186 13.2908 18.5148L13.292 18.5136C13.7808 18.1698 14.2033 17.8723 14.6933 17.7911C14.947 17.7486 15.1995 17.7273 15.4433 17.7273C15.8633 17.7273 16.1958 17.7811 16.492 17.8386C16.6858 17.8761 16.8358 17.8948 16.952 17.8948H16.9745C17.0913 17.9 17.2063 17.8646 17.2999 17.7947C17.3936 17.7247 17.4601 17.6245 17.4883 17.5111C17.5322 17.3575 17.5706 17.2024 17.6033 17.0461C17.632 16.9136 17.6795 16.7011 17.722 16.6186C18.5808 16.4836 19.2383 16.3136 19.6783 16.1098C20.037 15.9436 20.2583 15.7548 20.3545 15.5323C20.3834 15.4671 20.4004 15.3973 20.4045 15.3261C20.4109 15.2111 20.3744 15.0979 20.3022 15.0083C20.2299 14.9188 20.1269 14.8592 20.0133 14.8411Z" fill="white"/>
</svg>
