<svg width="26" height="24" viewBox="0 0 26 24" fill="none" xmlns="http://www.w3.org/2000/svg">
    <path d="M11.8228 0.92705C12.1222 0.00573897 13.4256 0.00574017 13.7249 0.927051L15.9496 7.77394C16.0835 8.18596 16.4675 8.46492 16.9007 8.46492H24.0999C25.0687 8.46492 25.4714 9.70454 24.6877 10.2739L18.8634 14.5056C18.5129 14.7602 18.3663 15.2116 18.5001 15.6236L20.7248 22.4705C21.0242 23.3918 19.9697 24.1579 19.186 23.5885L13.3617 19.3569C13.0112 19.1023 12.5366 19.1023 12.1861 19.3569L6.36179 23.5885C5.57807 24.1579 4.52359 23.3918 4.82295 22.4705L7.04764 15.6236C7.18151 15.2116 7.03485 14.7602 6.68437 14.5056L0.860051 10.2739C0.0763373 9.70454 0.479114 8.46492 1.44784 8.46492H8.64709C9.08031 8.46492 9.46427 8.18596 9.59814 7.77394L11.8228 0.92705Z" fill="#F76907"/>
</svg>
