<svg width="21" height="21" viewBox="0 0 21 21" fill="none" xmlns="http://www.w3.org/2000/svg">
<path fill-rule="evenodd" clip-rule="evenodd" d="M10.7197 2.09033C10.6368 2.09033 10.5574 2.12326 10.4987 2.18186C10.4401 2.24047 10.4072 2.31995 10.4072 2.40283V13.6528C10.4072 14.5153 9.70722 15.2153 8.84472 15.2153C7.98222 15.2153 7.28222 14.5153 7.28222 13.6528C7.28222 12.7903 7.98222 12.0903 8.84472 12.0903C8.9276 12.0903 9.00709 12.0574 9.06569 11.9988C9.1243 11.9402 9.15722 11.8607 9.15722 11.7778V9.27782C9.15722 9.19494 9.1243 9.11546 9.06569 9.05685C9.00709 8.99825 8.9276 8.96532 8.84472 8.96532C6.25722 8.96532 4.15723 11.0656 4.15723 13.6528C4.15723 16.2403 6.25722 18.3403 8.84472 18.3403C11.4319 18.3403 13.5322 16.2403 13.5322 13.6528V7.8697C14.2195 8.18077 14.9653 8.34123 15.7197 8.34032H16.3447C16.4276 8.34032 16.5071 8.3074 16.5657 8.2488C16.6243 8.19019 16.6572 8.11071 16.6572 8.02783V5.52783C16.6572 5.44495 16.6243 5.36546 16.5657 5.30686C16.5071 5.24825 16.4276 5.21533 16.3447 5.21533H15.7197C14.5125 5.21533 13.5322 4.23502 13.5322 3.02783V2.40283C13.5322 2.31995 13.4993 2.24047 13.4407 2.18186C13.3821 2.12326 13.3026 2.09033 13.2197 2.09033H10.7197Z" fill="white"/>
</svg>
