<svg width="21" height="21" viewBox="0 0 21 21" fill="none" xmlns="http://www.w3.org/2000/svg">
<path d="M10.3629 0.214844H10.3579C4.84411 0.214844 0.360365 4.69984 0.360365 10.2148C0.356941 12.3211 1.02368 14.3738 2.26411 16.0761L1.01786 19.7911L4.86161 18.5623C6.49207 19.644 8.4062 20.219 10.3629 20.2148C15.8766 20.2148 20.3603 15.7286 20.3603 10.2148C20.3603 4.70109 15.8766 0.214844 10.3629 0.214844ZM16.1816 14.3361C15.9403 15.0173 14.9828 15.5823 14.2191 15.7473C13.6966 15.8586 13.0141 15.9473 10.7166 14.9948C7.77786 13.7773 5.88536 10.7911 5.73786 10.5973C5.59661 10.4036 4.55036 9.01608 4.55036 7.58109C4.55036 6.14609 5.27911 5.44734 5.57286 5.14734C5.81411 4.90109 6.21286 4.78859 6.59536 4.78859C6.71911 4.78859 6.83036 4.79484 6.93036 4.79984C7.22411 4.81234 7.37161 4.82984 7.56536 5.29359C7.80661 5.87484 8.3941 7.30984 8.46411 7.45734C8.53535 7.60484 8.60661 7.80484 8.50661 7.99859C8.41286 8.19859 8.33036 8.28733 8.18286 8.45733C8.03536 8.62733 7.89536 8.75733 7.74786 8.93983C7.61286 9.09858 7.46036 9.26858 7.63036 9.56233C7.80036 9.84983 8.38786 10.8086 9.25285 11.5786C10.3691 12.5723 11.2741 12.8898 11.5979 13.0248C11.8391 13.1248 12.1266 13.1011 12.3029 12.9136C12.5266 12.6723 12.8029 12.2723 13.0841 11.8786C13.2841 11.5961 13.5366 11.5611 13.8016 11.6611C14.0716 11.7548 15.5003 12.4611 15.7941 12.6073C16.0878 12.7548 16.2816 12.8248 16.3528 12.9486C16.4228 13.0723 16.4228 13.6536 16.1816 14.3361Z" fill="white"/>
</svg>
