<svg id="logo" xmlns="http://www.w3.org/2000/svg" width="82.654" height="107.838" viewBox="0 0 82.654 107.838">
    <path id="Path_2717" data-name="Path 2717" d="M-596.07,182.71v82.034h27.319v-3.008h-24.4V185.528h73.238V261.7h-34.8c-.705,0-1.408,0-2.114-.022l-.03-8.965c-.01-2.932-.2-5.861-.147-8.794,0-.241.363-3.116.584-3.015,17.937,8.2,31.422-6.308,31.891-16.595q-20.575-4.883-33.1,12.114c-11.883-10.338-13.066-27.475-6.9-38.161,10.493,7.46,11.245,20.615,7.326,27.821a19.875,19.875,0,0,1-2.64-11.591c-.869,0-2.937.036-2.937.036s0,.473,0,.582a41.944,41.944,0,0,0,.3,5.293,21.5,21.5,0,0,0,3.624,8.818c.587.857,1.295,1.634,1.967,2.472,9.3-12.292,4.966-30.956-8.878-37.673-.549.961-1.136,1.907-1.647,2.9a32.626,32.626,0,0,0-3.725,12.968,36.391,36.391,0,0,0,.781,10.953,34.687,34.687,0,0,0,9.919,17.213c.958.914,1.288,1.555.822,2.833-.6,1.65-.359,3.424-.3,5.172.127,4.261.114,8.526.146,12.793.013,1.948,0,3.9,0,5.876h42.787V182.71Zm46.6,49.33A25.417,25.417,0,0,1-539.341,227a25.734,25.734,0,0,1,7.431-.8c1.155.07,2.3.3,3.452.466.349.051.282.409.235.568a17.5,17.5,0,0,1-3.284,6.057,18.471,18.471,0,0,1-8.837,6.026,18.87,18.87,0,0,1-13.66-.755c-.292-.124-.574-.276-.9-.438A24.514,24.514,0,0,1-549.469,232.04Z" transform="translate(596.083 -182.71)" fill="#f4feee"/>
    <path id="Path_2718" data-name="Path 2718" d="M-412.6,475.8a4.941,4.941,0,0,0-2.973-3.919,4.839,4.839,0,0,1-.444-.216c.3-.2.533-.333.742-.5a4.789,4.789,0,0,0,1.726-4.9,3.757,3.757,0,0,0-3.382-3.214A63.79,63.79,0,0,0-423.5,463V481.78a1.434,1.434,0,0,0,.238.057c1.751.006,3.5-.019,5.251.019a5.254,5.254,0,0,0,3.817-1.561A5.458,5.458,0,0,0-412.6,475.8Zm-8.653-10.775c1.1.051,2.161.025,3.2.159a2.163,2.163,0,0,1,2.173,2.028,3.108,3.108,0,0,1-1.412,3.23c-1.25.7-2.6.368-3.966.444Zm4.566,14.234a9.116,9.116,0,0,1-4.575.378v-6.568c1.387.089,2.745.086,4.074.282s2.04,1.228,2.224,2.84A3.206,3.206,0,0,1-416.684,479.254Z" transform="translate(478.269 -374.019)" fill="#f4feee"/>
    <path id="Path_2719" data-name="Path 2719" d="M-586.886,479.822v2.145h-9.224V463.18h8.786v2.043h-6.711v5.965h6.289v2.231h-6.289v6.4Z" transform="translate(596.11 -374.188)" fill="#f4feee"/>
    <path id="Path_2720" data-name="Path 2720" d="M-550.217,463.25v2.028H-555.2V482h-2.218V465.274h-5.013V463.25Z" transform="translate(573.117 -374.236)" fill="#f4feee"/>
    <path id="Path_2721" data-name="Path 2721" d="M-508.955,463.2v2.018h-4.975v16.763h-2.218V465.243h-5.042V463.2Z" transform="translate(544.962 -374.201)" fill="#f4feee"/>
    <path id="Path_2722" data-name="Path 2722" d="M-466.124,479.427c-.156-.451-.311-.9-.473-1.352-1.647-4.652-3.309-9.3-4.931-13.958-.216-.609-.308-.908-.308-.908h-2.475s-.092.3-.308.908c-1.621,4.658-3.284,9.306-4.931,13.958-.162.454-.317.9-.473,1.352-.292.831-.581,1.672-.888,2.564.66,0,1.19-.006,1.729-.006h.806s.092-.324.178-.612c.2-.654.419-1.3.641-1.945.241-.685.482-1.368.7-2.059.07-.216.19-.574.19-.574s1.767.006,3.592.006,3.592-.006,3.592-.006.121.359.19.574c.219.692.46,1.374.7,2.059.222.644.444,1.291.641,1.945.086.289.178.612.178.612h.806c.539,0,1.069.006,1.729.006C-465.543,481.1-465.832,480.258-466.124,479.427Zm-9.792-4.909c.93-2.719,1.85-5.416,2.84-8.31,0,0,0,.006,0,.01s0-.006,0-.01c.99,2.894,1.91,5.591,2.84,8.31Z" transform="translate(517.463 -374.208)" fill="#f4feee"/>
    <path id="Path_2723" data-name="Path 2723" d="M-370.229,479.427c-.155-.451-.311-.9-.473-1.352-1.647-4.652-3.309-9.3-4.931-13.958-.216-.609-.308-.908-.308-.908h-2.475s-.092.3-.308.908c-1.621,4.658-3.284,9.306-4.931,13.958-.162.454-.317.9-.473,1.352-.292.831-.581,1.672-.888,2.564.66,0,1.19-.006,1.729-.006h.806s.092-.324.178-.612c.2-.654.419-1.3.641-1.945.241-.685.482-1.368.7-2.059.07-.216.19-.574.19-.574s1.767.006,3.592.006,3.592-.006,3.592-.006.121.359.19.574c.219.692.46,1.374.7,2.059.222.644.444,1.291.641,1.945.086.289.178.612.178.612h.806c.539,0,1.069.006,1.729.006C-369.648,481.1-369.937,480.258-370.229,479.427Zm-9.792-4.909c.93-2.719,1.85-5.416,2.84-8.31,0,0,0,.006,0,.01s0-.006,0-.01c.99,2.894,1.91,5.591,2.84,8.31Z" transform="translate(451.995 -374.208)" fill="#f4feee"/>
</svg>
