<svg width="264" height="139" viewBox="0 0 264 139" fill="none" xmlns="http://www.w3.org/2000/svg">
<path d="M41.7397 31.9346C41.7484 31.9044 41.7629 31.8761 41.7826 31.8516C41.8023 31.827 41.8267 31.8065 41.8544 31.7914C41.8821 31.7763 41.9125 31.7668 41.9439 31.7635C41.9753 31.7603 42.007 31.7632 42.0372 31.7723C47.3582 32.8129 52.6521 33.9699 57.9188 35.2436C68.2456 37.7534 79.1631 40.3548 90.6714 43.0478C103.745 46.1091 120.084 49.5138 139.688 53.2619C159.807 57.2186 180.142 60.0006 200.587 61.5936C211.796 62.5862 223.082 62.3297 234.235 60.8288C242.141 59.5802 253.576 56.2805 253.943 46.3442C254.248 42.6396 253.328 38.9374 251.325 35.8024C250.99 35.4091 250.83 35.4683 250.843 35.9834C250.871 37.6223 250.946 39.2487 251.056 40.872C251.247 42.5942 250.875 44.3319 249.996 45.8268C249.117 47.3216 247.778 48.4939 246.177 49.1694C243.3 50.7559 240.14 51.7665 236.875 52.1443C230.36 52.882 223.783 52.903 217.264 52.2068C212.521 51.776 206.971 51.0736 200.615 50.0996C190.178 48.5013 180.359 46.6991 171.159 44.6929C161.117 42.5036 148.417 39.3133 133.062 35.1219C130.348 34.3873 127.703 33.6432 125.127 32.8899C97.1071 24.7589 68.7246 16.832 39.98 9.10903C31.8952 6.93635 23.039 4.72101 13.4116 2.463C9.73839 1.57702 6.02194 0.879949 2.27693 0.374585C1.71609 0.304411 1.14949 0.291879 0.58607 0.337145C0.437588 0.348522 0.298034 0.412217 0.192445 0.516912C0.0868565 0.621606 0.022127 0.760394 0.00990671 0.908359C-0.168573 2.89686 2.10783 5.44728 3.3478 6.74901C5.43528 8.95083 7.35994 11.0465 9.12178 13.0361C10.7417 14.8716 12.6277 17.2212 14.7799 20.0848C24.3605 32.8446 32.8072 46.4128 40.0238 60.6353C44.6881 69.6752 48.7478 79.0127 52.1761 88.5867C53.2449 91.6118 54.1491 94.6921 54.8846 97.8144C54.9376 98.2142 55.1296 98.5828 55.4271 98.856C55.7246 99.1292 56.1088 99.2898 56.5128 99.3097C56.6007 99.3158 56.6878 99.2897 56.7576 99.2362C56.8274 99.1827 56.8751 99.1056 56.8917 99.0194C57.0533 98.1026 57.1132 97.1709 57.0702 96.2411C56.9444 93.5844 56.6663 90.937 56.2373 88.312C54.0366 75.0328 51.1098 61.8836 47.4699 48.9228C47.0524 47.466 46.5702 46.0155 46.0233 44.5712C44.4159 40.4089 42.987 36.3362 41.7366 32.3529C41.6869 32.2158 41.6869 32.0656 41.7366 31.9284" fill="#F76907"/>
<path d="M76.0048 109.311C72.1221 109.311 69.1141 108.073 66.9808 105.599C65.1461 103.465 64.2288 100.713 64.2288 97.3425V72.2545L72.2928 68.0305V96.9585C72.2928 98.6225 72.6341 99.8172 73.3168 100.543C73.9994 101.225 75.1514 101.567 76.7728 101.567H82.5328V109.311H76.0048ZM93.1378 74.4305C91.8578 74.4305 90.8338 74.0465 90.0658 73.2785C89.2978 72.5105 88.9138 71.4652 88.9138 70.1425C88.9138 68.9052 89.2978 67.9025 90.0658 67.1345C90.8338 66.3665 91.8578 65.9825 93.1378 65.9825C94.4178 65.9825 95.4204 66.3665 96.1458 67.1345C96.9138 67.8599 97.2978 68.8625 97.2978 70.1425C97.2978 73.0012 95.9111 74.4305 93.1378 74.4305ZM78.6737 109.311V101.567H84.4338C86.0551 101.567 87.2071 101.225 87.8898 100.543C88.5724 99.8172 88.9138 98.6225 88.9138 96.9585V85.1185L96.9778 80.8945V97.3425C96.9778 101.225 95.7831 104.255 93.3938 106.431C91.3031 108.351 88.5724 109.311 85.2018 109.311H78.6737ZM104.959 113.471V105.727C106.665 104.66 108.521 103.892 110.527 103.423C109.161 100.82 108.479 98.1319 108.479 95.3585C108.479 91.0065 109.737 87.5505 112.255 84.9905C114.559 82.6439 117.545 81.4705 121.215 81.4705C124.969 81.4705 128.127 82.9425 130.687 85.8865V93.3745C127.572 90.3025 124.607 88.7665 121.791 88.7665C120.212 88.7665 118.932 89.3639 117.951 90.5585C116.969 91.7105 116.479 93.2252 116.479 95.1025C116.479 97.9612 117.396 100.308 119.231 102.143C119.529 102.143 119.999 102.121 120.639 102.079C121.108 102.079 121.492 102.057 121.791 102.015C126.612 101.716 130.751 100.415 134.207 98.1105L134.143 105.407C130.559 108.009 125.695 109.311 119.551 109.311C113.705 109.311 108.841 110.697 104.959 113.471ZM180.35 101.567H186.11V109.311H179.582C176.254 109.311 173.545 108.372 171.454 106.495C169.108 108.372 166.228 109.311 162.814 109.311H138.686L142.718 101.567H151.166V80.6385L159.23 76.3505V101.567H162.366C164.329 101.567 165.716 101.14 166.526 100.287C167.38 99.4332 167.806 97.9825 167.806 95.9345V72.3185L175.87 68.0305V96.9585C175.87 98.6225 176.212 99.8172 176.894 100.543C177.577 101.225 178.729 101.567 180.35 101.567ZM223.003 101.567H228.699V109.311H222.171C219.099 109.311 216.581 108.521 214.619 106.943C212.315 109.375 209.285 110.591 205.531 110.591C201.691 110.591 198.661 109.375 196.443 106.943C194.395 108.521 191.856 109.311 188.827 109.311H182.299V101.567H188.059C189.68 101.567 190.832 101.225 191.515 100.543C192.197 99.8172 192.539 98.6225 192.539 96.9585V95.1025C192.539 90.1105 193.84 86.2279 196.443 83.4545C198.704 81.0225 201.733 79.8065 205.531 79.8065C209.84 79.8065 213.168 81.3852 215.515 84.5425C217.477 87.2305 218.459 90.7505 218.459 95.1025V96.9585C218.459 98.6225 218.8 99.8172 219.483 100.543C220.208 101.225 221.381 101.567 223.003 101.567ZM205.531 102.847C208.773 102.847 210.395 100.201 210.395 94.9105C210.395 89.8332 208.773 87.2945 205.531 87.2945C202.245 87.2945 200.603 89.8332 200.603 94.9105C200.603 100.201 202.245 102.847 205.531 102.847ZM260.317 101.567V109.311H224.861V101.567H234.333C233.139 99.2199 232.541 96.6172 232.541 93.7585C232.541 89.2359 234.12 85.6519 237.277 83.0065C239.837 80.8732 242.803 79.8065 246.173 79.8065C250.739 79.8065 254.429 81.7692 257.245 85.6945V92.7985C254.131 89.1292 250.739 87.2945 247.069 87.2945C245.107 87.2945 243.528 87.9132 242.333 89.1505C241.181 90.3452 240.605 91.9665 240.605 94.0145C240.605 96.3612 241.331 98.2172 242.781 99.5825C244.275 100.905 246.301 101.567 248.861 101.567H260.317Z" fill="#091242"/>
</svg>
