<svg width="235" height="100" viewBox="0 0 235 100" fill="none" xmlns="http://www.w3.org/2000/svg">
<path d="M38.4773 29.9179C38.4852 29.8892 38.4986 29.8626 38.5168 29.8393C38.5349 29.816 38.5574 29.7967 38.5829 29.7824C38.6085 29.7681 38.6365 29.7591 38.6654 29.756C38.6944 29.7529 38.7236 29.7557 38.7515 29.7643C43.6566 30.7487 48.5366 31.8434 53.3917 33.0483C62.9113 35.4227 72.9755 37.8838 83.5843 40.4314C95.6363 43.3276 110.698 46.5486 128.769 50.0945C147.316 53.8377 166.061 56.4696 184.908 57.9767C195.242 58.9157 205.646 58.6731 215.927 57.2532C223.215 56.0719 233.756 52.9503 234.094 43.5501C234.375 40.0453 233.528 36.5428 231.681 33.577C231.372 33.2049 231.225 33.2609 231.236 33.7482C231.262 35.2987 231.332 36.8374 231.433 38.373C231.609 40.0024 231.266 41.6463 230.456 43.0605C229.645 44.4747 228.411 45.5838 226.936 46.2228C224.284 47.7237 221.37 48.6797 218.36 49.0372C212.354 49.7351 206.292 49.7549 200.282 49.0963C195.91 48.6888 190.794 48.0242 184.934 47.1028C175.313 45.5908 166.262 43.8858 157.781 41.9878C148.523 39.9166 136.817 36.8984 122.661 32.9332C120.16 32.2382 117.722 31.5343 115.347 30.8216C89.517 23.1293 63.353 15.6301 36.8551 8.32378C29.4022 6.26832 21.2382 4.17251 12.3633 2.03632C8.97721 1.19815 5.55125 0.538681 2.09896 0.0605828C1.58195 -0.00580529 1.05964 -0.0176611 0.540261 0.0251633C0.403385 0.035926 0.274739 0.0961851 0.177403 0.195231C0.0800676 0.294277 0.0203975 0.425577 0.00913238 0.565559C-0.155397 2.44678 1.94308 4.85959 3.08613 6.09109C5.01045 8.17412 6.78467 10.1568 8.4088 12.039C9.90207 13.7755 11.6407 15.9983 13.6247 18.7074C22.4564 30.7788 30.2429 43.6149 36.8955 57.07C41.1952 65.6222 44.9375 74.456 48.0979 83.5135C49.0832 86.3753 49.9167 89.2894 50.5947 92.2432C50.6436 92.6215 50.8205 92.9702 51.0948 93.2287C51.3691 93.4872 51.7232 93.639 52.0957 93.6579C52.1766 93.6637 52.2569 93.639 52.3213 93.5884C52.3856 93.5378 52.4296 93.4648 52.4449 93.3832C52.5939 92.5159 52.6491 91.6345 52.6095 90.7548C52.4935 88.2415 52.2371 85.7369 51.8417 83.2535C49.8129 70.6908 47.1149 58.251 43.7595 45.9895C43.3747 44.6113 42.9301 43.239 42.426 41.8726C40.9442 37.935 39.627 34.082 38.4744 30.3136C38.4285 30.1838 38.4285 30.0418 38.4744 29.912" fill="#F76907"/>
<path d="M216.57 69.7639C215.46 69.7639 214.572 69.431 213.907 68.7653C213.241 68.0995 212.908 67.1934 212.908 66.0468C212.908 64.9742 213.241 64.105 213.907 63.4393C214.572 62.7735 215.46 62.4407 216.57 62.4407C217.679 62.4407 218.548 62.7735 219.177 63.4393C219.843 64.0681 220.176 64.9372 220.176 66.0468C220.176 68.5248 218.974 69.7639 216.57 69.7639ZM199.371 99.9998V93.2869H207.637C214.147 93.2869 219.325 91.3451 223.171 87.4616C220.656 83.0603 217.605 80.8596 214.017 80.8596C211.059 80.8596 207.822 82.4685 204.309 85.6863V79.5281C207.416 76.1254 210.929 74.4241 214.85 74.4241C217.735 74.4241 220.545 75.4782 223.282 77.5864C226.019 79.6946 228.442 82.6904 230.55 86.5739V89.3479C227.887 92.7506 224.558 95.3766 220.564 97.2259C216.606 99.0751 212.279 99.9998 207.582 99.9998H199.371Z" fill="#091242"/>
<path d="M171.738 99.9997L175.233 93.2868H183.999C185.885 93.2868 186.829 92.1957 186.829 90.0136C186.829 85.9451 184.868 82.8198 180.948 80.6376L184.387 74.7014C190.157 78.0671 193.264 82.6349 193.708 88.4047C193.856 90.254 194.263 91.53 194.928 92.2327C195.631 92.9354 196.815 93.2868 198.479 93.2868H202.695V99.9997H198.091C195.354 99.9997 193.042 99.2415 191.156 97.7251C189.787 99.2415 187.827 99.9997 185.275 99.9997H171.738Z" fill="#091242"/>
<path d="M145.779 84.6876C145.779 81.3589 146.815 78.7514 148.886 76.8651C150.698 75.2378 153.028 74.4241 155.876 74.4241C159.538 74.4241 162.386 75.7741 164.42 78.474C166.158 80.7302 167.027 83.6335 167.027 87.1842C167.027 91.2896 165.936 94.5259 163.754 96.893C161.794 98.9642 159.297 99.9998 156.264 99.9998C153.306 99.9998 150.883 99.3525 148.997 98.058C147.221 99.3525 145.076 99.9998 142.561 99.9998H136.902V93.2868H141.895C143.301 93.2868 144.3 92.991 144.891 92.3992C145.483 91.7704 145.779 90.7348 145.779 89.2924V84.6876ZM152.769 90.18C152.769 92.2512 153.86 93.2868 156.043 93.2868C158.779 93.2868 160.148 91.1787 160.148 86.9623C160.148 82.9308 158.724 80.9151 155.876 80.9151C153.805 80.9151 152.769 82.1356 152.769 84.5767V90.18Z" fill="#091242"/>
<path d="M134.591 99.9996C131.225 99.9996 128.618 98.927 126.768 96.7819C125.178 94.9326 124.383 92.547 124.383 89.6251V67.8774L131.373 64.2158V89.2922C131.373 90.7347 131.669 91.7703 132.261 92.399C132.853 92.9908 133.851 93.2867 135.257 93.2867H140.25V99.9996H134.591Z" fill="#091242"/>
<path d="M102.541 69.7639C101.432 69.7639 100.544 69.431 99.8784 68.7653C99.2126 68.0995 98.8797 67.1934 98.8797 66.0468C98.8797 63.6427 100.1 62.4407 102.541 62.4407C103.651 62.4407 104.52 62.7735 105.149 63.4393C105.815 64.0681 106.147 64.9372 106.147 66.0468C106.147 68.5248 104.945 69.7639 102.541 69.7639ZM111.085 69.7639C109.975 69.7639 109.088 69.431 108.422 68.7653C107.756 68.0995 107.423 67.1934 107.423 66.0468C107.423 63.6427 108.644 62.4407 111.085 62.4407C112.195 62.4407 113.064 62.7735 113.693 63.4393C114.358 64.0681 114.691 64.9372 114.691 66.0468C114.691 68.5248 113.489 69.7639 111.085 69.7639ZM98.5469 99.9998V93.2869H103.54C104.945 93.2869 105.944 92.991 106.536 92.3992C107.128 91.7704 107.423 90.7348 107.423 89.2924V79.0288L114.414 75.3672V89.6253C114.414 92.991 113.378 95.617 111.307 97.5033C109.495 99.1676 107.128 99.9998 104.206 99.9998H98.5469Z" fill="#091242"/>
<path d="M88.0203 69.7639C86.9107 69.7639 86.0231 69.431 85.3573 68.7653C84.6916 68.0995 84.3587 67.1934 84.3587 66.0468C84.3587 64.9742 84.6916 64.105 85.3573 63.4393C86.0231 62.7735 86.9107 62.4407 88.0203 62.4407C89.1299 62.4407 89.9991 62.7735 90.6278 63.4393C91.2936 64.0681 91.6264 64.9372 91.6264 66.0468C91.6264 68.5248 90.4244 69.7639 88.0203 69.7639ZM96.8969 93.2869H101.89V99.9998H96.2312C93.5312 99.9998 91.2936 99.2786 89.5182 97.8361C87.7429 99.2786 85.5053 99.9998 82.8053 99.9998H77.1465V93.2869H82.1396C83.545 93.2869 84.5437 92.991 85.1354 92.3992C85.7272 91.7704 86.0231 90.7348 86.0231 89.2924V79.0288L93.0134 75.3672V89.2924C93.0134 90.7348 93.3093 91.7704 93.9011 92.3992C94.4928 92.991 95.4915 93.2869 96.8969 93.2869Z" fill="#091242"/>
<path d="M74.8311 99.9996C71.4654 99.9996 68.8579 98.927 67.0086 96.7819C65.4182 94.9326 64.623 92.547 64.623 89.6251V67.8774L71.6134 64.2158V89.2922C71.6134 90.7347 71.9093 91.7703 72.501 92.399C73.0928 92.9908 74.0914 93.2867 75.4969 93.2867H80.49V99.9996H74.8311Z" fill="#091242"/>
</svg>
