<svg width="531" height="144" viewBox="0 0 531 144" fill="none" xmlns="http://www.w3.org/2000/svg">
<path d="M41.7397 31.7012C41.7484 31.671 41.7629 31.6427 41.7826 31.6182C41.8023 31.5936 41.8267 31.5731 41.8544 31.558C41.8821 31.5429 41.9125 31.5334 41.9439 31.5301C41.9753 31.5269 42.007 31.5298 42.0372 31.5389C47.3582 32.5795 52.6521 33.7365 57.9188 35.0102C68.2456 37.52 79.1631 40.1214 90.6714 42.8144C103.745 45.8757 120.084 49.2804 139.688 53.0285C159.807 56.9852 180.142 59.7672 200.587 61.3602C211.796 62.3528 223.082 62.0963 234.235 60.5954C242.141 59.3468 253.576 56.0471 253.943 46.1109C254.248 42.4062 253.328 38.704 251.325 35.569C250.99 35.1757 250.83 35.235 250.843 35.75C250.871 37.3889 250.946 39.0153 251.056 40.6386C251.247 42.3608 250.875 44.0985 249.996 45.5934C249.117 47.0882 247.778 48.2605 246.177 48.9361C243.3 50.5225 240.14 51.5331 236.875 51.9109C230.36 52.6486 223.783 52.6696 217.264 51.9734C212.521 51.5426 206.971 50.8402 200.615 49.8662C190.178 48.2679 180.359 46.4657 171.159 44.4595C161.117 42.2702 148.417 39.0799 133.062 34.8885C130.348 34.1539 127.703 33.4098 125.127 32.6565C97.1071 24.5255 68.7246 16.5986 39.98 8.87563C31.8952 6.70295 23.039 4.48761 13.4116 2.2296C9.73839 1.34362 6.02194 0.646551 2.27693 0.141186C1.71609 0.0710121 1.14949 0.0584801 0.58607 0.103747C0.437588 0.115123 0.298034 0.178819 0.192445 0.283513C0.0868565 0.388208 0.022127 0.526996 0.00990671 0.674961C-0.168573 2.66346 2.10783 5.21388 3.3478 6.51561C5.43528 8.71743 7.35994 10.8131 9.12178 12.8027C10.7417 14.6382 12.6277 16.9878 14.7799 19.8514C24.3605 32.6112 32.8072 46.1794 40.0238 60.4019C44.6881 69.4418 48.7478 78.7793 52.1761 88.3533C53.2449 91.3784 54.1491 94.4587 54.8846 97.581C54.9376 97.9808 55.1296 98.3494 55.4271 98.6226C55.7246 98.8958 56.1088 99.0564 56.5128 99.0763C56.6007 99.0824 56.6878 99.0563 56.7576 99.0028C56.8274 98.9493 56.8751 98.8722 56.8917 98.786C57.0533 97.8692 57.1132 96.9375 57.0702 96.0077C56.9444 93.351 56.6663 90.7036 56.2373 88.0786C54.0366 74.7994 51.1098 61.6502 47.4699 48.6894C47.0524 47.2326 46.5702 45.7821 46.0233 44.3378C44.4159 40.1755 42.987 36.1028 41.7366 32.1195C41.6869 31.9824 41.6869 31.8322 41.7366 31.695" fill="#F76907"/>
<path d="M71.49 77.9171C70.21 77.9171 69.186 77.5331 68.418 76.7651C67.65 75.9971 67.266 74.9518 67.266 73.6291C67.266 70.8558 68.674 69.4691 71.49 69.4691C72.77 69.4691 73.7727 69.8531 74.498 70.6211C75.266 71.3465 75.65 72.3491 75.65 73.6291C75.65 76.4878 74.2633 77.9171 71.49 77.9171ZM81.346 77.9171C80.066 77.9171 79.042 77.5331 78.274 76.7651C77.506 75.9971 77.122 74.9518 77.122 73.6291C77.122 70.8558 78.53 69.4691 81.346 69.4691C82.626 69.4691 83.6287 69.8531 84.354 70.6211C85.122 71.3465 85.506 72.3491 85.506 73.6291C85.506 76.4878 84.1193 77.9171 81.346 77.9171ZM92.162 106.333H97.922V114.077H91.394C87.426 114.077 84.354 112.754 82.178 110.109C80.3433 111.517 78.1033 112.221 75.458 112.221C71.5327 112.221 68.3967 110.749 66.05 107.805C64.13 105.373 63.17 102.45 63.17 99.0371C63.17 94.8131 64.5353 91.3785 67.266 88.7331C69.57 86.5145 72.2367 85.4051 75.266 85.4051C76.8447 85.4051 78.2953 85.7038 79.618 86.3011V84.6371L87.618 80.4131V101.725C87.618 103.389 87.9593 104.584 88.642 105.309C89.3673 105.992 90.5407 106.333 92.162 106.333ZM79.618 94.3651C78.5087 93.4265 77.25 92.9571 75.842 92.9571C74.434 92.9571 73.282 93.5331 72.386 94.6851C71.5327 95.8371 71.106 97.3518 71.106 99.2291C71.106 101.106 71.5327 102.6 72.386 103.709C73.2393 104.818 74.4127 105.373 75.906 105.373C77.5273 105.373 78.786 104.818 79.682 103.709C79.6393 103.368 79.618 102.834 79.618 102.109V94.3651ZM94.08 114.077V106.333H99.84C101.461 106.333 102.613 105.992 103.296 105.309C103.979 104.584 104.32 103.389 104.32 101.725V89.8851L112.384 85.6611V102.109C112.384 105.992 111.189 109.021 108.8 111.197C106.709 113.117 103.979 114.077 100.608 114.077H94.08ZM107.648 128.349C106.368 128.349 105.344 127.965 104.576 127.197C103.808 126.429 103.424 125.384 103.424 124.061C103.424 122.824 103.808 121.821 104.576 121.053C105.344 120.285 106.368 119.901 107.648 119.901C108.928 119.901 109.931 120.264 110.656 120.989C111.424 121.757 111.808 122.781 111.808 124.061C111.808 126.92 110.421 128.349 107.648 128.349ZM154.285 106.333V114.077H146.413C146.114 117.917 144.408 120.989 141.293 123.293C138.733 125.17 135.746 126.109 132.333 126.109C129.645 126.109 127.021 125.384 124.461 123.933V116.957C126.765 118.28 129.069 118.941 131.373 118.941C133.165 118.941 134.744 118.45 136.109 117.469C137.517 116.488 138.285 115.314 138.413 113.949C138.072 113.906 137.538 113.864 136.813 113.821C136.088 113.736 135.533 113.672 135.149 113.629C130.754 113.16 127.362 111.432 124.973 108.445C122.968 105.928 121.965 102.877 121.965 99.2931C121.965 94.5998 123.245 90.8878 125.805 88.1571C128.066 85.7678 131.053 84.5731 134.765 84.5731C138.562 84.5731 141.528 85.7891 143.661 88.2211C145.496 90.3118 146.413 93.0425 146.413 96.4131V106.333H154.285ZM138.413 96.2851C138.413 93.4691 137.197 92.0611 134.765 92.0611C131.522 92.0611 129.901 94.3865 129.901 99.0371C129.901 103.176 131.778 105.48 135.533 105.949C136.13 106.077 137.09 106.184 138.413 106.269V96.2851ZM150.455 114.077V106.333H159.991C167.5 106.333 173.474 104.093 177.911 99.6131C175.01 94.5358 171.49 91.9971 167.351 91.9971C163.938 91.9971 160.204 93.8531 156.151 97.5651V90.4611C159.735 86.5358 163.788 84.5731 168.311 84.5731C171.639 84.5731 174.882 85.7891 178.039 88.2211C181.196 90.6531 183.991 94.1091 186.423 98.5891V101.789C183.351 105.714 179.511 108.744 174.903 110.877C170.338 113.01 165.346 114.077 159.927 114.077H150.455ZM170.295 128.349C169.015 128.349 167.991 127.965 167.223 127.197C166.455 126.429 166.071 125.384 166.071 124.061C166.071 122.824 166.455 121.821 167.223 121.053C167.991 120.285 169.015 119.901 170.295 119.901C171.575 119.901 172.578 120.264 173.303 120.989C174.071 121.757 174.455 122.781 174.455 124.061C174.455 126.92 173.068 128.349 170.295 128.349ZM214.521 73.3731L212.473 77.0851H200.569L202.617 73.3731H204.537C204.068 72.5198 203.833 71.6451 203.833 70.7491C203.833 69.3838 204.324 68.2105 205.305 67.2291C206.329 66.2478 207.545 65.7571 208.953 65.7571C210.233 65.7571 211.428 66.2051 212.537 67.1011V70.8131C211.513 69.9171 210.489 69.4691 209.465 69.4691C208.057 69.4691 207.353 70.1091 207.353 71.3891C207.353 72.0291 207.63 72.6905 208.185 73.3731H214.521ZM220.025 77.0851L228.089 72.7971V100.765C228.089 104.904 226.83 108.21 224.313 110.685C221.966 112.946 218.873 114.077 215.033 114.077H190.905L194.937 106.333H203.385V85.4051L211.449 81.1171V106.333H214.585C216.548 106.333 217.934 105.906 218.745 105.053C219.598 104.2 220.025 102.749 220.025 100.701V77.0851ZM239.573 114.077V77.0851L247.637 72.7971V114.077H239.573ZM288.974 112.221C287.651 112.477 286.286 112.605 284.878 112.605C280.953 112.605 277.817 111.133 275.47 108.189C273.55 105.714 272.59 102.728 272.59 99.2291C272.59 94.5358 273.87 90.8451 276.43 88.1571C278.691 85.7678 281.678 84.5731 285.39 84.5731C289.187 84.5731 292.153 85.7891 294.286 88.2211C296.121 90.3118 297.038 93.0425 297.038 96.4131V110.109C297.038 115.144 295.715 119.112 293.07 122.013C290.595 124.744 287.225 126.109 282.958 126.109C280.27 126.109 277.646 125.384 275.086 123.933V116.957C277.39 118.28 279.694 118.941 281.998 118.941C286.137 118.941 288.462 116.701 288.974 112.221ZM289.038 96.2851C289.038 93.4691 287.822 92.0611 285.39 92.0611C283.854 92.0611 282.638 92.6798 281.742 93.9171C280.889 95.1545 280.462 96.8398 280.462 98.9731C280.462 103.496 282.083 105.757 285.326 105.757C287.033 105.757 288.27 105.33 289.038 104.477V96.2851ZM327.803 77.9171C326.523 77.9171 325.499 77.5331 324.731 76.7651C323.963 75.9971 323.579 74.9518 323.579 73.6291C323.579 70.8558 324.987 69.4691 327.803 69.4691C329.083 69.4691 330.085 69.8531 330.811 70.6211C331.579 71.3465 331.963 72.3491 331.963 73.6291C331.963 76.4878 330.576 77.9171 327.803 77.9171ZM337.659 77.9171C336.379 77.9171 335.355 77.5331 334.587 76.7651C333.819 75.9971 333.435 74.9518 333.435 73.6291C333.435 70.8558 334.843 69.4691 337.659 69.4691C338.939 69.4691 339.941 69.8531 340.667 70.6211C341.435 71.3465 341.819 72.3491 341.819 73.6291C341.819 76.4878 340.432 77.9171 337.659 77.9171ZM348.475 106.333H354.235V114.077H347.707C343.739 114.077 340.667 112.754 338.491 110.109C336.656 111.517 334.416 112.221 331.771 112.221C327.845 112.221 324.709 110.749 322.363 107.805C320.443 105.373 319.483 102.45 319.483 99.0371C319.483 94.8131 320.848 91.3785 323.579 88.7331C325.883 86.5145 328.549 85.4051 331.579 85.4051C333.157 85.4051 334.608 85.7038 335.931 86.3011V84.6371L343.931 80.4131V101.725C343.931 103.389 344.272 104.584 344.955 105.309C345.68 105.992 346.853 106.333 348.475 106.333ZM335.931 94.3651C334.821 93.4265 333.563 92.9571 332.155 92.9571C330.747 92.9571 329.595 93.5331 328.699 94.6851C327.845 95.8371 327.419 97.3518 327.419 99.2291C327.419 101.106 327.845 102.6 328.699 103.709C329.552 104.818 330.725 105.373 332.219 105.373C333.84 105.373 335.099 104.818 335.995 103.709C335.952 103.368 335.931 102.834 335.931 102.109V94.3651ZM372.409 106.333H378.169V114.077H371.641C368.313 114.077 365.603 113.138 363.513 111.261C361.166 113.138 358.286 114.077 354.873 114.077H350.392V106.333H354.424C356.387 106.333 357.774 105.906 358.585 105.053C359.438 104.2 359.865 102.749 359.865 100.701V77.0851L367.865 72.7971V85.7251L367.929 85.6611V101.725C367.929 103.389 368.27 104.584 368.953 105.309C369.635 105.992 370.787 106.333 372.409 106.333ZM393.594 74.2691L391.546 77.9811H379.642L381.69 74.2691H383.61C383.141 73.4158 382.906 72.5411 382.906 71.6451C382.906 70.2798 383.397 69.1065 384.378 68.1251C385.402 67.1438 386.618 66.6531 388.026 66.6531C389.306 66.6531 390.501 67.1011 391.61 67.9971V71.7091C390.586 70.8131 389.562 70.3651 388.538 70.3651C387.13 70.3651 386.426 71.0051 386.426 72.2851C386.426 72.9251 386.703 73.5865 387.258 74.2691H393.594ZM397.114 106.333H402.874V114.077H396.346C393.231 114.077 390.65 113.245 388.602 111.581C386.554 113.245 383.973 114.077 380.858 114.077H374.33V106.333H380.09C381.711 106.333 382.863 105.992 383.546 105.309C384.229 104.584 384.57 103.389 384.57 101.725V89.8851L392.634 85.6611V101.725C392.634 103.389 392.975 104.584 393.658 105.309C394.341 105.992 395.493 106.333 397.114 106.333ZM399.017 114.077V106.333H405.802C407.423 106.333 408.575 105.992 409.258 105.309C409.983 104.584 410.345 103.389 410.345 101.725V93.2771L418.41 89.0531V101.725C418.41 103.389 418.751 104.584 419.434 105.309C420.116 105.992 421.268 106.333 422.89 106.333H427.242C428.863 106.333 430.015 105.992 430.698 105.309C431.38 104.584 431.722 103.389 431.722 101.725V91.6131L439.786 87.3251V101.725C439.786 103.389 440.127 104.584 440.81 105.309C441.535 105.992 442.708 106.333 444.33 106.333H448.682C450.303 106.333 451.455 105.992 452.138 105.309C452.82 104.584 453.162 103.389 453.162 101.725V89.8851L461.226 85.6611V102.109C461.226 105.906 460.074 108.893 457.77 111.069C455.764 112.989 453.119 113.992 449.834 114.077H443.498C440.34 114.077 437.759 113.138 435.754 111.261C433.919 113.096 431.487 114.034 428.458 114.077H422.122C418.964 114.077 416.383 113.138 414.378 111.261C412.372 113.138 409.791 114.077 406.634 114.077H399.017ZM491.896 73.3731L489.848 77.0851H477.944L479.992 73.3731H481.912C481.443 72.5198 481.208 71.6451 481.208 70.7491C481.208 69.3838 481.699 68.2105 482.68 67.2291C483.704 66.2478 484.92 65.7571 486.328 65.7571C487.608 65.7571 488.803 66.2051 489.912 67.1011V70.8131C488.888 69.9171 487.864 69.4691 486.84 69.4691C485.432 69.4691 484.728 70.1091 484.728 71.3891C484.728 72.0291 485.005 72.6905 485.56 73.3731H491.896ZM497.4 77.0851L505.464 72.7971V100.765C505.464 104.904 504.205 108.21 501.688 110.685C499.341 112.946 496.248 114.077 492.408 114.077H468.28L472.312 106.333H480.76V85.4051L488.824 81.1171V106.333H491.96C493.923 106.333 495.309 105.906 496.12 105.053C496.973 104.2 497.4 102.749 497.4 100.701V77.0851ZM516.948 114.077V77.0851L525.012 72.7971V114.077H516.948Z" fill="#091242"/>
</svg>
