<svg width="215" height="100" viewBox="0 0 215 100" fill="none" xmlns="http://www.w3.org/2000/svg">
<path d="M36.1158 27.3513C36.1231 27.3251 36.1354 27.3007 36.152 27.2794C36.1685 27.2582 36.1891 27.2405 36.2124 27.2274C36.2358 27.2144 36.2614 27.2061 36.2879 27.2033C36.3143 27.2005 36.341 27.203 36.3665 27.2109C40.8508 28.1108 45.3122 29.1116 49.7508 30.2132C58.4537 32.3839 67.6545 34.6338 77.3532 36.9629C88.3713 39.6106 102.141 42.5553 118.662 45.797C135.618 49.2191 152.755 51.6252 169.985 53.003C179.432 53.8615 188.943 53.6396 198.342 52.3415C205.005 51.2616 214.642 48.4077 214.951 39.814C215.208 36.6099 214.433 33.4079 212.745 30.6965C212.463 30.3563 212.328 30.4076 212.339 30.853C212.362 32.2705 212.426 33.6772 212.518 35.0811C212.679 36.5707 212.365 38.0735 211.625 39.3664C210.884 40.6593 209.755 41.6732 208.407 42.2575C205.982 43.6296 203.319 44.5036 200.567 44.8304C195.076 45.4684 189.534 45.4865 184.039 44.8844C180.042 44.5119 175.366 43.9043 170.009 43.062C161.212 41.6796 152.938 40.1209 145.185 38.3858C136.721 36.4922 126.019 33.733 113.078 30.1079C110.791 29.4726 108.562 28.829 106.391 28.1774C82.7769 21.1451 58.8575 14.2892 34.6328 7.6097C27.8193 5.73058 20.3557 3.81456 12.2421 1.86163C9.14653 1.09536 6.01447 0.492469 2.85835 0.0553855C2.38569 -0.00530727 1.90819 -0.016146 1.43337 0.0230046C1.30823 0.032844 1.19062 0.0879336 1.10164 0.178482C1.01265 0.269031 0.958101 0.389068 0.947802 0.51704C0.797387 2.23687 2.71584 4.44269 3.76083 5.56855C5.52006 7.47288 7.14208 9.28543 8.62688 11.0062C9.99204 12.5937 11.5815 14.6258 13.3953 17.1025C21.4694 28.1383 28.5878 39.8733 34.6697 52.1741C38.6006 59.9926 42.0219 68.0686 44.9111 76.349C45.8119 78.9653 46.5738 81.6295 47.1937 84.3299C47.2384 84.6756 47.4002 84.9945 47.6509 85.2308C47.9017 85.4671 48.2254 85.6059 48.5659 85.6231C48.6399 85.6285 48.7133 85.6059 48.7722 85.5596C48.831 85.5133 48.8712 85.4466 48.8852 85.3721C49.0214 84.5792 49.0718 83.7733 49.0357 82.9691C48.9296 80.6714 48.6953 78.3817 48.3337 76.1114C46.479 64.6264 44.0124 53.2537 40.9449 42.0442C40.5931 40.7842 40.1867 39.5296 39.7258 38.2805C38.3712 34.6806 37.167 31.1581 36.1132 27.7131C36.0713 27.5944 36.0713 27.4646 36.1132 27.3459" fill="#F76907"/>
<path d="M195.033 79.982C195.033 77.4045 195.835 75.3854 197.439 73.9248C198.842 72.6647 200.647 72.0347 202.852 72.0347C205.687 72.0347 207.892 73.08 209.467 75.1706C210.814 76.9176 211.487 79.1658 211.487 81.9151C211.487 85.094 210.642 87.5999 208.952 89.4328C207.434 91.0366 205.501 91.8385 203.153 91.8385C200.862 91.8385 198.986 91.3373 197.525 90.3349C196.15 91.3373 194.489 91.8385 192.542 91.8385H188.16V86.6405H192.026C193.115 86.6405 193.888 86.4114 194.346 85.9532C194.804 85.4663 195.033 84.6644 195.033 83.5475V79.982ZM200.446 84.2348C200.446 85.8386 201.291 86.6405 202.981 86.6405C205.1 86.6405 206.16 85.0081 206.16 81.7433C206.16 78.6216 205.057 77.0608 202.852 77.0608C201.248 77.0608 200.446 78.0059 200.446 79.896V84.2348Z" fill="#091242"/>
<path d="M171.868 73.0653C171.009 73.0653 170.322 72.8075 169.806 72.292C169.291 71.7765 169.033 71.0749 169.033 70.1871C169.033 69.3565 169.291 68.6835 169.806 68.168C170.322 67.6525 171.009 67.3948 171.868 67.3948C172.728 67.3948 173.401 67.6525 173.887 68.168C174.403 68.6549 174.661 69.3279 174.661 70.1871C174.661 72.1059 173.73 73.0653 171.868 73.0653ZM186.861 86.6401H190.727V91.8381H186.345C185.372 91.8381 184.47 91.7092 183.639 91.4515C183.095 94.2008 181.706 96.363 179.472 97.9382C177.467 99.3128 175.033 100 172.169 100C168.303 100 165.31 98.6398 163.191 95.9191C161.53 93.7998 160.699 91.3083 160.699 88.4444C160.699 86.1819 161.229 84.2058 162.289 82.5161L167.444 81.4422C166.298 83.3896 165.725 85.4373 165.725 87.5852C165.725 89.7618 166.341 91.523 167.573 92.8691C168.747 94.1578 170.279 94.8022 172.169 94.8022C174.145 94.8022 175.677 94.301 176.766 93.2987C177.883 92.2963 178.441 90.893 178.441 89.0887V75.5998L183.854 72.7646V83.5471C183.854 84.664 184.083 85.4659 184.541 85.9528C184.999 86.411 185.773 86.6401 186.861 86.6401Z" fill="#091242"/>
<path d="M140.943 68.4259C140.084 68.4259 139.396 68.1681 138.881 67.6526C138.365 67.1371 138.108 66.4355 138.108 65.5477C138.108 64.7171 138.365 64.0441 138.881 63.5286C139.396 63.0131 140.084 62.7554 140.943 62.7554C141.802 62.7554 142.475 63.0131 142.962 63.5286C143.478 64.0155 143.735 64.6885 143.735 65.5477C143.735 67.4665 142.804 68.4259 140.943 68.4259ZM131.234 91.8382V86.6402H135.101C136.189 86.6402 136.962 86.4111 137.42 85.9529C137.879 85.466 138.108 84.6641 138.108 83.5472V75.5999L143.52 72.7647V83.805C143.52 86.4111 142.719 88.4445 141.115 89.905C139.711 91.1938 137.879 91.8382 135.616 91.8382H131.234Z" fill="#091242"/>
<path d="M130.212 86.6405H133.82V91.8385H130.169C127.907 91.8385 126.088 91.595 124.713 91.1082C123.367 90.5927 122.107 89.7049 120.933 88.4448C117.353 90.7072 113.229 91.8385 108.561 91.8385H102.203V86.6405H108.604C113.644 86.6405 117.654 85.137 120.632 82.1299C118.685 78.7219 116.322 77.0178 113.544 77.0178C111.253 77.0178 108.747 78.2636 106.026 80.7552V75.9868C108.432 73.3521 111.153 72.0347 114.189 72.0347C116.422 72.0347 118.599 72.8509 120.718 74.4833C122.837 76.1157 124.713 78.4355 126.346 81.4425V83.5905C125.887 84.1919 125.286 84.8649 124.541 85.6095C125.687 86.2968 127.577 86.6405 130.212 86.6405Z" fill="#091242"/>
<path d="M85.9114 73.0653C85.0522 73.0653 84.3649 72.8075 83.8494 72.292C83.3339 71.7765 83.0761 71.0749 83.0761 70.1871C83.0761 69.3565 83.3339 68.6835 83.8494 68.168C84.3649 67.6525 85.0522 67.3948 85.9114 67.3948C86.7705 67.3948 87.4435 67.6525 87.9304 68.168C88.4459 68.6549 88.7036 69.3279 88.7036 70.1871C88.7036 72.1059 87.7729 73.0653 85.9114 73.0653ZM100.904 86.6401H104.77V91.8381H100.388C99.4146 91.8381 98.5125 91.7092 97.6819 91.4515C97.1378 94.2008 95.7488 96.363 93.515 97.9382C91.5103 99.3128 89.076 100 86.2121 100C82.3458 100 79.3531 98.6398 77.2338 95.9191C75.5727 93.7998 74.7422 91.3083 74.7422 88.4444C74.7422 86.1819 75.272 84.2058 76.3316 82.5161L81.4866 81.4422C80.3411 83.3896 79.7683 85.4373 79.7683 87.5852C79.7683 89.7618 80.3841 91.523 81.6155 92.8691C82.7897 94.1578 84.3219 94.8022 86.2121 94.8022C88.1882 94.8022 89.7203 94.301 90.8086 93.2987C91.9255 92.2963 92.484 90.893 92.484 89.0887V75.5998L97.8967 72.7646V83.5471C97.8967 84.664 98.1258 85.4659 98.5841 85.9528C99.0423 86.411 99.8155 86.6401 100.904 86.6401Z" fill="#091242"/>
<path d="M61.465 84.9647C61.6941 84.4778 61.8087 83.9767 61.8087 83.4612C61.8087 82.6593 61.5795 81.9433 61.1213 81.3132C60.6917 80.6545 59.718 79.5949 58.2002 78.1343C57.7706 77.7334 57.4126 77.404 57.1262 77.1463C55.0356 75.0843 53.9902 72.8218 53.9902 70.3589C53.9902 68.2109 54.7778 66.4496 56.3529 65.075C57.7849 63.8149 59.6035 63.1848 61.8087 63.1848C64.1857 63.1848 66.3479 64.0153 68.2954 65.6764V70.5737C66.2906 68.7694 64.3432 67.8673 62.453 67.8673C61.4793 67.8673 60.6917 68.1393 60.0903 68.6835C59.5175 69.199 59.2312 69.915 59.2312 70.8314C59.2312 71.8624 59.7467 72.922 60.7777 74.0103C60.9781 74.2108 61.4507 74.669 62.1953 75.385C63.8277 76.9028 64.9589 78.2632 65.589 79.466C66.2477 80.6402 66.577 81.929 66.577 83.3323C66.577 83.8478 66.4768 84.3919 66.2763 84.9647H61.465ZM64.3862 92.7831C63.4124 92.7831 62.6249 92.4824 62.0234 91.881C61.4507 91.2796 61.1643 90.4777 61.1643 89.4753C61.1643 88.6162 61.465 87.9145 62.0664 87.3704C62.6678 86.7976 63.4411 86.5112 64.3862 86.5112C65.3312 86.5112 66.0902 86.8119 66.6629 87.4133C67.2357 87.9861 67.5221 88.745 67.5221 89.6901C67.5221 90.6066 67.2357 91.3512 66.6629 91.924C66.0902 92.4967 65.3312 92.7831 64.3862 92.7831Z" fill="#091242"/>
</svg>
