<svg width="1894" height="749" viewBox="0 0 1894 749" fill="none" xmlns="http://www.w3.org/2000/svg">
<mask id="path-1-inside-1_167_852" fill="white">
<path d="M315.513 239.079C315.578 238.85 315.688 238.637 315.837 238.451C315.986 238.266 316.17 238.111 316.38 237.997C316.589 237.883 316.819 237.811 317.056 237.786C317.293 237.762 317.533 237.784 317.762 237.853C357.983 245.715 398 254.457 437.811 264.08C515.872 283.043 598.398 302.698 685.39 323.045C784.216 346.175 907.722 371.899 1055.91 400.218C1207.99 430.114 1361.7 451.133 1516.25 463.169C1600.98 470.669 1686.29 468.731 1770.59 457.391C1830.36 447.957 1916.8 423.026 1919.57 347.952C1921.87 319.961 1914.92 291.989 1899.78 268.302C1897.25 265.331 1896.04 265.778 1896.14 269.67C1896.35 282.053 1896.92 294.341 1897.74 306.606C1899.19 319.618 1896.38 332.747 1889.73 344.042C1883.09 355.336 1872.97 364.194 1860.87 369.298C1839.12 381.285 1815.23 388.92 1790.55 391.775C1741.3 397.348 1691.59 397.507 1642.31 392.247C1606.46 388.992 1564.51 383.685 1516.46 376.326C1437.56 364.25 1363.34 350.633 1293.8 335.475C1217.89 318.933 1121.9 294.829 1005.82 263.161C985.309 257.61 965.316 251.988 945.845 246.296C734.038 184.863 519.493 124.971 302.211 66.619C241.097 50.2032 174.153 33.4651 101.379 16.4046C73.613 9.71052 45.5201 4.44375 17.2115 0.625443C12.972 0.095238 8.68906 0.00055185 4.43013 0.342567C3.30775 0.428522 2.25285 0.909779 1.4547 1.7008C0.656553 2.49183 0.167259 3.54045 0.0748854 4.6584C-1.27425 19.6827 15.9332 38.9524 25.3062 48.7878C41.0856 65.4237 55.6342 81.2579 68.952 96.2901C81.1968 110.159 95.4535 127.911 111.722 149.547C184.143 245.955 247.991 348.47 302.542 455.928C337.8 524.23 368.487 594.78 394.402 667.117C402.481 689.973 409.316 713.247 414.876 736.837C415.277 739.858 416.728 742.643 418.977 744.707C421.226 746.772 424.13 747.984 427.184 748.135C427.848 748.181 428.506 747.984 429.034 747.58C429.561 747.176 429.922 746.593 430.048 745.942C431.269 739.015 431.722 731.975 431.397 724.95C430.446 704.877 428.344 684.875 425.101 665.041C408.465 564.71 386.341 465.36 358.827 367.434C355.672 356.427 352.027 345.468 347.892 334.555C335.742 303.107 324.941 272.335 315.489 242.24C315.113 241.203 315.113 240.069 315.489 239.032"/>
</mask>
<path d="M317.762 237.853L317.187 239.768L317.281 239.797L317.378 239.815L317.762 237.853ZM437.811 264.08L438.283 262.137L438.281 262.136L437.811 264.08ZM685.39 323.045L685.846 321.098L685.846 321.098L685.39 323.045ZM1055.91 400.218L1056.29 398.256L1056.28 398.254L1055.91 400.218ZM1516.25 463.169L1516.42 461.177L1516.41 461.176L1516.4 461.175L1516.25 463.169ZM1770.59 457.391L1770.86 459.373L1770.88 459.37L1770.91 459.366L1770.59 457.391ZM1919.57 347.952L1917.57 347.788L1917.57 347.833L1917.57 347.878L1919.57 347.952ZM1899.78 268.302L1901.47 267.225L1901.39 267.11L1901.3 267.005L1899.78 268.302ZM1896.14 269.67L1898.14 269.636L1898.13 269.628L1898.13 269.621L1896.14 269.67ZM1897.74 306.606L1895.75 306.741L1895.75 306.783L1895.76 306.826L1897.74 306.606ZM1860.87 369.298L1860.09 367.455L1859.99 367.496L1859.9 367.546L1860.87 369.298ZM1790.55 391.775L1790.77 393.762L1790.78 393.761L1790.55 391.775ZM1642.31 392.247L1642.52 390.258L1642.5 390.256L1642.49 390.255L1642.31 392.247ZM1516.46 376.326L1516.76 374.349L1516.76 374.349L1516.46 376.326ZM1293.8 335.475L1294.23 333.521L1294.23 333.521L1293.8 335.475ZM1005.82 263.161L1006.35 261.231L1006.34 261.23L1005.82 263.161ZM945.845 246.296L946.406 244.377L946.402 244.376L945.845 246.296ZM302.211 66.619L301.692 68.5506L301.692 68.5506L302.211 66.619ZM101.379 16.4046L100.91 18.3489L100.922 18.3518L101.379 16.4046ZM17.2115 0.625443L17.4788 -1.35661L17.4692 -1.3579L17.4597 -1.3591L17.2115 0.625443ZM4.43013 0.342567L4.58286 2.33674L4.59023 2.33615L4.43013 0.342567ZM0.0748854 4.6584L2.06687 4.83728L2.06751 4.83019L2.06809 4.8231L0.0748854 4.6584ZM25.3062 48.7878L26.7573 47.4114L26.754 47.408L25.3062 48.7878ZM68.952 96.2901L70.4513 94.9663L70.449 94.9638L68.952 96.2901ZM111.722 149.547L113.321 148.346L113.321 148.345L111.722 149.547ZM302.542 455.928L300.759 456.834L300.765 456.846L302.542 455.928ZM394.402 667.117L396.288 666.451L396.285 666.443L394.402 667.117ZM414.876 736.837L416.859 736.574L416.846 736.475L416.823 736.378L414.876 736.837ZM427.184 748.135L427.323 746.14L427.303 746.138L427.282 746.137L427.184 748.135ZM430.048 745.942L432.011 746.321L432.014 746.305L432.017 746.289L430.048 745.942ZM431.397 724.95L433.395 724.858L433.395 724.855L431.397 724.95ZM425.101 665.041L427.075 664.719L427.074 664.714L425.101 665.041ZM358.827 367.434L360.753 366.893L360.75 366.883L358.827 367.434ZM347.892 334.555L349.763 333.847L349.758 333.834L347.892 334.555ZM315.489 242.24L317.397 241.64L317.384 241.599L317.369 241.558L315.489 242.24ZM317.436 239.628C317.428 239.655 317.415 239.68 317.398 239.701L314.276 237.201C313.961 237.594 313.728 238.046 313.59 238.531L317.436 239.628ZM317.398 239.701C317.38 239.724 317.359 239.741 317.337 239.753L315.422 236.241C314.981 236.482 314.591 236.807 314.276 237.201L317.398 239.701ZM317.337 239.753C317.317 239.764 317.292 239.773 317.264 239.776L316.849 235.797C316.346 235.85 315.861 236.002 315.422 236.241L317.337 239.753ZM317.264 239.776C317.238 239.778 317.212 239.776 317.187 239.768L318.336 235.937C317.854 235.792 317.348 235.745 316.849 235.797L317.264 239.776ZM317.378 239.815C357.571 247.672 397.559 256.408 437.341 266.024L438.281 262.136C398.441 252.506 358.396 243.757 318.145 235.89L317.378 239.815ZM437.339 266.024C515.406 284.988 597.938 304.644 684.935 324.992L685.846 321.098C598.859 300.752 516.338 281.098 438.283 262.137L437.339 266.024ZM684.934 324.992C783.797 348.131 907.331 373.861 1055.53 402.183L1056.28 398.254C908.112 369.938 784.636 344.219 685.846 321.098L684.934 324.992ZM1055.52 402.181C1207.68 432.091 1361.47 453.121 1516.09 465.163L1516.4 461.175C1361.93 449.145 1208.3 428.136 1056.29 398.256L1055.52 402.181ZM1516.07 465.162C1600.95 472.674 1686.41 470.733 1770.86 459.373L1770.33 455.409C1686.17 466.729 1601.01 468.664 1516.42 461.177L1516.07 465.162ZM1770.91 459.366C1800.86 454.637 1837.7 446.001 1867.45 429.023C1897.24 412.016 1920.15 386.484 1921.57 348.025L1917.57 347.878C1916.22 384.494 1894.52 408.964 1865.46 425.549C1836.35 442.164 1800.09 450.71 1770.28 455.415L1770.91 459.366ZM1921.56 348.116C1923.9 319.689 1916.84 291.28 1901.47 267.225L1898.1 269.38C1913 292.697 1919.84 320.234 1917.57 347.788L1921.56 348.116ZM1901.3 267.005C1900.62 266.209 1899.94 265.521 1899.25 265.056C1898.63 264.643 1897.52 264.074 1896.27 264.539C1895.02 265.008 1894.56 266.18 1894.37 266.899C1894.16 267.705 1894.11 268.676 1894.14 269.719L1898.13 269.621C1898.12 269.184 1898.13 268.821 1898.16 268.524C1898.17 268.377 1898.18 268.25 1898.2 268.144C1898.21 268.037 1898.23 267.955 1898.25 267.894C1898.26 267.833 1898.27 267.802 1898.28 267.795C1898.28 267.787 1898.27 267.814 1898.24 267.862C1898.2 267.91 1898.14 267.987 1898.05 268.068C1897.95 268.151 1897.82 268.229 1897.67 268.286C1897.52 268.342 1897.38 268.365 1897.25 268.367C1897.13 268.369 1897.04 268.352 1896.98 268.338C1896.93 268.324 1896.91 268.312 1896.92 268.316C1896.93 268.321 1896.96 268.337 1897.01 268.374C1897.06 268.41 1897.13 268.461 1897.22 268.531C1897.3 268.601 1897.4 268.687 1897.51 268.79C1897.72 268.998 1897.97 269.265 1898.26 269.6L1901.3 267.005ZM1894.14 269.704C1894.35 282.125 1894.92 294.448 1895.75 306.741L1899.74 306.471C1898.91 294.235 1898.35 281.98 1898.14 269.636L1894.14 269.704ZM1895.76 306.826C1897.15 319.409 1894.43 332.105 1888.01 343.028L1891.46 345.056C1898.32 333.39 1901.22 319.828 1899.73 306.386L1895.76 306.826ZM1888.01 343.028C1881.58 353.951 1871.79 362.518 1860.09 367.455L1861.65 371.14C1874.14 365.87 1884.59 356.722 1891.46 345.056L1888.01 343.028ZM1859.9 367.546C1838.38 379.407 1814.75 386.963 1790.32 389.788L1790.78 393.761C1815.72 390.876 1839.86 383.162 1861.83 371.049L1859.9 367.546ZM1790.32 389.787C1741.22 395.344 1691.66 395.502 1642.52 390.258L1642.1 394.235C1691.52 399.511 1741.38 399.352 1790.77 393.762L1790.32 389.787ZM1642.49 390.255C1606.69 387.005 1564.78 381.703 1516.76 374.349L1516.16 378.303C1564.23 385.666 1606.22 390.979 1642.13 394.238L1642.49 390.255ZM1516.76 374.349C1437.9 362.278 1363.72 348.669 1294.23 333.521L1293.38 337.429C1362.96 352.597 1437.22 366.221 1516.16 378.303L1516.76 374.349ZM1294.23 333.521C1218.36 316.989 1122.4 292.895 1006.35 261.231L1005.3 265.09C1121.39 296.763 1217.42 320.877 1293.38 337.429L1294.23 333.521ZM1006.34 261.23C985.844 255.683 965.864 250.065 946.406 244.377L945.284 248.216C964.769 253.912 984.774 259.538 1005.3 265.092L1006.34 261.23ZM946.402 244.376C734.582 182.938 520.025 123.043 302.73 64.6875L301.692 68.5506C518.962 126.899 733.494 186.787 945.288 248.217L946.402 244.376ZM302.73 64.6875C241.592 48.2652 174.627 31.5219 101.835 14.4574L100.922 18.3518C173.68 35.4083 240.603 52.1412 301.692 68.5506L302.73 64.6875ZM101.848 14.4603C74.0153 7.75021 45.8552 2.47084 17.4788 -1.35661L16.9441 2.60749C45.1851 6.41667 73.2107 11.6708 100.91 18.3489L101.848 14.4603ZM17.4597 -1.3591C13.0847 -1.90625 8.66496 -2.00395 4.27004 -1.65102L4.59023 2.33615C8.71316 2.00506 12.8593 2.09672 16.9633 2.60998L17.4597 -1.3591ZM4.27741 -1.65159C2.68327 -1.52951 1.18308 -0.845826 0.0468458 0.280262L2.86256 3.12134C3.32263 2.66538 3.93224 2.38655 4.58285 2.33673L4.27741 -1.65159ZM0.0468458 0.280262C-1.08907 1.40604 -1.78661 2.89971 -1.91832 4.49371L2.06809 4.8231C2.12113 4.18119 2.40218 3.57761 2.86256 3.12134L0.0468458 0.280262ZM-1.9171 4.47953C-2.65733 12.7229 1.66409 21.7986 7.00774 29.7815C12.4119 37.8547 19.155 45.2322 23.8583 50.1675L26.754 47.408C22.0844 42.508 15.5373 35.3329 10.3318 27.5564C5.06571 19.6895 1.45797 11.6182 2.06687 4.83728L-1.9171 4.47953ZM23.8551 50.1641C39.621 66.7859 54.1542 82.6033 67.455 97.6163L70.449 94.9638C57.1143 79.9126 42.5501 64.0616 26.7573 47.4114L23.8551 50.1641ZM67.4528 97.6138C79.6511 111.43 93.8735 129.137 110.124 150.749L113.321 148.345C97.0335 126.684 82.7426 108.888 70.4513 94.9663L67.4528 97.6138ZM110.123 150.748C182.474 247.063 246.26 349.479 300.759 456.834L304.326 455.023C249.722 347.46 185.812 244.846 113.321 148.346L110.123 150.748ZM300.765 456.846C335.982 525.069 366.634 595.538 392.519 667.792L396.285 666.443C370.34 594.023 339.618 523.391 304.32 455.011L300.765 456.846ZM392.516 667.784C400.571 690.571 407.386 713.776 412.929 737.296L416.823 736.378C411.246 712.718 404.391 689.375 396.288 666.451L392.516 667.784ZM412.893 737.1C413.356 740.586 415.03 743.8 417.624 746.181L420.329 743.234C418.425 741.486 417.197 739.129 416.859 736.574L412.893 737.1ZM417.624 746.181C420.218 748.561 423.566 749.959 427.085 750.132L427.282 746.137C424.694 746.01 422.233 744.982 420.329 743.234L417.624 746.181ZM427.044 750.13C428.193 750.211 429.334 749.869 430.25 749.168L427.817 745.992C427.678 746.099 427.502 746.152 427.323 746.14L427.044 750.13ZM430.25 749.168C431.165 748.466 431.793 747.454 432.011 746.321L428.084 745.563C428.051 745.732 427.957 745.885 427.817 745.992L430.25 749.168ZM432.017 746.289C433.264 739.217 433.726 732.03 433.395 724.858L429.399 725.042C429.717 731.92 429.274 738.813 428.078 745.594L432.017 746.289ZM433.395 724.855C432.44 704.706 430.33 684.628 427.075 664.719L423.127 665.364C426.358 685.122 428.452 705.048 429.399 725.044L433.395 724.855ZM427.074 664.714C410.427 564.311 388.287 464.889 360.753 366.893L356.902 367.975C384.396 465.831 406.504 565.109 423.128 665.368L427.074 664.714ZM360.75 366.883C357.579 355.822 353.916 344.81 349.763 333.847L346.022 335.264C350.137 346.125 353.765 357.033 356.905 367.985L360.75 366.883ZM349.758 333.834C337.622 302.424 326.836 271.692 317.397 241.64L313.581 242.839C323.047 272.978 333.862 303.791 346.027 335.276L349.758 333.834ZM317.369 241.558C317.153 240.962 317.153 240.31 317.369 239.714L313.609 238.35C313.073 239.827 313.073 241.445 313.609 242.922L317.369 241.558Z" fill="#F76907" mask="url(#path-1-inside-1_167_852)"/>
</svg>
