<svg id="logo" xmlns="http://www.w3.org/2000/svg" width="149.326" height="37.573" viewBox="0 0 149.326 37.573">
    <path id="Path_2717" data-name="Path 2717" d="M-596.07,182.71v37.573h12.526v-1.378h-11.189V184h33.581v34.89h-15.956c-.323,0-.646,0-.969-.01l-.014-4.106c0-1.343-.09-2.685-.067-4.028a5.176,5.176,0,0,1,.268-1.381c8.224,3.757,14.407-2.889,14.623-7.6q-9.434-2.237-15.177,5.549a14.371,14.371,0,0,1-3.164-17.478,10.221,10.221,0,0,1,3.359,12.742,9.1,9.1,0,0,1-1.21-5.309c-.4,0-1.346.017-1.346.017s0,.217,0,.267a19.185,19.185,0,0,0,.138,2.424,9.842,9.842,0,0,0,1.661,4.039c.269.392.594.748.9,1.132a11.646,11.646,0,0,0-4.071-17.255c-.252.44-.521.873-.755,1.327a14.93,14.93,0,0,0-1.708,5.94,16.649,16.649,0,0,0,.358,5.017,15.883,15.883,0,0,0,4.548,7.884,1.03,1.03,0,0,1,.377,1.3,6.3,6.3,0,0,0-.14,2.369c.058,1.952.052,3.9.067,5.86.006.892,0,1.786,0,2.691h19.619V182.71ZM-574.7,205.3a11.659,11.659,0,0,1,4.644-2.309,11.812,11.812,0,0,1,3.407-.368c.53.032,1.056.137,1.583.214.16.023.13.187.108.26a8.016,8.016,0,0,1-1.506,2.774,8.469,8.469,0,0,1-4.052,2.76,8.661,8.661,0,0,1-6.263-.346c-.134-.057-.263-.126-.414-.2A11.229,11.229,0,0,1-574.7,205.3Z" transform="translate(596.07 -182.71)" fill="#609966"/>
    <g id="Group_3161" data-name="Group 3161" transform="translate(51.852 7.588)">
        <path id="Path_2718" data-name="Path 2718" d="M-410.6,478.156a5.847,5.847,0,0,0-3.518-4.638,5.7,5.7,0,0,1-.526-.255c.353-.237.631-.394.879-.593a5.668,5.668,0,0,0,2.043-5.794,4.447,4.447,0,0,0-4-3.8,75.508,75.508,0,0,0-7.777-.064v22.231a1.705,1.705,0,0,0,.281.068c2.073.008,4.146-.023,6.215.022a6.218,6.218,0,0,0,4.517-1.848A6.459,6.459,0,0,0-410.6,478.156Zm-10.24-12.753c1.3.06,2.557.03,3.793.188a2.56,2.56,0,0,1,2.572,2.4,3.679,3.679,0,0,1-1.671,3.823c-1.479.83-3.072.436-4.694.526Zm5.4,16.846a10.791,10.791,0,0,1-5.415.447v-7.773c1.641.1,3.248.1,4.821.334s2.415,1.453,2.633,3.361A3.794,3.794,0,0,1-415.434,482.249Z" transform="translate(488.054 -462.933)" fill="#609966"/>
        <path id="Path_2719" data-name="Path 2719" d="M-585.193,482.876v2.538H-596.11V463.18h10.4V465.6h-7.942v7.06h7.443v2.64h-7.443v7.578Z" transform="translate(596.11 -463.087)" fill="#609966"/>
        <path id="Path_2720" data-name="Path 2720" d="M-547.976,463.25v2.4h-5.9v19.786H-556.5v-19.79h-5.933v-2.4Z" transform="translate(575.077 -463.131)" fill="#609966"/>
        <path id="Path_2721" data-name="Path 2721" d="M-506.71,463.2v2.388H-512.6v19.839h-2.625V465.618h-5.967V463.2Z" transform="translate(549.207 -463.1)" fill="#609966"/>
        <path id="Path_2722" data-name="Path 2722" d="M-463.411,482.4c-.184-.533-.368-1.063-.559-1.6-1.949-5.505-3.917-11.006-5.836-16.519-.255-.721-.364-1.074-.364-1.074H-473.1s-.109.353-.364,1.074c-1.919,5.513-3.887,11.014-5.836,16.519-.191.537-.375,1.066-.56,1.6-.345.984-.687,1.979-1.051,3.034.781,0,1.408-.008,2.047-.008h.954s.109-.383.21-.725c.233-.773.5-1.54.759-2.3.285-.811.571-1.619.83-2.437.083-.255.225-.68.225-.68s2.092.008,4.251.008,4.251-.008,4.251-.008.143.424.225.68c.259.819.545,1.626.83,2.437.263.762.526,1.528.758,2.3.1.342.21.725.21.725h.954c.638,0,1.266.008,2.047.008C-462.724,484.382-463.065,483.387-463.411,482.4ZM-475,476.593c1.1-3.218,2.189-6.41,3.361-9.835,0,0,0,.008,0,.011s0-.008,0-.011c1.172,3.425,2.261,6.617,3.361,9.835Z" transform="translate(523.981 -463.106)" fill="#609966"/>
        <path id="Path_2723" data-name="Path 2723" d="M-367.516,482.4c-.184-.533-.368-1.063-.56-1.6-1.949-5.505-3.917-11.006-5.836-16.519-.255-.721-.364-1.074-.364-1.074H-377.2s-.109.353-.364,1.074c-1.919,5.513-3.887,11.014-5.836,16.519-.191.537-.375,1.066-.56,1.6-.346.984-.687,1.979-1.051,3.034.781,0,1.408-.008,2.047-.008h.954s.109-.383.21-.725c.233-.773.5-1.54.759-2.3.285-.811.571-1.619.83-2.437.083-.255.225-.68.225-.68s2.092.008,4.251.008,4.251-.008,4.251-.008.143.424.225.68c.259.819.545,1.626.83,2.437.263.762.526,1.528.759,2.3.1.342.21.725.21.725h.954c.638,0,1.266.008,2.047.008C-366.828,484.382-367.17,483.387-367.516,482.4Zm-11.589-5.809c1.1-3.218,2.189-6.41,3.361-9.835,0,0,0,.008,0,.011s0-.008,0-.011c1.172,3.425,2.261,6.617,3.361,9.835Z" transform="translate(463.939 -463.106)" fill="#609966"/>
    </g>
</svg>
